<?xml version="1.0" standalone="no"?>
<!DOCTYPE svg PUBLIC "-//W3C//DTD SVG 1.1//EN" "http://www.w3.org/Graphics/SVG/1.1/DTD/svg11.dtd" >
<svg xmlns="http://www.w3.org/2000/svg">
<metadata>Generated by IcoMoon</metadata>
<defs>
<font id="RemixIcons-Business" horiz-adv-x="1024">
<font-face units-per-em="1024" ascent="960" descent="-64" />
<missing-glyph horiz-adv-x="1024" />
<glyph unicode="&#x20;" horiz-adv-x="512" d="" />
<glyph unicode="&#xe900;" glyph-name="advertisement-fill" d="M896 832c23.564 0 42.667-19.103 42.667-42.667v0-682.667c0-23.564-19.103-42.667-42.667-42.667v0h-768c-23.564 0-42.667 19.103-42.667 42.667v0 682.667c0 23.564 19.103 42.667 42.667 42.667v0h768zM401.024 618.667h-85.333l-136.533-341.333h91.904l17.067 42.667h140.373l17.067-42.667h91.947l-136.491 341.333zM810.667 618.667h-85.333v-85.333h-42.667c-0.037 0-0.080 0-0.123 0-70.692 0-128-57.308-128-128 0-68.094 53.172-123.769 120.261-127.77l0.353-0.017 7.509-0.213h128v341.333zM725.333 448v-85.333h-42.667l-4.992 0.299c-21.296 2.606-37.627 20.58-37.627 42.368s16.332 39.762 37.421 42.347l0.206 0.021 4.992 0.299h42.667zM358.357 495.573l36.053-90.24h-72.192l36.139 90.24z" />
<glyph unicode="&#xe901;" glyph-name="advertisement-line" d="M896 832c23.564 0 42.667-19.103 42.667-42.667v0-682.667c0-23.564-19.103-42.667-42.667-42.667v0h-768c-23.564 0-42.667 19.103-42.667 42.667v0 682.667c0 23.564 19.103 42.667 42.667 42.667v0h768zM853.333 746.667h-682.667v-597.333h682.667v597.333zM401.024 618.667l136.491-341.333h-91.947l-17.067 42.667h-140.373l-17.067-42.667h-91.904l136.533 341.333h85.333zM810.667 618.667v-341.333h-128c-70.692 0-128 57.308-128 128s57.308 128 128 128v0h42.624l0.043 85.333h85.333zM725.333 448h-42.667c-23.544-0.027-42.619-19.119-42.619-42.667 0-21.788 16.332-39.762 37.421-42.347l0.206-0.021 4.992-0.299h42.667v85.333zM358.357 495.573l-36.139-90.24h72.192l-36.053 90.24z" />
<glyph unicode="&#xe902;" glyph-name="archive-drawer-fill" d="M128 405.333h768v-341.419c0-23.509-18.987-42.581-42.368-42.581h-683.264c-23.41 0.048-42.368 19.037-42.368 42.453 0 0.045 0 0.090 0 0.135v-0.007 341.419zM128 832.085c0 23.509 18.987 42.581 42.368 42.581h683.264c23.381 0 42.368-19.029 42.368-42.581v-341.419h-768v341.419zM384 746.667v-85.333h256v85.333h-256zM384 277.333v-85.333h256v85.333h-256z" />
<glyph unicode="&#xe903;" glyph-name="archive-drawer-line" d="M128 832.341c0 23.381 18.987 42.325 42.368 42.325h683.264c23.317-0.168 42.176-19.012 42.368-42.307v-768.701c-0.024-23.381-18.984-42.325-42.368-42.325h-683.264c-23.317 0.168-42.176 19.012-42.368 42.307v768.701zM810.667 490.667v298.667h-597.333v-298.667h597.333zM810.667 405.333h-597.333v-298.667h597.333v298.667zM384 704h256v-85.333h-256v85.333zM384 320h256v-85.333h-256v85.333z" />
<glyph unicode="&#xe904;" glyph-name="archive-fill" d="M128 533.333h768v-426.837c0-23.467-18.987-42.496-42.368-42.496h-683.264c-23.404 0.024-42.368 19.003-42.368 42.411 0 0.030 0 0.060 0 0.090v-0.005 426.837zM384 448v-85.333h256v85.333h-256zM85.333 789.333c0 23.552 19.413 42.667 42.325 42.667h768.683c23.381 0 42.325-18.944 42.325-42.667v-170.667h-853.333v170.667z" />
<glyph unicode="&#xe905;" glyph-name="archive-line" d="M128 533.333h-42.667v255.872c0 23.637 19.413 42.795 42.325 42.795h768.683c0.026 0 0.058 0 0.089 0 23.329 0 42.24-18.911 42.24-42.24 0-0.195-0.001-0.39-0.004-0.584v0.029-255.872h-42.667v-426.709c0-0.038 0-0.083 0-0.128 0-23.425-18.953-42.423-42.361-42.496h-683.271c-23.415 0.073-42.368 19.071-42.368 42.496 0 0.045 0 0.090 0 0.135v-0.007 426.709zM810.667 533.333h-597.333v-384h597.333v384zM170.667 746.667v-128h682.667v128h-682.667zM384 448h256v-85.333h-256v85.333z" />
<glyph unicode="&#xe906;" glyph-name="at-fill" d="M512 21.333c-235.648 0-426.667 191.019-426.667 426.667s191.019 426.667 426.667 426.667 426.667-191.019 426.667-426.667-191.019-426.667-426.667-426.667zM853.333 448c-0.033 188.488-152.841 341.275-341.333 341.275-188.513 0-341.333-152.82-341.333-341.333s152.82-341.333 341.333-341.333c63.393 0 122.749 17.281 173.616 47.39l-1.584-0.867-43.008 73.685c-36.962-21.931-81.479-34.892-129.024-34.892-141.385 0-256 114.615-256 256s114.615 256 256 256c141.358 0 255.957-114.572 256-255.92v-42.671c0-23.564-19.103-42.667-42.667-42.667s-42.667 19.103-42.667 42.667v0 170.667h-57.771c-29.929 26.497-69.523 42.677-112.897 42.677-94.257 0-170.667-76.41-170.667-170.667s76.41-170.667 170.667-170.667c44.707 0 85.399 17.19 115.826 45.321l-0.114-0.104c23.627-27.735 58.583-45.211 97.621-45.211 70.687 0 127.991 57.298 128 127.983v42.668zM512 533.333c47.128 0 85.333-38.205 85.333-85.333s-38.205-85.333-85.333-85.333v0c-47.128 0-85.333 38.205-85.333 85.333s38.205 85.333 85.333 85.333v0z" />
<glyph unicode="&#xe907;" glyph-name="at-line" d="M853.333 448c-0.021 188.497-152.833 341.297-341.333 341.297-188.513 0-341.333-152.82-341.333-341.333s152.82-341.333 341.333-341.333c70.574 0 136.146 21.418 190.569 58.11l-1.214-0.771 47.36-70.997c-66.296-44.874-148.039-71.638-236.033-71.638-0.239 0-0.479 0-0.718 0.001h0.037c-235.648 0-426.667 191.019-426.667 426.667s191.019 426.667 426.667 426.667 426.667-191.019 426.667-426.667v-64c0-0.006 0-0.014 0-0.021 0-82.475-66.859-149.333-149.333-149.333-51.167 0-96.323 25.733-123.233 64.964l-0.329 0.508c-38.874-40.376-93.39-65.456-153.764-65.456-117.821 0-213.333 95.513-213.333 213.333s95.513 213.333 213.333 213.333c48.264 0 92.785-16.028 128.53-43.051l-0.537 0.389h85.333v-234.667c0-35.346 28.654-64 64-64s64 28.654 64 64v0 64zM512 576c-70.692 0-128-57.308-128-128s57.308-128 128-128v0c70.692 0 128 57.308 128 128s-57.308 128-128 128v0z" />
<glyph unicode="&#xe908;" glyph-name="attachment-fill" d="M895.872 832.341l0.128-768.683c-0.192-23.313-19.052-42.158-42.352-42.325h-683.28c-23.384 0-42.344 18.944-42.368 42.323v768.685c0.192 23.313 19.052 42.158 42.352 42.325h683.109c23.424 0 42.411-18.944 42.411-42.325zM384 405.333v170.667c0 23.564 19.103 42.667 42.667 42.667s42.667-19.103 42.667-42.667v0-170.667c0-23.564 19.103-42.667 42.667-42.667s42.667 19.103 42.667 42.667v0 170.667c0 70.692-57.308 128-128 128s-128-57.308-128-128v0-170.667c0-117.821 95.513-213.333 213.333-213.333s213.333 95.513 213.333 213.333v0 213.333h-85.333v-213.333c0-70.692-57.308-128-128-128s-128 57.308-128 128v0z" />
<glyph unicode="&#xe909;" glyph-name="attachment-line" d="M597.333 384v234.667c0 94.257-76.41 170.667-170.667 170.667s-170.667-76.41-170.667-170.667v0-234.667c0-153.167 124.166-277.333 277.333-277.333s277.333 124.166 277.333 277.333v0 405.333h85.333v-405.333c0-200.295-162.371-362.667-362.667-362.667s-362.667 162.371-362.667 362.667v0 234.667c0 141.385 114.615 256 256 256s256-114.615 256-256v0-234.667c0-82.475-66.859-149.333-149.333-149.333s-149.333 66.859-149.333 149.333v0 234.667h85.333v-234.667c0-35.346 28.654-64 64-64s64 28.654 64 64v0z" />
<glyph unicode="&#xe90a;" glyph-name="award-fill" d="M725.333 309.547v-293.205c0-0.001 0-0.003 0-0.004 0-11.782-9.551-21.333-21.333-21.333-4.049 0-7.835 1.128-11.060 3.087l0.095-0.053-181.035 108.629-181.035-108.629c-3.13-1.906-6.916-3.034-10.965-3.034-11.782 0-21.333 9.551-21.333 21.333 0 0.017 0 0.033 0 0.050v-0.003 293.12c-78.314 63.078-128 158.963-128 266.453 0 188.513 152.82 341.333 341.333 341.333s341.333-152.82 341.333-341.333c0-107.49-49.686-203.375-127.343-265.942l-0.657-0.512zM512 320c141.385 0 256 114.615 256 256s-114.615 256-256 256v0c-141.385 0-256-114.615-256-256s114.615-256 256-256v0zM512 405.333c-94.257 0-170.667 76.41-170.667 170.667s76.41 170.667 170.667 170.667v0c94.257 0 170.667-76.41 170.667-170.667s-76.41-170.667-170.667-170.667v0z" />
<glyph unicode="&#xe90b;" glyph-name="award-line" d="M725.333 309.547v-293.205c0-0.001 0-0.003 0-0.004 0-11.782-9.551-21.333-21.333-21.333-4.049 0-7.835 1.128-11.060 3.087l0.095-0.053-181.035 108.629-181.035-108.629c-3.13-1.906-6.916-3.034-10.965-3.034-11.782 0-21.333 9.551-21.333 21.333 0 0.017 0 0.033 0 0.050v-0.003 293.12c-78.314 63.078-128 158.963-128 266.453 0 188.513 152.82 341.333 341.333 341.333s341.333-152.82 341.333-341.333c0-107.49-49.686-203.375-127.343-265.942l-0.657-0.512zM384 259.499v-130.133l128 76.8 128-76.8v130.133c-37.764-15.709-81.631-24.832-127.628-24.832-0.131 0-0.262 0-0.393 0h0.021c-0.111 0-0.241 0-0.372 0-45.998 0-89.864 9.124-129.889 25.66l2.261-0.827zM512 320c141.385 0 256 114.615 256 256s-114.615 256-256 256v0c-141.385 0-256-114.615-256-256s114.615-256 256-256v0z" />
<glyph unicode="&#xe90c;" glyph-name="bar-chart-2-fill" d="M85.333 405.333h256v-341.333h-256v341.333zM384 832h256v-768h-256v768zM682.667 618.667h256v-554.667h-256v554.667z" />
<glyph unicode="&#xe90d;" glyph-name="bar-chart-2-line" d="M85.333 405.333h256v-341.333h-256v341.333zM682.667 618.667h256v-554.667h-256v554.667zM384 832h256v-768h-256v768zM170.667 320v-170.667h85.333v170.667h-85.333zM469.333 746.667v-597.333h85.333v597.333h-85.333zM768 533.333v-384h85.333v384h-85.333z" />
<glyph unicode="&#xe90e;" glyph-name="bar-chart-box-fill" d="M128 832h768c23.564 0 42.667-19.103 42.667-42.667v0-682.667c0-23.564-19.103-42.667-42.667-42.667v0h-768c-23.564 0-42.667 19.103-42.667 42.667v0 682.667c0 23.564 19.103 42.667 42.667 42.667v0zM298.667 405.333v-170.667h85.333v170.667h-85.333zM469.333 661.333v-426.667h85.333v426.667h-85.333zM640 533.333v-298.667h85.333v298.667h-85.333z" />
<glyph unicode="&#xe90f;" glyph-name="bar-chart-box-line" d="M128 832h768c23.564 0 42.667-19.103 42.667-42.667v0-682.667c0-23.564-19.103-42.667-42.667-42.667v0h-768c-23.564 0-42.667 19.103-42.667 42.667v0 682.667c0 23.564 19.103 42.667 42.667 42.667v0zM170.667 746.667v-597.333h682.667v597.333h-682.667zM298.667 405.333h85.333v-170.667h-85.333v170.667zM469.333 661.333h85.333v-426.667h-85.333v426.667zM640 533.333h85.333v-298.667h-85.333v298.667z" />
<glyph unicode="&#xe910;" glyph-name="bar-chart-fill" d="M128 448h170.667v-384h-170.667v384zM725.333 618.667h170.667v-554.667h-170.667v554.667zM426.667 874.667h170.667v-810.667h-170.667v810.667z" />
<glyph unicode="&#xe911;" glyph-name="bar-chart-grouped-fill" d="M85.333 448h85.333v-384h-85.333v384zM213.333 362.667h85.333v-298.667h-85.333v298.667zM682.667 618.667h85.333v-554.667h-85.333v554.667zM810.667 533.333h85.333v-469.333h-85.333v469.333zM384 874.667h85.333v-810.667h-85.333v810.667zM512 789.333h85.333v-725.333h-85.333v725.333z" />
<glyph unicode="&#xe912;" glyph-name="bar-chart-grouped-line" d="M85.333 448h85.333v-384h-85.333v384zM213.333 362.667h85.333v-298.667h-85.333v298.667zM682.667 618.667h85.333v-554.667h-85.333v554.667zM810.667 533.333h85.333v-469.333h-85.333v469.333zM384 874.667h85.333v-810.667h-85.333v810.667zM512 789.333h85.333v-725.333h-85.333v725.333z" />
<glyph unicode="&#xe913;" glyph-name="bar-chart-horizontal-fill" d="M512 832v-170.667h-384v170.667h384zM682.667 234.667v-170.667h-554.667v170.667h554.667zM938.667 533.333v-170.667h-810.667v170.667h810.667z" />
<glyph unicode="&#xe914;" glyph-name="bar-chart-horizontal-line" d="M512 832v-85.333h-384v85.333h384zM682.667 149.333v-85.333h-554.667v85.333h554.667zM938.667 490.667v-85.333h-810.667v85.333h810.667z" />
<glyph unicode="&#xe915;" glyph-name="bar-chart-line" d="M128 448h85.333v-384h-85.333v384zM810.667 618.667h85.333v-554.667h-85.333v554.667zM469.333 874.667h85.333v-810.667h-85.333v810.667z" />
<glyph unicode="&#xe916;" glyph-name="bookmark-2-fill" d="M213.333 874.667h597.333c23.564 0 42.667-19.103 42.667-42.667v0-816.768c0-0.008 0-0.017 0-0.027 0-11.782-9.551-21.333-21.333-21.333-4.208 0-8.131 1.218-11.436 3.321l0.087-0.051-308.651 193.579-308.651-193.536c-3.219-2.051-7.142-3.269-11.349-3.269-11.776 0-21.324 9.542-21.333 21.317v816.769c0 23.564 19.103 42.667 42.667 42.667v0zM341.333 576v-85.333h341.333v85.333h-341.333z" />
<glyph unicode="&#xe917;" glyph-name="bookmark-2-line" d="M213.333 874.667h597.333c23.564 0 42.667-19.103 42.667-42.667v0-816.768c0-0.008 0-0.017 0-0.027 0-11.782-9.551-21.333-21.333-21.333-4.208 0-8.131 1.218-11.436 3.321l0.087-0.051-308.651 193.579-308.651-193.536c-3.219-2.051-7.142-3.269-11.349-3.269-11.776 0-21.324 9.542-21.333 21.317v816.769c0 23.564 19.103 42.667 42.667 42.667v0zM768 789.333h-512v-658.432l256 160.469 256-160.469v658.432zM341.333 576h341.333v-85.333h-341.333v85.333z" />
<glyph unicode="&#xe918;" glyph-name="bookmark-3-fill" d="M170.667 874.667h682.667c23.564 0 42.667-19.103 42.667-42.667v0-822.443c0-0.006 0-0.014 0-0.022 0-11.782-9.551-21.333-21.333-21.333-3.152 0-6.145 0.684-8.838 1.911l0.134-0.055-353.963 157.995-353.963-157.952c-2.559-1.173-5.552-1.856-8.704-1.856-11.775 0-21.321 9.539-21.333 21.311v822.444c0 23.564 19.103 42.667 42.667 42.667v0zM512 384l125.397-65.92-23.936 139.605 101.419 98.901-140.203 20.395-62.677 127.019-62.72-127.019-140.16-20.395 101.419-98.901-23.893-139.605 125.355 65.92z" />
<glyph unicode="&#xe919;" glyph-name="bookmark-3-line" d="M170.667 874.667h682.667c23.564 0 42.667-19.103 42.667-42.667v0-822.443c0-0.006 0-0.014 0-0.022 0-11.782-9.551-21.333-21.333-21.333-3.152 0-6.145 0.684-8.838 1.911l0.134-0.055-353.963 157.995-353.963-157.952c-2.559-1.173-5.552-1.856-8.704-1.856-11.775 0-21.321 9.539-21.333 21.311v822.444c0 23.564 19.103 42.667 42.667 42.667v0zM810.667 108.16v681.173h-597.333v-681.173l298.667 133.291 298.667-133.291zM512 384l-125.397-65.92 23.936 139.605-101.419 98.901 140.203 20.395 62.677 127.019 62.72-127.019 140.16-20.395-101.419-98.901 23.893-139.605-125.355 65.92z" />
<glyph unicode="&#xe91a;" glyph-name="bookmark-fill" d="M213.333 874.667h597.333c23.564 0 42.667-19.103 42.667-42.667v0-816.768c0-0.008 0-0.017 0-0.027 0-11.782-9.551-21.333-21.333-21.333-4.208 0-8.131 1.218-11.436 3.321l0.087-0.051-308.651 193.579-308.651-193.536c-3.219-2.051-7.142-3.269-11.349-3.269-11.776 0-21.324 9.542-21.333 21.317v816.769c0 23.564 19.103 42.667 42.667 42.667v0z" />
<glyph unicode="&#xe91b;" glyph-name="bookmark-line" d="M213.333 874.667h597.333c23.564 0 42.667-19.103 42.667-42.667v0-816.768c0-0.008 0-0.017 0-0.027 0-11.782-9.551-21.333-21.333-21.333-4.208 0-8.131 1.218-11.436 3.321l0.087-0.051-308.651 193.579-308.651-193.536c-3.219-2.051-7.142-3.269-11.349-3.269-11.776 0-21.324 9.542-21.333 21.317v816.769c0 23.564 19.103 42.667 42.667 42.667v0zM768 789.333h-512v-658.432l256 160.469 256-160.469v658.432z" />
<glyph unicode="&#xe91c;" glyph-name="briefcase-2-fill" d="M298.667 746.667v128c0 23.564 19.103 42.667 42.667 42.667v0h341.333c23.564 0 42.667-19.103 42.667-42.667v0-128h170.667c23.564 0 42.667-19.103 42.667-42.667v0-597.333c0-23.564-19.103-42.667-42.667-42.667v0h-768c-23.564 0-42.667 19.103-42.667 42.667v0 597.333c0 23.564 19.103 42.667 42.667 42.667v0h170.667zM725.333 405.333v128h-85.333v-128h-256v128h-85.333v-128h-128v-256h682.667v256h-128zM384 832v-85.333h256v85.333h-256z" />
<glyph unicode="&#xe91d;" glyph-name="briefcase-2-line" d="M298.667 746.667v128c0 23.564 19.103 42.667 42.667 42.667v0h341.333c23.564 0 42.667-19.103 42.667-42.667v0-128h170.667c23.564 0 42.667-19.103 42.667-42.667v0-597.333c0-23.564-19.103-42.667-42.667-42.667v0h-768c-23.564 0-42.667 19.103-42.667 42.667v0 597.333c0 23.564 19.103 42.667 42.667 42.667v0h170.667zM853.333 405.333h-682.667v-256h682.667v256zM853.333 661.333h-682.667v-170.667h128v85.333h85.333v-85.333h256v85.333h85.333v-85.333h128v170.667zM384 832v-85.333h256v85.333h-256z" />
<glyph unicode="&#xe91e;" glyph-name="briefcase-3-fill" d="M298.667 746.667v128c0 23.564 19.103 42.667 42.667 42.667v0h341.333c23.564 0 42.667-19.103 42.667-42.667v0-128h170.667c23.564 0 42.667-19.103 42.667-42.667v0-597.333c0-23.564-19.103-42.667-42.667-42.667v0h-768c-23.564 0-42.667 19.103-42.667 42.667v0 597.333c0 23.564 19.103 42.667 42.667 42.667v0h170.667zM725.333 661.333v-213.333h128v213.333h-128zM640 661.333h-256v-213.333h256v213.333zM298.667 661.333h-128v-213.333h128v213.333zM384 832v-85.333h256v85.333h-256z" />
<glyph unicode="&#xe91f;" glyph-name="briefcase-3-line" d="M298.667 746.667v128c0 23.564 19.103 42.667 42.667 42.667v0h341.333c23.564 0 42.667-19.103 42.667-42.667v0-128h170.667c23.564 0 42.667-19.103 42.667-42.667v0-597.333c0-23.564-19.103-42.667-42.667-42.667v0h-768c-23.564 0-42.667 19.103-42.667 42.667v0 597.333c0 23.564 19.103 42.667 42.667 42.667v0h170.667zM640 661.333h-256v-512h256v512zM298.667 661.333h-128v-512h128v512zM725.333 661.333v-512h128v512h-128zM384 832v-85.333h256v85.333h-256z" />
<glyph unicode="&#xe920;" glyph-name="briefcase-4-fill" d="M384 405.333v-128h256v128h298.667v-298.667c0-23.564-19.103-42.667-42.667-42.667v0h-768c-23.564 0-42.667 19.103-42.667 42.667v0 298.667h298.667zM469.333 490.667h85.333v-128h-85.333v128zM298.667 746.667v128c0 23.564 19.103 42.667 42.667 42.667v0h341.333c23.564 0 42.667-19.103 42.667-42.667v0-128h170.667c23.564 0 42.667-19.103 42.667-42.667v0-213.333h-298.667v85.333h-256v-85.333h-298.667v213.333c0 23.564 19.103 42.667 42.667 42.667v0h170.667zM384 832v-85.333h256v85.333h-256z" />
<glyph unicode="&#xe921;" glyph-name="briefcase-4-line" d="M298.667 746.667v128c0 23.564 19.103 42.667 42.667 42.667v0h341.333c23.564 0 42.667-19.103 42.667-42.667v0-128h170.667c23.564 0 42.667-19.103 42.667-42.667v0-597.333c0-23.564-19.103-42.667-42.667-42.667v0h-768c-23.564 0-42.667 19.103-42.667 42.667v0 597.333c0 23.564 19.103 42.667 42.667 42.667v0h170.667zM384 405.333h-213.333v-256h682.667v256h-213.333v-128h-256v128zM853.333 661.333h-682.667v-170.667h213.333v85.333h256v-85.333h213.333v170.667zM469.333 490.667v-128h85.333v128h-85.333zM384 832v-85.333h256v85.333h-256z" />
<glyph unicode="&#xe922;" glyph-name="briefcase-5-fill" d="M298.667 746.667v128c0 23.564 19.103 42.667 42.667 42.667v0h341.333c23.564 0 42.667-19.103 42.667-42.667v0-128h170.667c23.564 0 42.667-19.103 42.667-42.667v0-597.333c0-23.564-19.103-42.667-42.667-42.667v0h-768c-23.564 0-42.667 19.103-42.667 42.667v0 597.333c0 23.564 19.103 42.667 42.667 42.667v0h170.667zM256 405.333v256h-85.333v-256h85.333zM341.333 661.333v-256h128v85.333h85.333v-85.333h128v256h-341.333zM768 405.333h85.333v256h-85.333v-256zM384 832v-85.333h256v85.333h-256z" />
<glyph unicode="&#xe923;" glyph-name="briefcase-5-line" d="M298.667 746.667v128c0 23.564 19.103 42.667 42.667 42.667v0h341.333c23.564 0 42.667-19.103 42.667-42.667v0-128h170.667c23.564 0 42.667-19.103 42.667-42.667v0-597.333c0-23.564-19.103-42.667-42.667-42.667v0h-768c-23.564 0-42.667 19.103-42.667 42.667v0 597.333c0 23.564 19.103 42.667 42.667 42.667v0h170.667zM682.667 320h-128v-42.667h-85.333v42.667h-128v-170.667h341.333v170.667zM341.333 661.333v-256h128v42.667h85.333v-42.667h128v256h-341.333zM256 405.333v256h-85.333v-256h85.333zM768 405.333h85.333v256h-85.333v-256zM256 320h-85.333v-170.667h85.333v170.667zM768 320v-170.667h85.333v170.667h-85.333zM384 832v-85.333h256v85.333h-256z" />
<glyph unicode="&#xe924;" glyph-name="briefcase-fill" d="M298.667 746.667v128c0 23.564 19.103 42.667 42.667 42.667v0h341.333c23.564 0 42.667-19.103 42.667-42.667v0-128h170.667c23.564 0 42.667-19.103 42.667-42.667v0-597.333c0-23.564-19.103-42.667-42.667-42.667v0h-768c-23.564 0-42.667 19.103-42.667 42.667v0 597.333c0 23.564 19.103 42.667 42.667 42.667v0h170.667zM170.667 320v-170.667h682.667v170.667h-682.667zM469.333 490.667v-85.333h85.333v85.333h-85.333zM384 832v-85.333h256v85.333h-256z" />
<glyph unicode="&#xe925;" glyph-name="briefcase-line" d="M298.667 746.667v128c0 23.564 19.103 42.667 42.667 42.667v0h341.333c23.564 0 42.667-19.103 42.667-42.667v0-128h170.667c23.564 0 42.667-19.103 42.667-42.667v0-597.333c0-23.564-19.103-42.667-42.667-42.667v0h-768c-23.564 0-42.667 19.103-42.667 42.667v0 597.333c0 23.564 19.103 42.667 42.667 42.667v0h170.667zM170.667 277.333v-128h682.667v128h-682.667zM170.667 362.667h682.667v298.667h-682.667v-298.667zM384 832v-85.333h256v85.333h-256zM469.333 490.667h85.333v-85.333h-85.333v85.333z" />
<glyph unicode="&#xe926;" glyph-name="bubble-chart-fill" d="M682.667 277.333c70.699 0 128-57.301 128-128s-57.301-128-128-128-128 57.301-128 128 57.301 128 128 128zM256 448c94.293 0 170.667-76.373 170.667-170.667s-76.373-170.667-170.667-170.667-170.667 76.373-170.667 170.667 76.373 170.667 170.667 170.667zM618.667 874.667c129.621 0 234.667-105.045 234.667-234.667s-105.045-234.667-234.667-234.667-234.667 105.045-234.667 234.667 105.045 234.667 234.667 234.667z" />
<glyph unicode="&#xe927;" glyph-name="bubble-chart-line" d="M682.667 277.333c70.699 0 128-57.301 128-128s-57.301-128-128-128-128 57.301-128 128 57.301 128 128 128zM256 448c94.293 0 170.667-76.373 170.667-170.667s-76.373-170.667-170.667-170.667-170.667 76.373-170.667 170.667 76.373 170.667 170.667 170.667zM682.667 192c-23.552 0-42.667-19.115-42.667-42.667s19.115-42.667 42.667-42.667 42.667 19.115 42.667 42.667-19.115 42.667-42.667 42.667zM256 362.667c-47.147 0-85.333-38.187-85.333-85.333s38.187-85.333 85.333-85.333 85.333 38.187 85.333 85.333-38.187 85.333-85.333 85.333zM618.667 874.667c129.621 0 234.667-105.045 234.667-234.667s-105.045-234.667-234.667-234.667-234.667 105.045-234.667 234.667 105.045 234.667 234.667 234.667zM618.667 789.333c-82.475 0-149.333-66.859-149.333-149.333s66.859-149.333 149.333-149.333 149.333 66.859 149.333 149.333-66.859 149.333-149.333 149.333z" />
<glyph unicode="&#xe928;" glyph-name="calculator-fill" d="M170.667 874.667h682.667c23.564 0 42.667-19.103 42.667-42.667v0-768c0-23.564-19.103-42.667-42.667-42.667v0h-682.667c-23.564 0-42.667 19.103-42.667 42.667v0 768c0 23.564 19.103 42.667 42.667 42.667v0zM298.667 448v-85.333h85.333v85.333h-85.333zM298.667 277.333v-85.333h85.333v85.333h-85.333zM469.333 448v-85.333h85.333v85.333h-85.333zM469.333 277.333v-85.333h85.333v85.333h-85.333zM640 448v-256h85.333v256h-85.333zM298.667 704v-170.667h426.667v170.667h-426.667z" />
<glyph unicode="&#xe929;" glyph-name="calculator-line" d="M170.667 874.667h682.667c23.564 0 42.667-19.103 42.667-42.667v0-768c0-23.564-19.103-42.667-42.667-42.667v0h-682.667c-23.564 0-42.667 19.103-42.667 42.667v0 768c0 23.564 19.103 42.667 42.667 42.667v0zM213.333 789.333v-682.667h597.333v682.667h-597.333zM298.667 704h426.667v-170.667h-426.667v170.667zM298.667 448h85.333v-85.333h-85.333v85.333zM298.667 277.333h85.333v-85.333h-85.333v85.333zM469.333 448h85.333v-85.333h-85.333v85.333zM469.333 277.333h85.333v-85.333h-85.333v85.333zM640 448h85.333v-256h-85.333v256z" />
<glyph unicode="&#xe92a;" glyph-name="calendar-2-fill" d="M725.333 832h170.667c23.564 0 42.667-19.103 42.667-42.667v0-682.667c0-23.564-19.103-42.667-42.667-42.667v0h-768c-23.564 0-42.667 19.103-42.667 42.667v0 682.667c0 23.564 19.103 42.667 42.667 42.667v0h170.667v85.333h85.333v-85.333h256v85.333h85.333v-85.333zM170.667 576v-426.667h682.667v426.667h-682.667zM256 490.667h85.333v-85.333h-85.333v85.333zM469.333 490.667h85.333v-85.333h-85.333v85.333zM682.667 490.667h85.333v-85.333h-85.333v85.333z" />
<glyph unicode="&#xe92b;" glyph-name="calendar-2-line" d="M725.333 832h170.667c23.564 0 42.667-19.103 42.667-42.667v0-682.667c0-23.564-19.103-42.667-42.667-42.667v0h-768c-23.564 0-42.667 19.103-42.667 42.667v0 682.667c0 23.564 19.103 42.667 42.667 42.667v0h170.667v85.333h85.333v-85.333h256v85.333h85.333v-85.333zM853.333 490.667h-682.667v-341.333h682.667v341.333zM640 746.667h-256v-85.333h-85.333v85.333h-128v-170.667h682.667v170.667h-128v-85.333h-85.333v85.333zM256 405.333h85.333v-85.333h-85.333v85.333zM469.333 405.333h85.333v-85.333h-85.333v85.333zM682.667 405.333h85.333v-85.333h-85.333v85.333z" />
<glyph unicode="&#xe92c;" glyph-name="calendar-check-fill" d="M384 917.333v-85.333h256v85.333h85.333v-85.333h170.667c23.564 0 42.667-19.103 42.667-42.667v0-682.667c0-23.564-19.103-42.667-42.667-42.667v0h-768c-23.564 0-42.667 19.103-42.667 42.667v0 682.667c0 23.564 19.103 42.667 42.667 42.667v0h170.667v85.333h85.333zM853.333 618.667h-682.667v-469.333h682.667v469.333zM641.536 527.531l60.331-60.331-211.2-211.2-150.869 150.869 60.416 60.331 90.496-90.539 150.869 150.869z" />
<glyph unicode="&#xe92d;" glyph-name="calendar-check-line" d="M384 917.333v-85.333h256v85.333h85.333v-85.333h170.667c23.564 0 42.667-19.103 42.667-42.667v0-682.667c0-23.564-19.103-42.667-42.667-42.667v0h-768c-23.564 0-42.667 19.103-42.667 42.667v0 682.667c0 23.564 19.103 42.667 42.667 42.667v0h170.667v85.333h85.333zM853.333 533.333h-682.667v-384h682.667v384zM641.536 484.864l60.331-60.331-211.2-211.2-150.869 150.869 60.416 60.331 90.496-90.539 150.869 150.869zM298.667 746.667h-128v-128h682.667v128h-128v-42.667h-85.333v42.667h-256v-42.667h-85.333v42.667z" />
<glyph unicode="&#xe92e;" glyph-name="calendar-event-fill" d="M725.333 832h170.667c23.564 0 42.667-19.103 42.667-42.667v0-682.667c0-23.564-19.103-42.667-42.667-42.667v0h-768c-23.564 0-42.667 19.103-42.667 42.667v0 682.667c0 23.564 19.103 42.667 42.667 42.667v0h170.667v85.333h85.333v-85.333h256v85.333h85.333v-85.333zM170.667 576v-426.667h682.667v426.667h-682.667zM256 405.333h213.333v-170.667h-213.333v170.667z" />
<glyph unicode="&#xe92f;" glyph-name="calendar-event-line" d="M725.333 832h170.667c23.564 0 42.667-19.103 42.667-42.667v0-682.667c0-23.564-19.103-42.667-42.667-42.667v0h-768c-23.564 0-42.667 19.103-42.667 42.667v0 682.667c0 23.564 19.103 42.667 42.667 42.667v0h170.667v85.333h85.333v-85.333h256v85.333h85.333v-85.333zM853.333 576v170.667h-128v-85.333h-85.333v85.333h-256v-85.333h-85.333v85.333h-128v-170.667h682.667zM853.333 490.667h-682.667v-341.333h682.667v341.333zM256 405.333h213.333v-170.667h-213.333v170.667z" />
<glyph unicode="&#xe930;" glyph-name="calendar-fill" d="M85.333 490.667h853.333v-384c0-23.564-19.103-42.667-42.667-42.667v0h-768c-23.564 0-42.667 19.103-42.667 42.667v0 384zM725.333 832h170.667c23.564 0 42.667-19.103 42.667-42.667v0-213.333h-853.333v213.333c0 23.564 19.103 42.667 42.667 42.667v0h170.667v85.333h85.333v-85.333h256v85.333h85.333v-85.333z" />
<glyph unicode="&#xe931;" glyph-name="calendar-line" d="M725.333 832h170.667c23.564 0 42.667-19.103 42.667-42.667v0-682.667c0-23.564-19.103-42.667-42.667-42.667v0h-768c-23.564 0-42.667 19.103-42.667 42.667v0 682.667c0 23.564 19.103 42.667 42.667 42.667v0h170.667v85.333h85.333v-85.333h256v85.333h85.333v-85.333zM640 746.667h-256v-85.333h-85.333v85.333h-128v-170.667h682.667v170.667h-128v-85.333h-85.333v85.333zM853.333 490.667h-682.667v-341.333h682.667v341.333z" />
<glyph unicode="&#xe932;" glyph-name="calendar-todo-fill" d="M725.333 832h170.667c23.564 0 42.667-19.103 42.667-42.667v0-682.667c0-23.564-19.103-42.667-42.667-42.667v0h-768c-23.564 0-42.667 19.103-42.667 42.667v0 682.667c0 23.564 19.103 42.667 42.667 42.667v0h170.667v85.333h85.333v-85.333h256v85.333h85.333v-85.333zM170.667 576v-426.667h682.667v426.667h-682.667zM256 490.667h85.333v-85.333h-85.333v85.333zM256 320h85.333v-85.333h-85.333v85.333zM426.667 490.667h341.333v-85.333h-341.333v85.333zM426.667 320h213.333v-85.333h-213.333v85.333z" />
<glyph unicode="&#xe933;" glyph-name="calendar-todo-line" d="M725.333 832h170.667c23.564 0 42.667-19.103 42.667-42.667v0-682.667c0-23.564-19.103-42.667-42.667-42.667v0h-768c-23.564 0-42.667 19.103-42.667 42.667v0 682.667c0 23.564 19.103 42.667 42.667 42.667v0h170.667v85.333h85.333v-85.333h256v85.333h85.333v-85.333zM640 746.667h-256v-85.333h-85.333v85.333h-128v-170.667h682.667v170.667h-128v-85.333h-85.333v85.333zM853.333 490.667h-682.667v-341.333h682.667v341.333zM256 362.667h85.333v-85.333h-85.333v85.333zM426.667 362.667h341.333v-85.333h-341.333v85.333z" />
<glyph unicode="&#xe934;" glyph-name="cloud-fill" d="M725.333 661.333c-0.008 0-0.018 0-0.028 0-145.464 0-269.683-90.959-318.884-219.102l-0.789-2.338 79.957-29.995c37.551 97.736 130.651 165.845 239.659 165.845 141.312 0 255.891-114.459 256.085-255.725v-0.018c0-141.385-114.615-256-256-256v0h-426.667c-0.048 0-0.104 0-0.161 0-141.385 0-256 114.615-256 256 0 110.984 70.624 205.472 169.383 240.976l1.786 0.56c-0.233 4.417-0.366 9.589-0.366 14.791 0 164.949 133.718 298.667 298.667 298.667 137.697 0 253.629-93.183 288.179-219.929l0.486-2.094c-22.603 5.315-48.557 8.363-75.221 8.363-0.030 0-0.060 0-0.090 0h0.005z" />
<glyph unicode="&#xe935;" glyph-name="cloud-line" d="M725.333 64h-426.667c-0.048 0-0.104 0-0.161 0-141.385 0-256 114.615-256 256 0 110.984 70.624 205.472 169.383 240.976l1.786 0.56c-0.217 4.262-0.341 9.254-0.341 14.275 0 164.949 133.718 298.667 298.667 298.667s298.667-133.718 298.667-298.667c0-5.021-0.124-10.013-0.369-14.973l0.027 0.698c100.544-36.064 171.169-130.552 171.169-241.536 0-141.385-114.615-256-256-256-0.057 0-0.113 0-0.17 0h0.009zM725.333 576c0 0.024 0 0.052 0 0.080 0 117.821-95.513 213.333-213.333 213.333s-213.333-95.513-213.333-213.333c0-3.675 0.093-7.328 0.277-10.957l-0.021 0.509 2.987-63.488-59.904-21.077c-66.879-24.153-113.821-87.085-113.821-160.982 0-94.209 76.294-170.598 170.467-170.752h426.682c94.233 0.032 170.611 76.43 170.611 170.667 0 94.257-76.41 170.667-170.667 170.667-74.948 0-138.613-48.312-161.551-115.492l-0.356-1.201-80.981 27.008c34.991 102.567 130.507 175.018 242.944 175.019v0z" />
<glyph unicode="&#xe936;" glyph-name="cloud-off-fill" d="M149.973 870.4l814.592-814.592-60.373-60.373-85.931 85.973c-27.476-11.018-59.326-17.408-92.67-17.408-0.091 0-0.182 0-0.273 0h-426.653c-0.048 0-0.104 0-0.161 0-141.385 0-256 114.615-256 256 0 110.984 70.624 205.472 169.383 240.976l1.786 0.56c-0.23 4.383-0.361 9.514-0.361 14.676 0 33.874 5.646 66.43 16.048 96.778l-0.625-2.099-139.136 139.179 60.373 60.331zM725.333 576c141.388-0.089 255.971-114.727 255.971-256.128 0-46.884-12.597-90.825-34.59-128.624l0.656 1.222-349.611 349.568c37.547 21.589 81.067 33.963 127.573 33.963zM512 874.667c137.576-0.012 253.43-93.002 288.15-219.556l0.49-2.097c-22.543 5.286-48.426 8.317-75.018 8.317-70.718 0-136.431-21.434-190.995-58.159l1.223 0.776-207.573 207.573c49.964 39.37 113.817 63.147 183.223 63.147 0.176 0 0.351 0 0.527 0h-0.027z" />
<glyph unicode="&#xe937;" glyph-name="cloud-off-line" d="M149.973 870.4l814.592-814.592-60.373-60.373-85.931 85.973c-27.476-11.018-59.326-17.408-92.67-17.408-0.091 0-0.182 0-0.273 0h-426.653c-0.048 0-0.104 0-0.161 0-141.385 0-256 114.615-256 256 0 110.984 70.624 205.472 169.383 240.976l1.786 0.56c-0.23 4.383-0.361 9.514-0.361 14.676 0 33.874 5.646 66.43 16.048 96.778l-0.625-2.099-139.136 139.179 60.373 60.331zM298.667 576c0-3.456 0.085-6.955 0.256-10.368l2.987-63.488-59.904-21.077c-66.879-24.153-113.821-87.085-113.821-160.982 0-94.209 76.294-170.598 170.467-170.752h426.682c7.936 0 15.744 0.555 23.381 1.579l-448.768 448.768c-0.853-7.765-1.28-15.659-1.28-23.68zM512 874.667c0.003 0 0.006 0 0.009 0 164.949 0 298.667-133.718 298.667-298.667 0-5.088-0.127-10.145-0.379-15.171l0.028 0.707c100.476-36.145 171.029-130.622 171.029-241.578 0-46.919-12.616-90.891-34.64-128.709l0.656 1.22-63.701 63.701c7.867 18.922 12.437 40.901 12.437 63.948 0 94.233-76.391 170.624-170.624 170.624-23.058 0-45.048-4.574-65.111-12.864l1.133 0.415-63.744 63.787c37.589 21.547 81.109 33.92 127.573 33.92-0.001 117.819-95.514 213.331-213.333 213.331-45.968 0-88.54-14.539-123.369-39.269l0.66 0.445-61.013 61.013c49.964 39.37 113.817 63.147 183.223 63.147 0.176 0 0.351 0 0.527 0h-0.027z" />
<glyph unicode="&#xe938;" glyph-name="copyleft-fill" d="M512 21.333c-235.52 0-426.667 191.147-426.667 426.667s191.147 426.667 426.667 426.667 426.667-191.147 426.667-426.667-191.147-426.667-426.667-426.667zM512 234.667c117.76 0 213.333 95.573 213.333 213.333s-95.573 213.333-213.333 213.333c-77.653 0-145.621-41.515-182.955-103.595l73.173-43.861c22.4 37.248 63.147 62.123 109.781 62.123 70.741 0 128-57.259 128-128s-57.259-128-128-128c-46.635 0-87.467 24.917-109.824 62.165l-73.131-43.947c37.333-61.995 105.301-103.552 182.955-103.552z" />
<glyph unicode="&#xe939;" glyph-name="copyleft-line" d="M512 21.333c-235.52 0-426.667 191.147-426.667 426.667s191.147 426.667 426.667 426.667 426.667-191.147 426.667-426.667-191.147-426.667-426.667-426.667zM512 106.667c188.587 0 341.333 152.747 341.333 341.333s-152.747 341.333-341.333 341.333-341.333-152.747-341.333-341.333 152.747-341.333 341.333-341.333zM512 234.667c-77.653 0-145.621 41.515-182.955 103.595l73.131 43.904c22.4-37.248 63.189-62.165 109.824-62.165 70.741 0 128 57.259 128 128s-57.259 128-128 128c-46.635 0-87.381-24.875-109.781-62.123l-73.173 43.861c37.333 62.080 105.301 103.595 182.955 103.595 117.76 0 213.333-95.573 213.333-213.333s-95.573-213.333-213.333-213.333z" />
<glyph unicode="&#xe93a;" glyph-name="copyright-fill" d="M512 874.667c235.52 0 426.667-191.147 426.667-426.667s-191.147-426.667-426.667-426.667-426.667 191.147-426.667 426.667 191.147 426.667 426.667 426.667zM512 661.333c-117.76 0-213.333-95.573-213.333-213.333s95.573-213.333 213.333-213.333c77.653 0 145.621 41.515 182.955 103.595l-73.173 43.861c-22.778-37.474-63.384-62.123-109.746-62.123-70.692 0-128 57.308-128 128 0 70.68 57.287 127.98 127.963 128h0.002c46.635 0 87.467-24.917 109.824-62.165l73.131 43.947c-37.952 62.464-105.625 103.552-182.894 103.552-0.021 0-0.042 0-0.064 0h0.003z" />
<glyph unicode="&#xe93b;" glyph-name="copyright-line" d="M512 874.667c235.52 0 426.667-191.147 426.667-426.667s-191.147-426.667-426.667-426.667-426.667 191.147-426.667 426.667 191.147 426.667 426.667 426.667zM512 789.333c-188.587 0-341.333-152.747-341.333-341.333s152.747-341.333 341.333-341.333 341.333 152.747 341.333 341.333-152.747 341.333-341.333 341.333zM512 661.333c77.653 0 145.621-41.515 182.955-103.595l-73.131-43.904c-22.773 37.498-63.392 62.165-109.772 62.165-70.692 0-128-57.308-128-128 0-70.674 57.278-127.97 127.945-128h0.003c0.025 0 0.054 0 0.084 0 46.348 0 86.939 24.65 109.378 61.556l0.32 0.567 73.173-43.861c-37.932-62.561-105.658-103.724-182.997-103.724-117.797 0-213.291 95.493-213.291 213.291 0 0.060 0 0.121 0 0.181v-0.009c0 117.76 95.573 213.333 213.333 213.333z" />
<glyph unicode="&#xe93c;" glyph-name="creative-commons-by-fill" d="M512 874.667c235.648 0 426.667-191.019 426.667-426.667s-191.019-426.667-426.667-426.667-426.667 191.019-426.667 426.667 191.019 426.667 426.667 426.667zM597.333 533.333h-170.667c-21.803-0.003-39.784-16.359-42.348-37.47l-0.020-0.205-0.299-4.992v-170.667h64v-170.667h128v170.667h64v170.667c-0.003 21.803-16.359 39.784-37.47 42.348l-0.205 0.020-4.992 0.299zM512 746.667c-47.128 0-85.333-38.205-85.333-85.333s38.205-85.333 85.333-85.333v0c47.128 0 85.333 38.205 85.333 85.333s-38.205 85.333-85.333 85.333v0z" />
<glyph unicode="&#xe93d;" glyph-name="creative-commons-by-line" d="M512 874.667c235.648 0 426.667-191.019 426.667-426.667s-191.019-426.667-426.667-426.667-426.667 191.019-426.667 426.667 191.019 426.667 426.667 426.667zM512 789.333c-188.513 0-341.333-152.82-341.333-341.333s152.82-341.333 341.333-341.333v0c188.513 0 341.333 152.82 341.333 341.333s-152.82 341.333-341.333 341.333v0zM597.333 533.333c23.564 0 42.667-19.103 42.667-42.667v0-170.667h-64v-170.667h-128v170.667h-64v170.667c0 23.564 19.103 42.667 42.667 42.667v0h170.667zM512 746.667c47.128 0 85.333-38.205 85.333-85.333s-38.205-85.333-85.333-85.333v0c-47.128 0-85.333 38.205-85.333 85.333s38.205 85.333 85.333 85.333v0z" />
<glyph unicode="&#xe93e;" glyph-name="creative-commons-fill" d="M512 874.667c235.648 0 426.667-191.019 426.667-426.667s-191.019-426.667-426.667-426.667-426.667 191.019-426.667 426.667 191.019 426.667 426.667 426.667zM384 618.667c-94.208 0-170.667-76.459-170.667-170.667 0.062-94.233 76.468-170.6 170.709-170.6 43.812 0 83.769 16.505 113.993 43.636l-0.159-0.14 6.784 6.443-60.331 60.331c-15.443-15.446-36.778-24.999-60.345-24.999-47.128 0-85.333 38.205-85.333 85.333s38.205 85.333 85.333 85.333c21.020 0 40.265-7.6 55.136-20.202l-0.124 0.103 5.376-4.949 60.331 60.331c-30.813 30.918-73.436 50.048-120.528 50.048-0.062 0-0.124 0-0.185 0h0.010zM682.667 618.667c-94.208 0-170.667-76.459-170.667-170.667 0.062-94.233 76.468-170.6 170.709-170.6 43.812 0 83.769 16.505 113.993 43.636l-0.159-0.14 6.784 6.443-60.331 60.331c-15.443-15.446-36.778-24.999-60.345-24.999-47.128 0-85.333 38.205-85.333 85.333s38.205 85.333 85.333 85.333c21.020 0 40.265-7.6 55.136-20.202l-0.124 0.103 5.376-4.949 60.331 60.331c-30.813 30.918-73.436 50.048-120.528 50.048-0.062 0-0.124 0-0.185 0h0.010z" />
<glyph unicode="&#xe93f;" glyph-name="creative-commons-line" d="M512 874.667c235.648 0 426.667-191.019 426.667-426.667s-191.019-426.667-426.667-426.667-426.667 191.019-426.667 426.667 191.019 426.667 426.667 426.667zM512 789.333c-188.513 0-341.333-152.82-341.333-341.333s152.82-341.333 341.333-341.333v0c188.513 0 341.333 152.82 341.333 341.333s-152.82 341.333-341.333 341.333v0zM384 618.667c47.147 0 89.813-19.115 120.704-50.048l-60.331-60.331c-15.445 15.46-36.791 25.024-60.37 25.024-47.128 0-85.333-38.205-85.333-85.333s38.205-85.333 85.333-85.333c23.558 0 44.886 9.546 60.328 24.982v0l60.331-60.288c-30.883-30.838-73.524-49.909-120.619-49.909-94.231 0-170.63 76.35-170.709 170.563v0.007c0 94.208 76.459 170.667 170.667 170.667zM682.667 618.667c47.147 0 89.813-19.115 120.704-50.048l-60.331-60.331c-15.445 15.46-36.791 25.024-60.37 25.024-47.128 0-85.333-38.205-85.333-85.333s38.205-85.333 85.333-85.333c23.558 0 44.886 9.546 60.328 24.982v0l60.331-60.288c-30.883-30.838-73.524-49.909-120.619-49.909-94.231 0-170.63 76.35-170.709 170.563v0.007c0 94.208 76.459 170.667 170.667 170.667z" />
<glyph unicode="&#xe940;" glyph-name="creative-commons-nc-fill" d="M181.589 717.995l152.747-152.619c-9.006-15.313-14.325-33.732-14.325-53.393 0-56.445 43.842-102.649 99.331-106.418l0.328-0.018 6.997-0.213h170.667l3.84-0.341c10.035-1.866 17.532-10.553 17.532-20.992s-7.497-19.126-17.401-20.972l-0.132-0.020-3.84-0.341h-234.667v-85.333h106.667v-85.333h85.333v85.333h42.667c5.163 0 10.24 0.384 15.232 1.067l7.381 1.323 162.048-162.133c-72.689-59.92-166.764-96.257-269.327-96.257-0.235 0-0.47 0-0.705 0.001h0.037c-235.648 0-426.667 191.019-426.667 426.667 0 102.4 36.096 196.437 96.256 269.995zM512 874.667c235.648 0 426.667-191.019 426.667-426.667 0-102.4-36.096-196.437-96.256-269.995l-152.704 152.619c8.991 15.304 14.301 33.708 14.301 53.352 0 56.436-43.829 102.636-99.306 106.417l-0.329 0.018-7.040 0.256h-170.667l-3.84 0.341c-10.035 1.866-17.532 10.553-17.532 20.992s7.497 19.126 17.401 20.972l0.132 0.020 3.84 0.341h234.667v85.333h-106.667v85.333h-85.333v-85.333h-42.667c-5.163 0-10.24-0.384-15.189-1.067l-7.381-1.323-162.091 162.133c72.689 59.92 166.764 96.257 269.327 96.257 0.235 0 0.47 0 0.705-0.001h-0.037z" />
<glyph unicode="&#xe941;" glyph-name="creative-commons-nc-line" d="M512 874.667c235.648 0 426.667-191.019 426.667-426.667 0-102.4-36.096-196.437-96.256-269.995l1.451-1.536-60.331-60.331-1.536 1.451c-72.689-59.92-166.764-96.257-269.327-96.257-0.235 0-0.47 0-0.705 0.001h0.037c-235.648 0-426.667 191.019-426.667 426.667s191.019 426.667 426.667 426.667zM170.667 448c0-0.001 0-0.003 0-0.005 0-188.513 152.82-341.333 341.333-341.333 79.209 0 152.116 26.98 210.033 72.251l-0.753-0.567-101.333 101.376c-6.762-1.519-14.527-2.389-22.496-2.389-0.041 0-0.083 0-0.124 0h-42.66v-85.333h-85.333v85.333h-106.667v85.333h234.667c0.012 0 0.025 0 0.039 0 11.782 0 21.333 9.551 21.333 21.333 0 10.439-7.497 19.126-17.401 20.972l-0.132 0.020-3.84 0.341h-170.667c-58.909 0.002-106.664 47.757-106.664 106.667 0 19.637 5.306 38.034 14.563 53.837l-0.273-0.503-91.989 91.989c-44.672-56.976-71.638-129.693-71.638-208.708 0-0.216 0-0.432 0.001-0.649v0.034zM512 789.333c-78.848 0-151.467-26.752-209.28-71.68l101.333-101.333c6.702 1.492 14.401 2.347 22.298 2.347 0.111 0 0.221 0 0.332-0.001h42.65v85.333h85.333v-85.333h106.667v-85.333h-234.667c-0.012 0-0.025 0-0.039 0-11.782 0-21.333-9.551-21.333-21.333 0-10.439 7.497-19.126 17.401-20.972l0.132-0.020 3.84-0.341h170.667c58.909-0.002 106.664-47.757 106.664-106.667 0-19.637-5.306-38.034-14.563-53.837l0.273 0.503 91.989-91.947c44.705 57.164 71.685 130.071 71.685 209.28 0 188.513-152.82 341.333-341.333 341.333-0.017 0-0.034 0-0.050 0h0.003z" />
<glyph unicode="&#xe942;" glyph-name="creative-commons-nd-fill" d="M512 874.667c235.648 0 426.667-191.019 426.667-426.667s-191.019-426.667-426.667-426.667-426.667 191.019-426.667 426.667 191.019 426.667 426.667 426.667zM682.667 405.333h-341.333v-85.333h341.333v85.333zM682.667 576h-341.333v-85.333h341.333v85.333z" />
<glyph unicode="&#xe943;" glyph-name="creative-commons-nd-line" d="M512 874.667c235.648 0 426.667-191.019 426.667-426.667s-191.019-426.667-426.667-426.667-426.667 191.019-426.667 426.667 191.019 426.667 426.667 426.667zM512 789.333c-188.513 0-341.333-152.82-341.333-341.333s152.82-341.333 341.333-341.333v0c188.513 0 341.333 152.82 341.333 341.333s-152.82 341.333-341.333 341.333v0zM682.667 405.333v-85.333h-341.333v85.333h341.333zM682.667 576v-85.333h-341.333v85.333h341.333z" />
<glyph unicode="&#xe944;" glyph-name="creative-commons-sa-fill" d="M512 874.667c235.52 0 426.667-191.147 426.667-426.667s-191.147-426.667-426.667-426.667-426.667 191.147-426.667 426.667 191.147 426.667 426.667 426.667zM512 704c-89.813 0-166.656-66.56-198.101-160.853l-3.115-9.813h-54.784l106.667-128 106.667 128h-68.224c22.144 50.987 63.531 85.333 110.891 85.333 70.699 0 128-76.373 128-170.667s-57.301-170.667-128-170.667c-44.715 0-84.096 30.592-107.008 76.928l-3.84 8.405h-90.325c29.227-99.413 108.288-170.667 201.173-170.667 117.803 0 213.333 114.603 213.333 256s-95.531 256-213.333 256z" />
<glyph unicode="&#xe945;" glyph-name="creative-commons-sa-line" d="M512 874.667c235.52 0 426.667-191.147 426.667-426.667s-191.147-426.667-426.667-426.667-426.667 191.147-426.667 426.667 191.147 426.667 426.667 426.667zM512 789.333c-188.373 0-341.333-152.96-341.333-341.333s152.96-341.333 341.333-341.333 341.333 152.96 341.333 341.333-152.96 341.333-341.333 341.333zM512 704c117.803 0 213.333-114.603 213.333-256s-95.531-256-213.333-256c-92.885 0-171.904 71.253-201.173 170.667l90.325-0.043c22.101-50.987 63.488-85.291 110.848-85.291 70.699 0 128 76.373 128 170.667s-57.301 170.667-128 170.667c-47.36 0-88.747-34.347-110.891-85.333h68.224l-106.667-128-106.667 128h54.784c29.312 99.413 108.331 170.667 201.216 170.667z" />
<glyph unicode="&#xe946;" glyph-name="creative-commons-zero-fill" d="M512 874.667c235.52 0 426.667-191.147 426.667-426.667s-191.147-426.667-426.667-426.667-426.667 191.147-426.667 426.667 191.147 426.667 426.667 426.667zM512 704c-117.803 0-213.333-114.603-213.333-256s95.531-256 213.333-256 213.333 114.603 213.333 256-95.531 256-213.333 256zM611.2 555.861c18.005-29.44 28.8-66.987 28.8-107.861 0-94.293-57.301-170.667-128-170.667-16.128 0-31.573 3.968-45.781 11.221l-6.997 3.925 151.979 263.381zM512 618.667c16.128 0 31.573-3.968 45.781-11.221l6.997-3.925-151.979-263.381c-18.005 29.44-28.8 66.987-28.8 107.861 0 94.293 57.301 170.667 128 170.667z" />
<glyph unicode="&#xe947;" glyph-name="creative-commons-zero-line" d="M512 874.667c235.52 0 426.667-191.147 426.667-426.667s-191.147-426.667-426.667-426.667-426.667 191.147-426.667 426.667 191.147 426.667 426.667 426.667zM512 789.333c-188.373 0-341.333-152.96-341.333-341.333s152.96-341.333 341.333-341.333 341.333 152.96 341.333 341.333-152.96 341.333-341.333 341.333zM512 704c117.803 0 213.333-114.603 213.333-256s-95.531-256-213.333-256-213.333 114.603-213.333 256 95.531 256 213.333 256zM611.2 555.861l-151.979-263.381c16.085-9.728 33.963-15.147 52.779-15.147 70.699 0 128 76.373 128 170.667 0 40.917-10.795 78.464-28.8 107.861zM512 618.667c-70.699 0-128-76.373-128-170.667 0-40.917 10.795-78.464 28.8-107.861l151.979 263.381c-15.007 9.414-33.225 15.039-52.749 15.147h-0.029z" />
<glyph unicode="&#xe948;" glyph-name="customer-service-2-fill" d="M896 618.667c47.128 0 85.333-38.205 85.333-85.333v0-170.667c0-47.128-38.205-85.333-85.333-85.333v0h-45.312c-21.956-169.261-165.21-298.664-338.688-298.667v0 85.333c141.385 0 256 114.615 256 256v0 256c0 141.385-114.615 256-256 256s-256-114.615-256-256v0-298.667h-128c-47.128 0-85.333 38.205-85.333 85.333v0 170.667c0 47.128 38.205 85.333 85.333 85.333v0h45.312c21.977 169.241 165.223 298.621 338.688 298.621s316.711-129.379 338.505-296.904l0.183-1.717h45.312zM331.093 286.507l45.227 72.363c38.378-24.39 85.132-38.87 135.268-38.87 0.145 0 0.29 0 0.434 0h-0.023c0.122 0 0.267 0 0.412 0 50.136 0 96.89 14.48 136.309 39.486l-1.040-0.616 45.227-72.363c-51.178-32.528-113.526-51.84-180.385-51.84-0.184 0-0.367 0-0.551 0h0.029c-0.155 0-0.339 0-0.522 0-66.859 0-129.207 19.312-181.771 52.662l1.386-0.822z" />
<glyph unicode="&#xe949;" glyph-name="customer-service-2-line" d="M850.688 618.667h45.312c47.128 0 85.333-38.205 85.333-85.333v0-170.667c0-47.128-38.205-85.333-85.333-85.333v0h-45.312c-21.956-169.261-165.21-298.664-338.688-298.667v0 85.333c141.385 0 256 114.615 256 256v0 256c0 141.385-114.615 256-256 256s-256-114.615-256-256v0-298.667h-128c-47.128 0-85.333 38.205-85.333 85.333v0 170.667c0 47.128 38.205 85.333 85.333 85.333v0h45.312c21.977 169.241 165.223 298.621 338.688 298.621s316.711-129.379 338.505-296.904l0.183-1.717zM128 533.333v-170.667h42.667v170.667h-42.667zM853.333 533.333v-170.667h42.667v170.667h-42.667zM331.093 286.507l45.227 72.363c38.378-24.39 85.132-38.87 135.268-38.87 0.145 0 0.29 0 0.434 0h-0.023c0.122 0 0.267 0 0.412 0 50.136 0 96.89 14.48 136.309 39.486l-1.040-0.616 45.227-72.363c-51.178-32.528-113.526-51.84-180.385-51.84-0.184 0-0.367 0-0.551 0h0.029c-0.155 0-0.339 0-0.522 0-66.859 0-129.207 19.312-181.771 52.662l1.386-0.822z" />
<glyph unicode="&#xe94a;" glyph-name="customer-service-fill" d="M938.667 234.581c-0.041-121.909-85.26-223.902-199.375-249.701l-1.713-0.326-27.221 81.664c51.639 8.728 94.689 39.598 119.713 82.309l0.436 0.806h-105.173c-47.128 0-85.333 38.205-85.333 85.333v0 170.667c0 47.128 38.205 85.333 85.333 85.333v0h125.355c-21.977 169.241-165.223 298.621-338.688 298.621s-316.711-129.379-338.505-296.904l-0.183-1.717h125.355c47.128 0 85.333-38.205 85.333-85.333v0-170.667c0-47.128-38.205-85.333-85.333-85.333v0h-128c-47.128 0-85.333 38.205-85.333 85.333v0 213.333c0 235.648 191.019 426.667 426.667 426.667s426.667-191.019 426.667-426.667v-213.419z" />
<glyph unicode="&#xe94b;" glyph-name="customer-service-line" d="M938.667 234.581c-0.041-121.909-85.26-223.902-199.375-249.701l-1.713-0.326-27.221 81.664c51.639 8.728 94.689 39.598 119.713 82.309l0.436 0.806h-105.173c-47.128 0-85.333 38.205-85.333 85.333v0 170.667c0 47.128 38.205 85.333 85.333 85.333v0h125.355c-21.977 169.241-165.223 298.621-338.688 298.621s-316.711-129.379-338.505-296.904l-0.183-1.717h125.355c47.128 0 85.333-38.205 85.333-85.333v0-170.667c0-47.128-38.205-85.333-85.333-85.333v0h-128c-47.128 0-85.333 38.205-85.333 85.333v0 213.333c0 235.648 191.019 426.667 426.667 426.667s426.667-191.019 426.667-426.667v-213.419zM853.333 234.667v170.667h-128v-170.667h128zM170.667 405.333v-170.667h128v170.667h-128z" />
<glyph unicode="&#xe94c;" glyph-name="donut-chart-fill" d="M469.333 872.533v-128.853c-144.725-20.779-256-145.28-256-295.68 0-164.949 133.717-298.667 298.667-298.667 67.072 0 129.024 22.101 178.859 59.477l91.179-91.179c-73.557-60.16-167.637-96.299-270.037-96.299-235.648 0-426.667 191.019-426.667 426.667 0 221.227 168.405 403.157 384 424.533zM936.533 405.333c-8.533-85.803-42.411-164.139-94.165-227.328l-91.179 91.136c29.312 39.083 49.195 85.589 56.448 136.192h128.939zM554.752 872.533c201.557-20.011 361.813-180.309 381.867-381.867h-128.939c-18.688 130.773-122.155 234.24-252.928 252.971v128.939z" />
<glyph unicode="&#xe94d;" glyph-name="donut-chart-line" d="M469.333 872.533v-85.845c-168.363-20.992-298.667-164.608-298.667-338.688 0-188.501 152.832-341.333 341.333-341.333 78.891 0 151.467 26.752 209.323 71.68l60.715-60.715c-73.557-60.16-167.637-96.299-270.037-96.299-235.648 0-426.667 191.019-426.667 426.667 0 221.227 168.405 403.157 384 424.533zM936.533 405.333c-8.533-85.803-42.411-164.139-94.165-227.328l-60.715 60.672c36.693 47.232 61.269 104.32 69.035 166.656h85.888zM554.752 872.533c201.557-20.011 361.813-180.309 381.867-381.867h-85.888c-19.243 154.368-141.611 276.736-295.979 296.021v85.888z" />
<glyph unicode="&#xe94e;" glyph-name="flag-2-fill" d="M85.333 832h816.555c0.011 0 0.023 0 0.036 0 11.782 0 21.333-9.551 21.333-21.333 0-3.893-1.043-7.542-2.864-10.684l0.055 0.102-152.448-266.752 152.448-266.752c1.766-3.039 2.809-6.689 2.809-10.581 0-11.782-9.551-21.333-21.333-21.333-0.013 0-0.025 0-0.038 0h-731.219v-213.333h-85.333v810.667z" />
<glyph unicode="&#xe94f;" glyph-name="flag-2-line" d="M170.667 234.667v-213.333h-85.333v810.667h816.555c0.011 0 0.023 0 0.036 0 11.782 0 21.333-9.551 21.333-21.333 0-3.893-1.043-7.542-2.864-10.684l0.055 0.102-152.448-266.752 152.448-266.752c1.766-3.039 2.809-6.689 2.809-10.581 0-11.782-9.551-21.333-21.333-21.333-0.013 0-0.025 0-0.038 0h-731.219zM170.667 746.667v-426.667h620.971l-121.941 213.333 121.941 213.333h-620.971z" />
<glyph unicode="&#xe950;" glyph-name="flag-fill" d="M128 832h400.299c16.603-0.009 30.988-9.501 38.032-23.352l0.112-0.243 30.891-61.739h256c23.564 0 42.667-19.103 42.667-42.667v0-469.333c0-23.564-19.103-42.667-42.667-42.667v0h-272.299c-16.603 0.009-30.988 9.501-38.032 23.352l-0.112 0.243-30.891 61.739h-298.667v-256h-85.333v810.667z" />
<glyph unicode="&#xe951;" glyph-name="flag-line" d="M213.333 277.333v-256h-85.333v810.667h400.299c16.603-0.009 30.988-9.501 38.032-23.352l0.112-0.243 30.891-61.739h256c23.564 0 42.667-19.103 42.667-42.667v0-469.333c0-23.564-19.103-42.667-42.667-42.667v0h-272.299c-16.603 0.009-30.988 9.501-38.032 23.352l-0.112 0.243-30.891 61.739h-298.667zM213.333 746.667v-384h351.403l42.667-85.333h203.264v384h-266.069l-42.667 85.333h-288.597z" />
<glyph unicode="&#xe952;" glyph-name="global-fill" d="M87.467 405.333h233.685c7.89-141.933 53.371-271.823 126.553-381.678l-1.753 2.798c-191.127 30.849-338.367 185.035-358.331 377.044l-0.155 1.836zM87.467 490.667c20.118 193.845 167.358 348.031 356.033 378.553l2.452 0.327c-71.429-107.058-116.91-236.948-124.712-376.896l-0.088-1.984h-233.685zM936.533 490.667h-233.685c-7.89 141.933-53.371 271.823-126.553 381.678l1.753-2.798c191.127-30.849 338.367-185.035 358.331-377.044l0.155-1.836zM936.533 405.333c-20.118-193.845-167.358-348.031-356.033-378.553l-2.452-0.327c71.429 107.058 116.91 236.948 124.712 376.896l0.088 1.984h233.728zM406.613 405.333h210.773c-7.595-121.127-45.844-231.953-107-326.59l1.613 2.664c-59.543 91.972-97.792 202.798-105.288 321.968l-0.098 1.957zM406.613 490.667c7.595 121.127 45.844 231.953 107 326.59l-1.613-2.664c59.543-91.972 97.792-202.798 105.288-321.968l0.098-1.957h-210.773z" />
<glyph unicode="&#xe953;" glyph-name="global-line" d="M512 21.333c-235.648 0-426.667 191.019-426.667 426.667s191.019 426.667 426.667 426.667 426.667-191.019 426.667-426.667-191.019-426.667-426.667-426.667zM414.293 120.875c-40.141 83.116-66.011 180.104-71.72 282.473l-0.088 1.985h-169.173c17.63-135.611 112.591-245.145 238.561-283.819l2.42-0.639zM427.947 405.333c6.443-104.064 36.181-201.813 84.053-288.085 47.016 83.115 77.363 181.398 83.955 286.128l0.099 1.958h-168.107zM850.688 405.333h-169.173c-5.797-104.355-31.667-201.343-73.792-289.043l1.984 4.585c128.39 39.314 223.351 148.848 240.798 282.739l0.183 1.72zM173.312 490.667h169.173c5.797 104.355 31.667 201.343 73.792 289.043l-1.984-4.585c-128.39-39.314-223.351-148.848-240.798-282.739l-0.183-1.72zM427.989 490.667h168.021c-6.676 106.683-37.009 204.968-85.771 291.482l1.76-3.397c-47.016-83.115-77.363-181.398-83.955-286.128l-0.099-1.958zM609.707 775.125c40.141-83.116 66.011-180.104 71.72-282.473l0.088-1.985h169.173c-17.63 135.611-112.591 245.145-238.561 283.819l-2.42 0.639z" />
<glyph unicode="&#xe954;" glyph-name="honour-fill" d="M896 789.333v-628.096c0-0.008 0-0.017 0-0.026 0-8.663-5.163-16.119-12.58-19.461l-0.135-0.054-371.285-164.309-371.285 164.267c-7.552 3.395-12.715 10.852-12.715 19.515 0 0.039 0 0.078 0 0.118v-0.006 628.053h-85.333v85.333h938.667v-85.333h-85.333zM341.333 448v-85.333h341.333v85.333h-341.333zM341.333 618.667v-85.333h341.333v85.333h-341.333z" />
<glyph unicode="&#xe955;" glyph-name="honour-line" d="M896 789.333v-628.096c0-0.008 0-0.017 0-0.026 0-8.663-5.163-16.119-12.58-19.461l-0.135-0.054-371.285-164.309-371.285 164.267c-7.552 3.395-12.715 10.852-12.715 19.515 0 0.039 0 0.078 0 0.118v-0.006 628.053h-85.333v85.333h938.667v-85.333h-85.333zM213.333 789.333v-586.453l298.667-132.267 298.667 132.267v586.453h-597.333zM341.333 618.667h341.333v-85.333h-341.333v85.333zM341.333 448h341.333v-85.333h-341.333v85.333z" />
<glyph unicode="&#xe956;" glyph-name="inbox-archive-fill" d="M170.667 832h682.667l85.333-170.667v-554.667c0-23.564-19.103-42.667-42.667-42.667v0h-768c-23.564 0-42.667 19.103-42.667 42.667v0 554.496l85.333 170.837zM554.667 362.667v170.667h-85.333v-170.667h-128l170.667-170.667 170.667 170.667h-128zM843.264 661.333l-42.667 85.333h-577.152l-42.667-85.333h662.485z" />
<glyph unicode="&#xe957;" glyph-name="inbox-archive-line" d="M170.667 832h682.667l85.333-170.667v-554.667c0-23.564-19.103-42.667-42.667-42.667v0h-768c-23.564 0-42.667 19.103-42.667 42.667v0 554.496l85.333 170.837zM853.333 576h-682.667v-426.667h682.667v426.667zM843.264 661.333l-42.667 85.333h-577.152l-42.667-85.333h662.485zM554.667 362.667h128l-170.667-170.667-170.667 170.667h128v170.667h85.333v-170.667z" />
<glyph unicode="&#xe958;" glyph-name="inbox-fill" d="M128 832h768c23.564 0 42.667-19.103 42.667-42.667v0-682.667c0-23.564-19.103-42.667-42.667-42.667v0h-768c-23.564 0-42.667 19.103-42.667 42.667v0 682.667c0 23.564 19.103 42.667 42.667 42.667v0zM384 448c0-70.692 57.308-128 128-128s128 57.308 128 128v0h213.333v298.667h-682.667v-298.667h213.333z" />
<glyph unicode="&#xe959;" glyph-name="inbox-line" d="M128 832h768c23.564 0 42.667-19.103 42.667-42.667v0-682.667c0-23.564-19.103-42.667-42.667-42.667v0h-768c-23.564 0-42.667 19.103-42.667 42.667v0 682.667c0 23.564 19.103 42.667 42.667 42.667v0zM853.333 362.667h-145.749c-33.761-76.019-108.593-128.075-195.584-128.075s-161.822 52.056-195.044 126.717l-0.54 1.358h-145.749v-213.333h682.667v213.333zM853.333 448v298.667h-682.667v-298.667h213.333c0-70.692 57.308-128 128-128s128 57.308 128 128v0h213.333z" />
<glyph unicode="&#xe95a;" glyph-name="inbox-unarchive-fill" d="M853.333 832l85.333-170.667v-554.667c0-23.564-19.103-42.667-42.667-42.667v0h-768c-23.564 0-42.667 19.103-42.667 42.667v0 554.496l85.333 170.837h682.667zM512 533.333l-170.667-170.667h128v-170.667h85.333v170.667h128l-170.667 170.667zM800.597 746.667h-577.195l-42.624-85.333h662.485l-42.667 85.333z" />
<glyph unicode="&#xe95b;" glyph-name="inbox-unarchive-line" d="M853.333 832l85.333-170.667v-554.667c0-23.564-19.103-42.667-42.667-42.667v0h-768c-23.564 0-42.667 19.103-42.667 42.667v0 554.496l85.333 170.837h682.667zM853.333 576h-682.667v-426.667h682.667v426.667zM512 533.333l170.667-170.667h-128v-170.667h-85.333v170.667h-128l170.667 170.667zM800.597 746.667h-577.195l-42.624-85.333h662.485l-42.667 85.333z" />
<glyph unicode="&#xe95c;" glyph-name="line-chart-fill" d="M213.333 832v-682.667h682.667v-85.333h-768v768h85.333zM850.773 706.56l90.453-90.453-258.56-258.645-128 128-168.107-168.107-90.453 90.539 258.56 258.56 128-128 168.107 168.107z" />
<glyph unicode="&#xe95d;" glyph-name="line-chart-line" d="M213.333 832v-682.667h682.667v-85.333h-768v768h85.333zM865.835 691.499l60.331-60.331-243.499-243.499-128 127.957-183.168-183.125-60.331 60.331 243.499 243.499 128-127.957 183.168 183.125z" />
<glyph unicode="&#xe95e;" glyph-name="links-fill" d="M557.227 613.973l60.373-60.373c54.055-54.049 87.488-128.72 87.488-211.2s-33.434-157.151-87.488-211.2v0l-15.104-15.061c-54.051-54.051-128.721-87.482-211.2-87.482-164.957 0-298.682 133.724-298.682 298.682 0 82.479 33.431 157.149 87.482 211.2v0l60.373-60.373c-39.001-38.67-63.146-92.27-63.146-151.509 0-117.821 95.513-213.333 213.333-213.333 59.239 0 112.838 24.145 151.494 63.131l15.119 15.119c38.592 38.604 62.461 91.928 62.461 150.827s-23.869 112.223-62.462 150.827l-60.373 60.373 60.373 60.331zM843.861 357.504l-60.331 60.331c39.001 38.67 63.146 92.27 63.146 151.509 0 117.821-95.513 213.333-213.333 213.333-59.239 0-112.838-24.145-151.494-63.131l-15.119-15.119c-38.592-38.604-62.461-91.928-62.461-150.827s23.869-112.223 62.462-150.827l60.373-60.373-60.373-60.331-60.331 60.331c-54.055 54.049-87.488 128.72-87.488 211.2s33.434 157.151 87.488 211.2v0l15.104 15.061c54.051 54.051 128.721 87.482 211.2 87.482 164.957 0 298.682-133.724 298.682-298.682 0-82.479-33.431-157.149-87.482-211.2v0z" />
<glyph unicode="&#xe95f;" glyph-name="links-line" d="M557.227 613.973l60.373-60.373c54.055-54.049 87.488-128.72 87.488-211.2s-33.434-157.151-87.488-211.2v0l-15.104-15.061c-54.051-54.051-128.721-87.482-211.2-87.482-164.957 0-298.682 133.724-298.682 298.682 0 82.479 33.431 157.149 87.482 211.2v0l60.373-60.373c-39.001-38.67-63.146-92.27-63.146-151.509 0-117.821 95.513-213.333 213.333-213.333 59.239 0 112.838 24.145 151.494 63.131l15.119 15.119c38.592 38.604 62.461 91.928 62.461 150.827s-23.869 112.223-62.462 150.827l-60.373 60.373 60.373 60.331zM843.861 357.504l-60.331 60.331c39.001 38.67 63.146 92.27 63.146 151.509 0 117.821-95.513 213.333-213.333 213.333-59.239 0-112.838-24.145-151.494-63.131l-15.119-15.119c-38.592-38.604-62.461-91.928-62.461-150.827s23.869-112.223 62.462-150.827l60.373-60.373-60.373-60.331-60.331 60.331c-54.055 54.049-87.488 128.72-87.488 211.2s33.434 157.151 87.488 211.2v0l15.104 15.061c54.051 54.051 128.721 87.482 211.2 87.482 164.957 0 298.682-133.724 298.682-298.682 0-82.479-33.431-157.149-87.482-211.2v0z" />
<glyph unicode="&#xe960;" glyph-name="mail-add-fill" d="M938.667 390.784c-25.45 9.308-54.834 14.691-85.475 14.691-141.385 0-256-114.615-256-256 0-30.641 5.383-60.025 15.255-87.257l-0.564 1.782h-483.883c-23.564 0-42.667 19.103-42.667 42.667v0 682.667c0 23.564 19.103 42.667 42.667 42.667v0h768c23.564 0 42.667-19.103 42.667-42.667v0-398.549zM514.56 461.525l-273.579 232.32-55.253-65.024 329.387-279.68 323.456 279.893-55.808 64.555-268.16-232.064zM896 192h128v-85.333h-128v-128h-85.333v128h-128v85.333h128v128h85.333v-128z" />
<glyph unicode="&#xe961;" glyph-name="mail-add-line" d="M938.667 405.333h-85.333v245.845l-338.261-302.933-344.405 303.872v-502.784h426.667v-85.333h-469.333c-23.564 0-42.667 19.103-42.667 42.667v0 682.667c0 23.564 19.103 42.667 42.667 42.667v0h768c23.564 0 42.667-19.103 42.667-42.667v0-384zM192.469 746.667l322.133-284.245 317.483 284.245h-639.616zM896 192h128v-85.333h-128v-128h-85.333v128h-128v85.333h128v128h85.333v-128z" />
<glyph unicode="&#xe962;" glyph-name="mail-check-fill" d="M938.667 390.784c-25.45 9.308-54.834 14.691-85.475 14.691-141.385 0-256-114.615-256-256 0-30.641 5.383-60.025 15.255-87.257l-0.564 1.782h-483.883c-23.564 0-42.667 19.103-42.667 42.667v0 682.667c0 23.564 19.103 42.667 42.667 42.667v0h768c23.564 0 42.667-19.103 42.667-42.667v0-398.549zM514.56 461.525l-273.579 232.32-55.253-65.024 329.387-279.68 323.456 279.893-55.808 64.555-268.16-232.064zM810.667 21.333l-150.869 150.869 60.373 60.331 90.496-90.539 150.869 150.869 60.331-60.331-211.2-211.2z" />
<glyph unicode="&#xe963;" glyph-name="mail-check-line" d="M938.667 362.667h-85.333v288.512l-338.261-302.933-344.405 303.872v-502.784h426.667v-85.333h-469.333c-23.564 0-42.667 19.103-42.667 42.667v0 682.667c0 23.564 19.103 42.667 42.667 42.667v0h768c23.564 0 42.667-19.103 42.667-42.667v0-426.667zM192.469 746.667l322.133-284.245 317.483 284.245h-639.616zM810.667 21.333l-150.869 150.869 60.373 60.331 90.496-90.539 150.869 150.869 60.331-60.331-211.2-211.2z" />
<glyph unicode="&#xe964;" glyph-name="mail-close-fill" d="M938.667 390.784c-25.45 9.308-54.834 14.691-85.475 14.691-141.385 0-256-114.615-256-256 0-30.641 5.383-60.025 15.255-87.257l-0.564 1.782h-483.883c-23.564 0-42.667 19.103-42.667 42.667v0 682.667c0 23.564 19.103 42.667 42.667 42.667v0h768c23.564 0 42.667-19.103 42.667-42.667v0-398.549zM514.56 461.525l-273.579 232.32-55.253-65.024 329.387-279.68 323.456 279.893-55.808 64.555-268.16-232.064zM913.707 149.333l90.539-90.496-60.373-60.373-90.539 90.539-90.496-90.539-60.373 60.373 90.539 90.496-90.539 90.496 60.373 60.373 90.496-90.539 90.496 90.539 60.373-60.373-90.539-90.496z" />
<glyph unicode="&#xe965;" glyph-name="mail-close-line" d="M938.667 362.667h-85.333v288.512l-338.261-302.933-344.405 303.872v-502.784h469.333v-85.333h-512c-23.564 0-42.667 19.103-42.667 42.667v0 682.667c0 23.564 19.103 42.667 42.667 42.667v0h768c23.564 0 42.667-19.103 42.667-42.667v0-426.667zM192.469 746.667l322.133-284.245 317.483 284.245h-639.616zM913.664 149.333l90.539-90.496-60.373-60.373-90.496 90.539-90.496-90.539-60.373 60.373 90.539 90.496-90.539 90.496 60.373 60.373 90.496-90.539 90.496 90.539 60.373-60.373-90.539-90.496z" />
<glyph unicode="&#xe966;" glyph-name="mail-download-fill" d="M938.667 413.739c-36.738 21.593-80.923 34.347-128.086 34.347-141.385 0-256-114.615-256-256 0-47.163 12.754-91.348 35.001-129.292l-0.654 1.207h-460.928c-23.564 0-42.667 19.103-42.667 42.667v0 682.667c0 23.564 19.103 42.667 42.667 42.667v0h768c23.564 0 42.667-19.103 42.667-42.667v0-375.595zM514.56 461.525l-273.579 232.32-55.253-65.024 329.387-279.68 323.456 279.893-55.808 64.555-268.16-232.064zM853.333 192h128l-170.667-170.667-170.667 170.667h128v170.667h85.333v-170.667z" />
<glyph unicode="&#xe967;" glyph-name="mail-download-line" d="M853.333 651.179l-338.261-302.933-344.405 303.872v-502.784h384v-85.333h-426.667c-23.564 0-42.667 19.103-42.667 42.667v0 682.667c0 23.564 19.103 42.667 42.667 42.667v0h768c23.564 0 42.667-19.103 42.667-42.667v0-341.333h-85.333v203.179zM832.043 746.667h-639.573l322.133-284.245 317.483 284.245zM853.333 192h128l-170.667-170.667-170.667 170.667h128v170.667h85.333v-170.667z" />
<glyph unicode="&#xe968;" glyph-name="mail-fill" d="M128 832h768c23.564 0 42.667-19.103 42.667-42.667v0-682.667c0-23.564-19.103-42.667-42.667-42.667v0h-768c-23.564 0-42.667 19.103-42.667 42.667v0 682.667c0 23.564 19.103 42.667 42.667 42.667v0zM514.56 461.525l-273.579 232.32-55.253-65.024 329.387-279.68 323.456 279.893-55.808 64.555-268.16-232.064z" />
<glyph unicode="&#xe969;" glyph-name="mail-forbid-fill" d="M651.349 467.029l187.221 162.048-55.808 64.512-268.16-232.064-273.664 232.32-55.211-65.024 328.619-279.040c-28.248-44.652-45.014-99.005-45.014-157.274 0-0.178 0-0.356 0-0.535v0.028c0-45.824 10.325-89.173 28.757-128h-370.091c-23.564 0-42.667 19.103-42.667 42.667v0 682.667c0 23.564 19.103 42.667 42.667 42.667v0h768c23.564 0 42.667-19.103 42.667-42.667v0-352.213c-47.455 33.502-106.492 53.547-170.211 53.547-0.16 0-0.32 0-0.48 0h0.025c-41.387 0-80.811-8.405-116.651-23.637zM712.789 76.459c16.158-7.91 35.161-12.536 55.245-12.536 70.692 0 128 57.308 128 128 0 20.084-4.626 39.088-12.87 56.004l0.334-0.759-170.667-170.667zM652.459 136.832l170.709 170.667c-16.158 7.91-35.161 12.536-55.245 12.536-70.692 0-128-57.308-128-128 0-20.084 4.626-39.088 12.87-56.004l-0.334 0.759zM768-21.333c-117.821 0-213.333 95.513-213.333 213.333s95.513 213.333 213.333 213.333v0c117.821 0 213.333-95.513 213.333-213.333s-95.513-213.333-213.333-213.333v0z" />
<glyph unicode="&#xe96a;" glyph-name="mail-forbid-line" d="M853.333 651.179l-338.261-302.933-344.405 303.872v-502.784h301.653c4.66-31.835 13.683-60.57 26.543-87.099l-0.772 1.766h-370.091c-23.564 0-42.667 19.103-42.667 42.667v0 682.667c0 23.564 19.103 42.667 42.667 42.667v0h768c23.564 0 42.667-19.103 42.667-42.667v0-352.213c-24.471 17.289-52.813 31.325-83.226 40.619l-2.107 0.554v172.885zM832.043 746.667h-639.573l322.133-284.245 317.483 284.245zM712.832 76.459c16.158-7.91 35.161-12.536 55.245-12.536 70.692 0 128 57.308 128 128 0 20.084-4.626 39.088-12.87 56.004l0.334-0.759-170.709-170.667zM652.459 136.832l170.709 170.667c-16.158 7.91-35.161 12.536-55.245 12.536-70.692 0-128-57.308-128-128 0-20.084 4.626-39.088 12.87-56.004l-0.334 0.759zM768-21.333c-117.821 0-213.333 95.513-213.333 213.333s95.513 213.333 213.333 213.333v0c117.821 0 213.333-95.513 213.333-213.333s-95.513-213.333-213.333-213.333v0z" />
<glyph unicode="&#xe96b;" glyph-name="mail-line" d="M128 832h768c23.564 0 42.667-19.103 42.667-42.667v0-682.667c0-23.564-19.103-42.667-42.667-42.667v0h-768c-23.564 0-42.667 19.103-42.667 42.667v0 682.667c0 23.564 19.103 42.667 42.667 42.667v0zM853.333 651.179l-338.261-302.933-344.405 303.872v-502.784h682.667v501.845zM192.469 746.667l322.133-284.245 317.483 284.245h-639.616z" />
<glyph unicode="&#xe96c;" glyph-name="mail-lock-fill" d="M938.667 448c-35.21 26.616-79.726 42.631-127.981 42.631-102.721 0-188.493-72.571-208.84-169.24l-0.245-1.391h-46.933v-256h-426.667c-23.564 0-42.667 19.103-42.667 42.667v0 682.667c0 23.564 19.103 42.667 42.667 42.667v0h768c23.564 0 42.667-19.103 42.667-42.667v0-341.333zM514.56 461.525l-273.579 232.32-55.253-65.024 329.387-279.68 323.456 279.893-55.808 64.555-268.16-232.064zM938.667 234.667h42.667v-213.333h-341.333v213.333h42.667v42.667c0 70.692 57.308 128 128 128s128-57.308 128-128v0-42.667zM853.333 234.667v42.667c0 23.564-19.103 42.667-42.667 42.667s-42.667-19.103-42.667-42.667v0-42.667h85.333z" />
<glyph unicode="&#xe96d;" glyph-name="mail-lock-line" d="M853.333 651.179l-338.261-302.933-344.405 303.872v-502.784h384v-85.333h-426.667c-23.564 0-42.667 19.103-42.667 42.667v0 682.667c0 23.564 19.103 42.667 42.667 42.667v0h768c23.564 0 42.667-19.103 42.667-42.667v0-298.667h-85.333v160.512zM832.043 746.667h-639.573l322.133-284.245 317.483 284.245zM938.667 234.667h42.667v-213.333h-341.333v213.333h42.667v42.667c0 70.692 57.308 128 128 128s128-57.308 128-128v0-42.667zM853.333 234.667v42.667c0 23.564-19.103 42.667-42.667 42.667s-42.667-19.103-42.667-42.667v0-42.667h85.333z" />
<glyph unicode="&#xe96e;" glyph-name="mail-open-fill" d="M95.701 667.563l394.539 236.544c6.266 3.819 13.845 6.080 21.952 6.080s15.686-2.261 22.141-6.187l-0.189 0.107 394.155-236.587c6.254-3.795 10.368-10.567 10.368-18.3 0-0.002 0-0.003 0-0.005v0-542.549c0-23.564-19.103-42.667-42.667-42.667v0h-768c-23.564 0-42.667 19.103-42.667 42.667v0 542.592c0 0.001 0 0.003 0 0.004 0 7.733 4.114 14.505 10.273 18.246l0.095 0.053zM782.763 608.256l-268.16-232.064-273.664 232.32-55.211-65.024 329.387-279.68 323.456 279.893-55.808 64.555z" />
<glyph unicode="&#xe96f;" glyph-name="mail-open-line" d="M95.701 667.563l394.539 236.544c6.266 3.819 13.845 6.080 21.952 6.080s15.686-2.261 22.141-6.187l-0.189 0.107 394.155-236.587c6.254-3.795 10.368-10.567 10.368-18.3 0-0.002 0-0.003 0-0.005v0-542.549c0-23.564-19.103-42.667-42.667-42.667v0h-768c-23.564 0-42.667 19.103-42.667 42.667v0 542.592c0 0.001 0 0.003 0 0.004 0 7.733 4.114 14.505 10.273 18.246l0.095 0.053zM170.667 612.992v-463.659h682.667v463.701l-341.163 204.8-341.504-204.8zM514.56 375.552l225.963 190.421 54.955-65.28-280.32-236.245-286.293 235.947 54.272 65.877 231.424-190.72z" />
<glyph unicode="&#xe970;" glyph-name="mail-send-fill" d="M85.333 725.333v64.299c0.168 23.317 19.012 42.176 42.307 42.368h768.701c23.381 0 42.325-18.987 42.325-42.368v-683.264c-0.168-23.317-19.012-42.176-42.307-42.368h-768.701c-23.381 0.024-42.325 18.984-42.325 42.368v0 42.965h768v499.2l-341.333-307.2-426.667 384zM0 533.333h213.333v-85.333h-213.333v85.333zM0 320h341.333v-85.333h-341.333v85.333z" />
<glyph unicode="&#xe971;" glyph-name="mail-send-line" d="M938.667 106.368c-0.168-23.317-19.012-42.176-42.307-42.368h-768.701c-23.381 0.024-42.325 18.984-42.325 42.368v0 42.965h768v499.2l-341.333-307.2-426.667 384v64c0 23.564 19.103 42.667 42.667 42.667v0h768c23.564 0 42.667-19.103 42.667-42.667v0-682.965zM189.184 746.667l322.816-290.56 322.816 290.56h-645.632zM0 320h341.333v-85.333h-341.333v85.333zM0 533.333h213.333v-85.333h-213.333v85.333z" />
<glyph unicode="&#xe972;" glyph-name="mail-settings-fill" d="M938.667 390.784c-25.45 9.308-54.834 14.691-85.475 14.691-141.385 0-256-114.615-256-256 0-30.641 5.383-60.025 15.255-87.257l-0.564 1.782h-483.883c-23.564 0-42.667 19.103-42.667 42.667v0 682.667c0 23.564 19.103 42.667 42.667 42.667v0h768c23.564 0 42.667-19.103 42.667-42.667v0-398.549zM514.56 461.525l-273.579 232.32-55.253-65.024 329.387-279.68 323.456 279.893-55.808 64.555-268.16-232.064zM727.467 125.952c-1.362 7.030-2.141 15.115-2.141 23.381s0.779 16.351 2.268 24.185l-0.127-0.803-43.264 25.003 42.667 73.899 43.264-25.003c11.861 10.155 25.557 18.133 40.533 23.467v49.92h85.333v-49.92c14.976-5.333 28.672-13.312 40.533-23.467l43.264 25.003 42.667-73.899-43.264-25.003c1.362-7.030 2.141-15.115 2.141-23.381s-0.779-16.351-2.268-24.185l0.127 0.803 43.264-25.003-42.667-73.899-43.264 25.003c-11.468-9.882-24.926-17.846-39.643-23.185l-0.89-0.282v-49.92h-85.333v49.92c-15.607 5.621-29.066 13.584-40.7 23.607l0.167-0.14-43.264-25.003-42.667 73.899 43.264 25.003zM853.333 106.667c23.564 0 42.667 19.103 42.667 42.667s-19.103 42.667-42.667 42.667v0c-23.564 0-42.667-19.103-42.667-42.667s19.103-42.667 42.667-42.667v0z" />
<glyph unicode="&#xe973;" glyph-name="mail-settings-line" d="M853.333 651.179l-338.261-302.933-344.405 303.872v-502.784h426.667v-85.333h-469.333c-23.564 0-42.667 19.103-42.667 42.667v0 682.667c0 23.564 19.103 42.667 42.667 42.667v0h768c23.564 0 42.667-19.103 42.667-42.667v0-384h-85.333v245.845zM832.043 746.667h-639.573l322.133-284.245 317.483 284.245zM727.467 125.952c-1.362 7.030-2.141 15.115-2.141 23.381s0.779 16.351 2.268 24.185l-0.127-0.803-43.264 25.003 42.667 73.899 43.264-25.003c11.861 10.155 25.557 18.133 40.533 23.467v49.92h85.333v-49.92c14.976-5.333 28.672-13.312 40.533-23.467l43.264 25.003 42.667-73.899-43.264-25.003c1.362-7.030 2.141-15.115 2.141-23.381s-0.779-16.351-2.268-24.185l0.127 0.803 43.264-25.003-42.667-73.899-43.264 25.003c-11.468-9.882-24.926-17.846-39.643-23.185l-0.89-0.282v-49.92h-85.333v49.92c-15.607 5.621-29.066 13.584-40.7 23.607l0.167-0.14-43.264-25.003-42.667 73.899 43.264 25.003zM853.333 106.667c23.564 0 42.667 19.103 42.667 42.667s-19.103 42.667-42.667 42.667v0c-23.564 0-42.667-19.103-42.667-42.667s19.103-42.667 42.667-42.667v0z" />
<glyph unicode="&#xe974;" glyph-name="mail-star-fill" d="M938.667 360.789c-31.329 14.728-68.041 23.324-106.761 23.324-141.385 0-256-114.615-256-256 0-22.784 2.977-44.874 8.562-65.9l-0.404 1.787h-456.064c-23.564 0-42.667 19.103-42.667 42.667v0 682.667c0 23.564 19.103 42.667 42.667 42.667v0h768c23.564 0 42.667-19.103 42.667-42.667v0-428.544zM514.56 461.525l-273.579 232.32-55.253-65.024 329.387-279.68 323.456 279.893-55.808 64.555-268.16-232.064zM832 32l-112.853-59.307 21.547 125.653-91.307 89.003 126.165 18.347 56.448 114.304 56.448-114.347 126.165-18.347-91.307-88.96 21.547-125.696-112.853 59.349z" />
<glyph unicode="&#xe975;" glyph-name="mail-star-line" d="M938.667 405.333h-85.333v245.845l-338.261-302.933-344.405 303.872v-502.784h426.667v-85.333h-469.333c-23.564 0-42.667 19.103-42.667 42.667v0 682.667c0 23.564 19.103 42.667 42.667 42.667v0h768c23.564 0 42.667-19.103 42.667-42.667v0-384zM192.469 746.667l322.133-284.245 317.483 284.245h-639.616zM832 32l-112.853-59.307 21.547 125.653-91.307 89.003 126.165 18.347 56.448 114.304 56.448-114.347 126.165-18.347-91.307-88.96 21.547-125.696-112.853 59.349z" />
<glyph unicode="&#xe976;" glyph-name="mail-unread-fill" d="M802.261 597.632c27.403-13.648 59.688-21.635 93.837-21.635 15.067 0 29.771 1.555 43.96 4.513l-1.392-0.243v-473.6c0-23.564-19.103-42.667-42.667-42.667v0h-768c-23.564 0-42.667 19.103-42.667 42.667v0 682.667c0 23.564 19.103 42.667 42.667 42.667v0h558.933c-2.816-13.781-4.267-28.075-4.267-42.667 0-0.088 0-0.192 0-0.297 0-52.803 19.261-101.108 51.14-138.271l-0.239 0.285-218.965-189.525-273.664 232.32-55.211-65.024 329.387-279.68 287.147 248.491zM896 661.333c-70.692 0-128 57.308-128 128s57.308 128 128 128v0c70.692 0 128-57.308 128-128s-57.308-128-128-128v0z" />
<glyph unicode="&#xe977;" glyph-name="mail-unread-line" d="M686.933 832c-2.728-12.827-4.29-27.564-4.29-42.667s1.562-29.84 4.534-44.060l-0.243 1.393h-494.464l322.133-284.245 215.424 192.853c18.176-22.485 40.875-41.216 66.688-54.827l-281.643-252.203-344.405 303.872v-502.784h682.667v430.933c12.827-2.728 27.564-4.29 42.667-4.29s29.84 1.562 44.060 4.534l-1.393-0.243v-473.6c0-23.564-19.103-42.667-42.667-42.667v0h-768c-23.564 0-42.667 19.103-42.667 42.667v0 682.667c0 23.564 19.103 42.667 42.667 42.667v0h558.933zM896 661.333c-70.692 0-128 57.308-128 128s57.308 128 128 128v0c70.692 0 128-57.308 128-128s-57.308-128-128-128v0z" />
<glyph unicode="&#xe978;" glyph-name="mail-volume-fill" d="M853.333 341.333v-384l-142.208 106.667h-113.792v170.667h113.792l142.208 106.667zM896 832c23.564 0 42.667-19.103 42.667-42.667v0-449.237c-45.105 40.546-105.075 65.342-170.838 65.342-141.385 0-256-114.615-256-256 0-30.627 5.378-59.998 15.242-87.22l-0.564 1.782h-398.421c-23.564 0-42.667 19.103-42.667 42.667v0 682.667c0 23.564 19.103 42.667 42.667 42.667v0h768zM896 234.667c0.113 0.001 0.248 0.001 0.382 0.001 47.128 0 85.333-38.205 85.333-85.333 0-45.011-34.849-81.882-79.037-85.105l-0.278-0.016-6.4-0.213v170.667zM240.939 693.845l-55.211-65.024 329.387-279.68 323.456 279.893-55.808 64.555-268.203-232.021-273.621 232.277z" />
<glyph unicode="&#xe979;" glyph-name="mail-volume-line" d="M853.333 341.333v-384l-142.208 106.667h-113.792v170.667h113.792l142.208 106.667zM896 832c23.564 0 42.667-19.103 42.667-42.667v0-384h-85.333v245.888l-338.261-302.976-344.405 303.915v-502.827h341.333v-85.333h-384c-23.564 0-42.667 19.103-42.667 42.667v0 682.667c0 23.564 19.103 42.667 42.667 42.667v0h768zM896 234.667c0.113 0.001 0.248 0.001 0.382 0.001 47.128 0 85.333-38.205 85.333-85.333 0-45.011-34.849-81.882-79.037-85.105l-0.278-0.016-6.4-0.213v170.667zM832 746.667h-639.531l322.133-284.245 317.397 284.245z" />
<glyph unicode="&#xe97a;" glyph-name="medal-2-fill" d="M512 597.333l90.283-217.088 234.325-18.773-178.517-152.917 54.528-228.693-200.619 122.539-200.619-122.539 54.528 228.693-178.517 152.917 234.325 18.773 90.283 217.088zM341.333 874.667v-384h-85.333v384h85.333zM768 874.667v-384h-85.333v384h85.333zM554.667 874.667v-213.333h-85.333v213.333h85.333z" />
<glyph unicode="&#xe97b;" glyph-name="medal-2-line" d="M512 597.333l90.283-217.088 234.325-18.773-178.517-152.917 54.528-228.693-200.619 122.539-200.619-122.539 54.528 228.693-178.517 152.917 234.325 18.773 90.283 217.088zM512 375.168l-31.531-75.819-81.749-6.528 62.293-53.376-19.072-79.829 70.059 42.795 70.016-42.795-19.029 79.787 62.251 53.419-81.707 6.528-31.531 75.819zM341.333 874.667v-384h-85.333v384h85.333zM768 874.667v-384h-85.333v384h85.333zM554.667 874.667v-213.333h-85.333v213.333h85.333z" />
<glyph unicode="&#xe97c;" glyph-name="medal-fill" d="M512 661.333c188.513 0 341.333-152.82 341.333-341.333s-152.82-341.333-341.333-341.333v0c-188.513 0-341.333 152.82-341.333 341.333s152.82 341.333 341.333 341.333v0zM512 512l-56.448-114.347-126.165-18.347 91.307-88.96-21.547-125.696 112.853 59.349 112.853-59.307-21.547 125.653 91.307 89.003-126.165 18.347-56.448 114.304zM554.667 874.709l213.333-0.043v-128l-58.155-48.555c-44.979 24.099-97.578 40.619-153.379 46.315l-1.799 0.149v130.091zM469.333 874.709v-130.133c-57.582-5.836-110.167-22.341-157.419-47.533l2.283 1.111-58.197 48.512v128l213.333 0.043z" />
<glyph unicode="&#xe97d;" glyph-name="medal-line" d="M512 661.333c188.513 0 341.333-152.82 341.333-341.333s-152.82-341.333-341.333-341.333v0c-188.513 0-341.333 152.82-341.333 341.333s152.82 341.333 341.333 341.333v0zM512 576c-141.385 0-256-114.615-256-256s114.615-256 256-256v0c141.385 0 256 114.615 256 256s-114.615 256-256 256v0zM512 512l56.448-114.347 126.165-18.347-91.307-88.96 21.547-125.696-112.853 59.349-112.853-59.307 21.547 125.653-91.307 89.003 126.165 18.347 56.448 114.304zM768 874.667v-128l-58.155-48.555c-44.979 24.099-97.578 40.619-153.379 46.315l-1.799 0.149v130.091h213.333zM469.333 874.709v-130.133c-57.582-5.836-110.167-22.341-157.419-47.533l2.283 1.111-58.197 48.512v128l213.333 0.043z" />
<glyph unicode="&#xe97e;" glyph-name="pie-chart-2-fill" d="M469.333 872.533v-467.2h467.2c-21.376-215.595-203.307-384-424.533-384-235.648 0-426.667 191.019-426.667 426.667 0 221.227 168.405 403.157 384 424.533zM554.667 936.832c236.928-20.352 425.771-209.237 446.165-446.165h-446.165v446.165z" />
<glyph unicode="&#xe97f;" glyph-name="pie-chart-2-line" d="M469.333 936.832c14.080 1.237 28.288 1.835 42.667 1.835 270.976 0 490.667-219.691 490.667-490.667 0-14.379-0.597-28.587-1.835-42.667h-64.256c-21.419-215.595-203.349-384-424.576-384-235.648 0-426.667 191.019-426.667 426.667 0 221.227 168.405 403.157 384 424.533v64.341zM469.333 405.333v381.355c-169.084-22.13-298.286-165.299-298.286-338.646 0-188.388 152.598-341.134 340.929-341.376h0.024c173.479 0.003 316.733 129.406 338.506 296.951l0.182 1.715h-381.355zM915.115 490.667c-20.748 190.139-170.309 339.7-358.639 360.288l-1.809 0.16v-360.448h360.448z" />
<glyph unicode="&#xe980;" glyph-name="pie-chart-box-fill" d="M128 832h768c23.564 0 42.667-19.103 42.667-42.667v0-682.667c0-23.564-19.103-42.667-42.667-42.667v0h-768c-23.564 0-42.667 19.103-42.667 42.667v0 682.667c0 23.564 19.103 42.667 42.667 42.667v0zM721.067 405.333h-251.733v251.733c-97.812-20.79-170.13-106.441-170.13-208.982 0-117.649 95.196-213.064 212.762-213.418h0.034c102.723 0.013 188.49 72.598 208.822 169.276l0.245 1.391zM721.067 490.667c-17.613 83.852-82.548 148.787-165.007 166.154l-1.393 0.246v-166.4h166.4z" />
<glyph unicode="&#xe981;" glyph-name="pie-chart-box-line" d="M128 832h768c23.564 0 42.667-19.103 42.667-42.667v0-682.667c0-23.564-19.103-42.667-42.667-42.667v0h-768c-23.564 0-42.667 19.103-42.667 42.667v0 682.667c0 23.564 19.103 42.667 42.667 42.667v0zM170.667 746.667v-597.333h682.667v597.333h-682.667zM721.067 405.333c-20.79-97.812-106.441-170.13-208.982-170.13-117.649 0-213.064 95.196-213.418 212.762v0.034c0.013 102.723 72.598 188.49 169.276 208.822l1.391 0.245v-251.733h251.733zM721.067 490.667h-166.4v166.4c83.852-17.613 148.787-82.548 166.154-165.007l0.246-1.393z" />
<glyph unicode="&#xe982;" glyph-name="pie-chart-fill" d="M469.333 872.533v-467.2h467.2c-21.376-215.595-203.307-384-424.533-384-235.648 0-426.667 191.019-426.667 426.667 0 221.227 168.405 403.157 384 424.533zM554.667 872.533c201.917-20.937 360.93-179.95 381.712-380.033l0.154-1.834h-381.867v381.867z" />
<glyph unicode="&#xe983;" glyph-name="pie-chart-line" d="M512 21.333c-235.648 0-426.667 191.019-426.667 426.667 0 191.061 125.568 352.768 298.667 407.125v-90.624c-125.979-52.145-212.995-174.098-212.995-316.374 0-188.42 152.612-341.196 340.97-341.461h0.025c142.401 0.004 264.44 87.176 315.671 211.066l0.83 2.267h90.624c-54.357-173.099-216.064-298.667-407.125-298.667zM936.533 405.333h-467.2v467.2c14.037 1.408 28.288 2.133 42.667 2.133 235.648 0 426.667-191.019 426.667-426.667 0-14.379-0.725-28.629-2.133-42.667zM554.667 786.688v-296.021h296.021c-20.098 154.728-141.294 275.923-294.303 295.839l-1.718 0.183z" />
<glyph unicode="&#xe984;" glyph-name="printer-cloud-fill" d="M450.816 234.667c-15.205-27.706-24.149-60.711-24.149-95.805 0-0.069 0-0.137 0-0.206v0.011c0-43.648 13.824-84.181 37.419-117.333h-165.419v213.333h152.149zM746.667 405.333c82.475 0 149.333-66.859 149.333-149.333v0l-0.043-4.395c49.744-14.347 85.513-59.465 85.513-112.936 0-62.328-48.598-113.305-109.969-117.106l-0.334-0.017-7.168-0.213-241.835 0.213c-61.673 3.854-110.232 54.815-110.232 117.118 0 53.477 35.776 98.598 84.699 112.735l0.829 0.205-0.128 4.395c0 82.475 66.859 149.333 149.333 149.333v0zM896 618.667c23.564 0 42.667-19.103 42.667-42.667v0l0.043-185.429c-42.827 60.836-112.752 100.096-191.847 100.096-0.069 0-0.137 0-0.206 0h0.011l-9.429-0.171c-102.936-4.283-188.437-74.218-215.991-168.837l-0.414-1.659h-307.499v-213.333h-85.333c-23.564 0-42.667 19.103-42.667 42.667v0 426.667c0 23.564 19.103 42.667 42.667 42.667v0h768zM341.333 533.333h-128v-85.333h128v85.333zM725.333 874.667c23.564 0 42.667-19.103 42.667-42.667v0-128h-512v128c0 23.564 19.103 42.667 42.667 42.667v0h426.667z" />
<glyph unicode="&#xe985;" glyph-name="printer-cloud-line" d="M725.333 874.667c23.564 0 42.667-19.103 42.667-42.667v0-170.667h128c23.564 0 42.667-19.103 42.667-42.667v0l0.043-228.096c-22.057 31.26-50.701 56.423-84.034 73.835l-1.299 0.618-0.043 110.976h-682.667v-341.333h85.333v42.667c0 23.564 19.103 42.667 42.667 42.667v0h222.165l-3.029-12.075-1.28-0.853c-27.414-18.582-49.576-42.899-65.133-71.345l-0.531-1.060h-109.525v-128h87.893c5.266-32.419 17.553-61.259 35.271-85.937l-0.412 0.604h-165.419c-23.564 0-42.667 19.103-42.667 42.667v0 85.333h-128c-23.564 0-42.667 19.103-42.667 42.667v0 426.667c0 23.564 19.103 42.667 42.667 42.667v0h128v170.667c0 23.564 19.103 42.667 42.667 42.667v0h426.667zM746.667 405.333c82.475 0 149.333-66.859 149.333-149.333v0l-0.043-4.395c49.744-14.347 85.513-59.465 85.513-112.936 0-62.328-48.598-113.305-109.969-117.106l-0.334-0.017-7.168-0.213-241.835 0.213c-61.673 3.854-110.232 54.815-110.232 117.118 0 53.477 35.776 98.598 84.699 112.735l0.829 0.205-0.128 4.395c0 82.475 66.859 149.333 149.333 149.333v0zM746.667 320c-0.004 0-0.009 0-0.014 0-31.045 0-56.927-22.104-62.766-51.432l-0.068-0.408-0.853-5.973-0.299-6.187v-69.12l-61.611-17.323c-13.783-3.768-23.747-16.179-23.747-30.917 0-15.965 11.691-29.199 26.979-31.608l0.181-0.024 4.651-0.341h235.093c17.568 0.137 31.757 14.411 31.757 31.999 0 14.703-9.916 27.090-23.426 30.838l-0.225 0.053-43.221 12.075-18.432 5.248v69.12l-0.299 6.144c-3.237 32.602-30.52 57.854-63.701 57.856v0zM341.333 533.333v-85.333h-128v85.333h128zM682.667 789.333h-341.333v-128h341.333v128z" />
<glyph unicode="&#xe986;" glyph-name="printer-fill" d="M298.667 234.667h426.667v-213.333h-426.667v213.333zM810.667 106.667v213.333h-597.333v-213.333h-85.333c-23.564 0-42.667 19.103-42.667 42.667v0 426.667c0 23.564 19.103 42.667 42.667 42.667v0h768c23.564 0 42.667-19.103 42.667-42.667v0-426.667c0-23.564-19.103-42.667-42.667-42.667v0h-85.333zM213.333 533.333v-85.333h128v85.333h-128zM298.667 874.667h426.667c23.564 0 42.667-19.103 42.667-42.667v0-128h-512v128c0 23.564 19.103 42.667 42.667 42.667v0z" />
<glyph unicode="&#xe987;" glyph-name="printer-line" d="M256 149.333h-128c-23.564 0-42.667 19.103-42.667 42.667v0 426.667c0 23.564 19.103 42.667 42.667 42.667v0h128v170.667c0 23.564 19.103 42.667 42.667 42.667v0h426.667c23.564 0 42.667-19.103 42.667-42.667v0-170.667h128c23.564 0 42.667-19.103 42.667-42.667v0-426.667c0-23.564-19.103-42.667-42.667-42.667v0h-128v-85.333c0-23.564-19.103-42.667-42.667-42.667v0h-426.667c-23.564 0-42.667 19.103-42.667 42.667v0 85.333zM256 234.667v42.667c0 23.564 19.103 42.667 42.667 42.667v0h426.667c23.564 0 42.667-19.103 42.667-42.667v0-42.667h85.333v341.333h-682.667v-341.333h85.333zM341.333 789.333v-128h341.333v128h-341.333zM341.333 234.667v-128h341.333v128h-341.333zM213.333 533.333h128v-85.333h-128v85.333z" />
<glyph unicode="&#xe988;" glyph-name="profile-fill" d="M85.333 789.632c0.168 23.317 19.012 42.176 42.307 42.368h768.701c23.381 0 42.325-18.987 42.325-42.368v-683.264c-0.168-23.317-19.012-42.176-42.307-42.368h-768.701c-23.381 0.024-42.325 18.984-42.325 42.368v0 683.264zM256 320v-85.333h512v85.333h-512zM256 661.333v-256h256v256h-256zM597.333 661.333v-85.333h170.667v85.333h-170.667zM597.333 490.667v-85.333h170.667v85.333h-170.667zM341.333 576h85.333v-85.333h-85.333v85.333z" />
<glyph unicode="&#xe989;" glyph-name="profile-line" d="M85.333 789.632c0.168 23.317 19.012 42.176 42.307 42.368h768.701c23.381 0 42.325-18.987 42.325-42.368v-683.264c-0.168-23.317-19.012-42.176-42.307-42.368h-768.701c-23.381 0.024-42.325 18.984-42.325 42.368v0 683.264zM170.667 746.667v-597.333h682.667v597.333h-682.667zM256 661.333h256v-256h-256v256zM341.333 576v-85.333h85.333v85.333h-85.333zM256 320h512v-85.333h-512v85.333zM597.333 661.333h170.667v-85.333h-170.667v85.333zM597.333 490.667h170.667v-85.333h-170.667v85.333z" />
<glyph unicode="&#xe98a;" glyph-name="projector-2-fill" d="M938.667 149.333v-85.333h-85.333v85.333h-682.667v-85.333h-85.333v85.333c-23.564 0-42.667 19.103-42.667 42.667v0 512c0 23.564 19.103 42.667 42.667 42.667v0h418.56c50.427 52.627 121.283 85.334 199.779 85.334 0.115 0 0.23 0 0.346 0h-0.018c78.635 0 149.632-32.725 200.107-85.333h34.56c23.564 0 42.667-19.103 42.667-42.667v0-512c0-23.564-19.103-42.667-42.667-42.667v0zM704 362.667c106.039 0 192 85.961 192 192s-85.961 192-192 192v0c-106.039 0-192-85.961-192-192s85.961-192 192-192v0zM704 448c-58.91 0-106.667 47.756-106.667 106.667s47.756 106.667 106.667 106.667v0c58.91 0 106.667-47.756 106.667-106.667s-47.756-106.667-106.667-106.667v0zM170.667 405.333v-85.333h85.333v85.333h-85.333zM341.333 405.333v-85.333h85.333v85.333h-85.333z" />
<glyph unicode="&#xe98b;" glyph-name="projector-2-line" d="M938.667 149.333v-85.333h-85.333v85.333h-682.667v-85.333h-85.333v85.333c-23.564 0-42.667 19.103-42.667 42.667v0 512c0 23.564 19.103 42.667 42.667 42.667v0h449.195c46.972 52.468 114.91 85.333 190.525 85.333 0.099 0 0.197 0 0.296 0h-0.016c75.819 0 143.957-32.981 190.805-85.333h22.528c23.564 0 42.667-19.103 42.667-42.667v0-512c0-23.564-19.103-42.667-42.667-42.667v0zM483.883 661.333h-355.883v-426.667h768v150.528c-45.099-40.524-105.054-65.306-170.798-65.306-141.385 0-256 114.615-256 256 0 30.63 5.379 60.003 15.244 87.227l-0.564-1.782zM725.333 405.333c94.257 0 170.667 76.41 170.667 170.667s-76.41 170.667-170.667 170.667v0c-94.257 0-170.667-76.41-170.667-170.667s76.41-170.667 170.667-170.667v0zM213.333 405.333h85.333v-85.333h-85.333v85.333zM341.333 405.333h85.333v-85.333h-85.333v85.333z" />
<glyph unicode="&#xe98c;" glyph-name="projector-fill" d="M474.112 448c20.244-86.054 96.366-149.132 187.221-149.132s166.977 63.078 186.962 147.83l0.259 1.302h90.112v-341.333c0-23.564-19.103-42.667-42.667-42.667v0h-768c-23.564 0-42.667 19.103-42.667 42.667v0 341.333h388.779zM213.333 277.333h85.333v-85.333h-85.333v85.333zM661.333 384c-58.91 0-106.667 47.756-106.667 106.667s47.756 106.667 106.667 106.667v0c58.91 0 106.667-47.756 106.667-106.667s-47.756-106.667-106.667-106.667v0zM474.112 533.333h-388.779v256c0 23.564 19.103 42.667 42.667 42.667v0h768c23.564 0 42.667-19.103 42.667-42.667v0-256h-90.112c-20.244 86.054-96.366 149.132-187.221 149.132s-166.977-63.078-186.962-147.83l-0.259-1.302z" />
<glyph unicode="&#xe98d;" glyph-name="projector-line" d="M128 832h768c23.564 0 42.667-19.103 42.667-42.667v0-682.667c0-23.564-19.103-42.667-42.667-42.667v0h-768c-23.564 0-42.667 19.103-42.667 42.667v0 682.667c0 23.564 19.103 42.667 42.667 42.667v0zM474.709 448h-304.043v-298.667h682.667v298.667h-48.043c-19.689-74.156-86.212-127.912-165.291-127.912s-145.602 53.756-165.021 126.72l-0.27 1.192zM474.709 533.333c19.689 74.156 86.212 127.912 165.291 127.912s145.602-53.756 165.021-126.72l0.27-1.192h48.043v213.333h-682.667v-213.333h304.043zM640 405.333c47.128 0 85.333 38.205 85.333 85.333s-38.205 85.333-85.333 85.333v0c-47.128 0-85.333-38.205-85.333-85.333s38.205-85.333 85.333-85.333v0zM256 320h85.333v-85.333h-85.333v85.333z" />
<glyph unicode="&#xe98e;" glyph-name="record-mail-fill" d="M415.701 320h192.597c-33.388 40.242-53.647 92.422-53.647 149.333 0 129.603 105.064 234.667 234.667 234.667s234.667-105.064 234.667-234.667c0-129.597-105.055-234.658-234.651-234.667h-554.667c-129.596 0.009-234.651 105.069-234.651 234.667 0 129.603 105.064 234.667 234.667 234.667s234.667-105.064 234.667-234.667c0-56.912-20.259-109.092-53.96-149.721l0.313 0.388zM234.667 405.333c35.346 0 64 28.654 64 64s-28.654 64-64 64v0c-35.346 0-64-28.654-64-64s28.654-64 64-64v0zM789.333 405.333c35.346 0 64 28.654 64 64s-28.654 64-64 64v0c-35.346 0-64-28.654-64-64s28.654-64 64-64v0z" />
<glyph unicode="&#xe98f;" glyph-name="record-mail-line" d="M608.299 320c-33.388 40.242-53.647 92.422-53.647 149.333 0 129.603 105.064 234.667 234.667 234.667s234.667-105.064 234.667-234.667c0-129.597-105.055-234.658-234.651-234.667h-554.667c-129.596 0.009-234.651 105.069-234.651 234.667 0 129.603 105.064 234.667 234.667 234.667s234.667-105.064 234.667-234.667c0-56.912-20.259-109.092-53.96-149.721l0.313 0.388h192.597zM234.667 320c82.475 0 149.333 66.859 149.333 149.333s-66.859 149.333-149.333 149.333v0c-82.475 0-149.333-66.859-149.333-149.333s66.859-149.333 149.333-149.333v0zM789.333 320c82.475 0 149.333 66.859 149.333 149.333s-66.859 149.333-149.333 149.333v0c-82.475 0-149.333-66.859-149.333-149.333s66.859-149.333 149.333-149.333v0z" />
<glyph unicode="&#xe990;" glyph-name="registered-fill" d="M512 874.667c235.648 0 426.667-191.019 426.667-426.667s-191.019-426.667-426.667-426.667-426.667 191.019-426.667 426.667 191.019 426.667 426.667 426.667zM533.333 661.333h-192v-426.667h85.333v128h94.592l93.013-128h105.472l-108.8 149.76c43.333 26.654 71.792 73.815 71.792 127.624 0 79.617-62.307 144.682-140.82 149.095l-0.391 0.018-8.192 0.171zM533.333 576c33.181-0.002 60.464-25.254 63.68-57.59l0.021-0.266 0.299-6.144-0.299-6.144c-3.009-30.51-27.052-54.568-57.291-57.579l-0.267-0.021-6.144-0.256h-106.667v128h106.667z" />
<glyph unicode="&#xe991;" glyph-name="registered-line" d="M512 874.667c235.648 0 426.667-191.019 426.667-426.667s-191.019-426.667-426.667-426.667-426.667 191.019-426.667 426.667 191.019 426.667 426.667 426.667zM512 789.333c-188.513 0-341.333-152.82-341.333-341.333s152.82-341.333 341.333-341.333v0c188.513 0 341.333 152.82 341.333 341.333s-152.82 341.333-341.333 341.333v0zM533.333 661.333c0.009 0 0.019 0 0.029 0 82.475 0 149.333-66.859 149.333-149.333 0-53.774-28.423-100.91-71.065-127.204l-0.644-0.37 108.715-149.76h-105.472l-93.013 128h-94.549v-128h-85.333v426.667h192zM533.333 576h-106.667v-128h106.667c33.181 0.002 60.464 25.254 63.68 57.59l0.021 0.266 0.299 6.144c0 35.346-28.654 64-64 64v0z" />
<glyph unicode="&#xe992;" glyph-name="reply-all-fill" d="M597.333 768v-192c235.648 0 426.667-191.019 426.667-426.667 0-11.648-0.427-23.168-1.365-34.56-62.421 118.357-184.747 200.149-326.613 205.013l-13.355 0.213h-85.333v-192l-341.333 320 341.333 320zM341.333 768v-116.779l-216.747-203.221 216.704-203.136 0.043-116.864-341.333 320 341.333 320z" />
<glyph unicode="&#xe993;" glyph-name="reply-all-line" d="M597.333 768v-192c235.648 0 426.667-191.019 426.667-426.667 0-11.648-0.427-23.168-1.365-34.56-62.421 118.357-184.747 200.149-326.613 205.013l-13.355 0.213h-85.333v-192l-341.333 320 341.333 320zM341.333 768v-116.779l-216.747-203.221 216.704-203.136 0.043-116.864-341.333 320 341.333 320zM512 571.051l-131.243-123.051 131.243-123.008v80.341h172.117l14.805-0.299c54.827-1.835 107.691-13.227 156.843-32.683-62.592 72.448-155.179 118.315-258.432 118.315h-85.333v80.384z" />
<glyph unicode="&#xe994;" glyph-name="reply-fill" d="M469.333 106.667l-426.667 341.333 426.667 341.333v-213.333c235.648 0 426.667-191.019 426.667-426.667 0-11.648-0.427-23.168-1.365-34.56-64.341 122.027-192.427 205.227-339.968 205.227h-85.333v-213.333z" />
<glyph unicode="&#xe995;" glyph-name="reply-line" d="M469.333 106.667l-426.667 341.333 426.667 341.333v-213.333c235.648 0 426.667-191.019 426.667-426.667 0-11.648-0.427-23.168-1.365-34.56-62.421 118.357-184.747 200.149-326.613 205.013l-13.355 0.213h-85.333v-213.333zM384 405.333h172.117l14.805-0.299c54.827-1.835 107.691-13.227 156.843-32.683-62.592 72.448-155.179 118.315-258.432 118.315h-85.333v121.131l-204.715-163.797 204.715-163.797v121.131z" />
<glyph unicode="&#xe996;" glyph-name="send-plane-2-fill" d="M128 405.333h256v85.333h-256v390.571c0.002 11.781 9.553 21.33 21.333 21.33 3.772 0 7.316-0.979 10.391-2.697l-0.108 0.055 787.712-433.237c6.633-3.704 11.044-10.681 11.044-18.688s-4.411-14.984-10.936-18.633l-0.108-0.055-787.712-433.237c-2.967-1.663-6.51-2.642-10.283-2.642-11.781 0-21.331 9.549-21.333 21.329v0 390.571z" />
<glyph unicode="&#xe997;" glyph-name="send-plane-2-line" d="M159.616 899.925l787.712-433.237c6.633-3.704 11.044-10.681 11.044-18.688s-4.411-14.984-10.936-18.633l-0.108-0.055-787.712-433.237c-2.967-1.663-6.51-2.642-10.283-2.642-11.781 0-21.331 9.549-21.333 21.329v0 866.475c0.002 11.781 9.553 21.33 21.333 21.33 3.772 0 7.316-0.979 10.391-2.697l-0.108 0.055zM213.333 405.333v-282.325l590.933 324.992-590.933 324.992v-282.325h213.333v-85.333h-213.333z" />
<glyph unicode="&#xe998;" glyph-name="send-plane-fill" d="M83.029 562.56c-22.272 7.424-22.485 19.413 0.427 27.051l814.379 271.445c22.571 7.509 35.499-5.12 29.184-27.221l-232.704-814.336c-6.4-22.571-19.413-23.339-28.971-1.92l-153.344 345.088 256 341.333-341.333-256-343.637 114.56z" />
<glyph unicode="&#xe999;" glyph-name="send-plane-line" d="M82.048 560.213c-21.76 8.747-21.504 21.76 1.451 29.397l814.336 271.445c22.571 7.509 35.499-5.12 29.184-27.221l-232.704-814.336c-6.4-22.571-20.267-23.595-30.592-2.987l-194.389 388.821-387.285 154.88zM290.688 568.747l240.469-96.213 129.707-259.499 151.296 529.493-521.515-173.781z" />
<glyph unicode="&#xe99a;" glyph-name="service-fill" d="M602.496 512.853c-7.721 7.718-18.386 12.492-30.165 12.492s-22.445-4.774-30.165-12.492v0l-30.165-30.123c-15.539-16.073-37.294-26.051-61.379-26.051-47.128 0-85.333 38.205-85.333 85.333 0 24.086 9.979 45.841 26.027 61.356l0.024 0.023 240.213 240.299c18.482 4.39 39.701 6.907 61.508 6.907 153.167 0 277.333-124.166 277.333-277.333 0-69.092-25.266-132.283-67.062-180.838l0.306 0.363-89.941-91.093-211.2 211.2zM134.869 769.365c50.209 50.203 119.569 81.254 196.182 81.254 53.865 0 104.145-15.349 146.705-41.913l-1.17 0.681-145.621-145.664c-30.956-30.896-50.108-73.612-50.108-120.8 0-94.257 76.41-170.667 170.667-170.667 44.206 0 84.487 16.807 114.801 44.38l-0.138-0.124 6.144 5.845 181.035-180.992-181.035-181.035c-15.441-15.437-36.771-24.984-60.331-24.984s-44.889 9.548-60.331 24.985l-316.842 316.842c-50.182 50.187-81.221 119.517-81.221 196.096s31.038 145.909 81.221 196.096v0z" />
<glyph unicode="&#xe99b;" glyph-name="service-line" d="M134.869 769.323c50.189 50.198 119.53 81.247 196.122 81.247 69.359 0 132.772-25.462 181.401-67.548l-0.349 0.296c48.267 41.748 111.649 67.182 180.971 67.182 153.167 0 277.333-124.166 277.333-277.333 0-69.067-25.247-132.237-67.016-180.785l0.307 0.365-331.307-332.373c-15.443-15.449-36.781-25.004-60.35-25.004-21.319 0-40.813 7.818-55.769 20.744l0.109-0.092-4.693 4.309-331.264 332.416c-41.48 48.188-66.739 111.372-66.739 180.455 0 76.592 31.048 145.932 81.245 196.121l0.001 0.001zM195.2 708.992c-34.734-34.743-56.217-82.736-56.217-135.746 0-49.836 18.987-95.238 50.123-129.365l-0.136 0.151 6.229-6.571 316.8-316.8 226.261 226.304-150.827 150.827-45.227-45.227c-23.168-23.178-55.179-37.515-90.539-37.515-70.698 0-128.011 57.312-128.011 128.011 0 35.339 14.32 67.333 37.473 90.496l89.685 89.728c-32.524 26.133-74.312 41.943-119.793 41.943-49.852 0-95.267-18.995-129.403-50.142l0.15 0.135-6.571-6.229zM557.269 588.331c7.721 7.718 18.386 12.492 30.165 12.492s22.445-4.774 30.165-12.492l180.992-180.992 30.208 30.123c34.774 34.75 56.284 82.769 56.284 135.813 0 106.039-85.961 192-192 192-49.871 0-95.3-19.014-129.436-50.187l0.149 0.134-6.528-6.229-135.765-135.765c-7.727-7.722-12.507-18.393-12.507-30.18 0-10.026 3.458-19.243 9.246-26.526l-0.067 0.087 3.328-3.712c7.722-7.727 18.393-12.507 30.18-12.507 10.026 0 19.243 3.458 26.526 9.246l-0.087-0.067 3.712 3.328 75.435 75.435z" />
<glyph unicode="&#xe99c;" glyph-name="slideshow-2-fill" d="M554.667 234.667v-128h213.333v-85.333h-512v85.333h213.333v128h-298.667c-23.564 0-42.667 19.103-42.667 42.667v0 512h-42.667v85.333h853.333v-85.333h-42.667v-512c0-23.564-19.103-42.667-42.667-42.667v0h-298.667zM426.667 704v-298.667l213.333 149.333-213.333 149.333z" />
<glyph unicode="&#xe99d;" glyph-name="slideshow-2-line" d="M554.667 234.667v-128h213.333v-85.333h-512v85.333h213.333v128h-298.667c-23.564 0-42.667 19.103-42.667 42.667v0 512h-42.667v85.333h853.333v-85.333h-42.667v-512c0-23.564-19.103-42.667-42.667-42.667v0h-298.667zM213.333 320h597.333v469.333h-597.333v-469.333zM426.667 704l213.333-149.333-213.333-149.333v298.667z" />
<glyph unicode="&#xe99e;" glyph-name="slideshow-3-fill" d="M554.667 192v-85.333h170.667v-85.333h-426.667v85.333h170.667v85.333h-341.333c-23.564 0-42.667 19.103-42.667 42.667v0 554.667c0 23.564 19.103 42.667 42.667 42.667v0h768c23.564 0 42.667-19.103 42.667-42.667v0-554.667c0-23.564-19.103-42.667-42.667-42.667v0h-341.333zM426.667 640v-256l213.333 128-213.333 128z" />
<glyph unicode="&#xe99f;" glyph-name="slideshow-3-line" d="M554.667 192v-85.333h170.667v-85.333h-426.667v85.333h170.667v85.333h-341.333c-23.564 0-42.667 19.103-42.667 42.667v0 554.667c0 23.564 19.103 42.667 42.667 42.667v0h768c23.564 0 42.667-19.103 42.667-42.667v0-554.667c0-23.564-19.103-42.667-42.667-42.667v0h-341.333zM170.667 746.667v-469.333h682.667v469.333h-682.667zM426.667 640l213.333-128-213.333-128v256z" />
<glyph unicode="&#xe9a0;" glyph-name="slideshow-4-fill" d="M348.587 832c18.117 50.142 65.303 85.333 120.71 85.333 0.013 0 0.026 0 0.039 0h85.331c55.723 0 103.125-35.627 120.747-85.333h220.587c23.564 0 42.667-19.103 42.667-42.667v0-682.667c0-23.564-19.103-42.667-42.667-42.667v0h-768c-23.564 0-42.667 19.103-42.667 42.667v0 682.667c0 23.564 19.103 42.667 42.667 42.667v0h220.587zM426.667 576v-256l213.333 128-213.333 128zM469.333 832c-23.564 0-42.667-19.103-42.667-42.667s19.103-42.667 42.667-42.667v0h85.333c23.564 0 42.667 19.103 42.667 42.667s-19.103 42.667-42.667 42.667v0h-85.333z" />
<glyph unicode="&#xe9a1;" glyph-name="slideshow-4-line" d="M348.587 832c18.117 50.142 65.303 85.333 120.71 85.333 0.013 0 0.026 0 0.039 0h85.331c55.723 0 103.125-35.627 120.747-85.333h220.587c23.564 0 42.667-19.103 42.667-42.667v0-682.667c0-23.564-19.103-42.667-42.667-42.667v0h-768c-23.564 0-42.667 19.103-42.667 42.667v0 682.667c0 23.564 19.103 42.667 42.667 42.667v0h220.587zM170.667 746.667v-597.333h682.667v597.333h-177.92c-18.117-50.142-65.303-85.333-120.71-85.333-0.013 0-0.026 0-0.039 0h-85.331c-0.011 0-0.024 0-0.037 0-55.406 0-102.593 35.192-120.428 84.442l-0.282 0.891h-177.92zM469.333 832c-23.564 0-42.667-19.103-42.667-42.667s19.103-42.667 42.667-42.667v0h85.333c23.564 0 42.667 19.103 42.667 42.667s-19.103 42.667-42.667 42.667v0h-85.333zM426.667 576l213.333-128-213.333-128v256z" />
<glyph unicode="&#xe9a2;" glyph-name="slideshow-fill" d="M554.667 64v-85.333h-85.333v85.333h-341.333c-23.564 0-42.667 19.103-42.667 42.667v0 597.333h853.333v-597.333c0-23.564-19.103-42.667-42.667-42.667v0h-341.333zM341.333 533.333c-70.692 0-128-57.308-128-128s57.308-128 128-128c70.692 0 128 57.308 128 128v0h-128v128zM554.667 533.333v-85.333h256v85.333h-256zM554.667 362.667v-85.333h256v85.333h-256zM85.333 832h853.333v-85.333h-853.333v85.333z" />
<glyph unicode="&#xe9a3;" glyph-name="slideshow-line" d="M554.667 64v-85.333h-85.333v85.333h-341.333c-23.564 0-42.667 19.103-42.667 42.667v0 597.333h853.333v-597.333c0-23.564-19.103-42.667-42.667-42.667v0h-341.333zM170.667 149.333h682.667v469.333h-682.667v-469.333zM554.667 533.333h213.333v-85.333h-213.333v85.333zM554.667 362.667h213.333v-85.333h-213.333v85.333zM384 533.333v-128h128c0-70.692-57.308-128-128-128s-128 57.308-128 128c0 70.692 57.308 128 128 128v0zM85.333 832h853.333v-85.333h-853.333v85.333z" />
<glyph unicode="&#xe9a4;" glyph-name="stack-fill" d="M856.875 512l51.285-30.763c6.258-3.794 10.375-10.568 10.375-18.304s-4.118-14.51-10.281-18.251l-0.095-0.053-396.16-237.696-396.16 237.696c-6.258 3.794-10.375 10.568-10.375 18.304s4.118 14.51 10.281 18.251l0.095 0.053 51.285 30.763 344.875-206.933 344.875 206.933zM856.875 311.467l51.285-30.763c6.258-3.794 10.375-10.568 10.375-18.304s-4.118-14.51-10.281-18.251l-0.095-0.053-374.187-224.512c-6.271-3.827-13.857-6.093-21.973-6.093s-15.702 2.266-22.162 6.2l0.188-0.107-374.187 224.512c-6.258 3.794-10.375 10.568-10.375 18.304s4.118 14.51 10.281 18.251l0.095 0.053 51.285 30.763 344.875-206.933 344.875 206.933zM533.931 904.149l374.229-224.512c6.258-3.794 10.375-10.568 10.375-18.304s-4.118-14.51-10.281-18.251l-0.095-0.053-396.16-237.696-396.16 237.696c-6.258 3.794-10.375 10.568-10.375 18.304s4.118 14.51 10.281 18.251l0.095 0.053 374.187 224.512c6.271 3.827 13.857 6.093 21.973 6.093s15.702-2.266 22.162-6.2l-0.188 0.107z" />
<glyph unicode="&#xe9a5;" glyph-name="stack-line" d="M856.875 311.467l51.285-30.763c6.258-3.794 10.375-10.568 10.375-18.304s-4.118-14.51-10.281-18.251l-0.095-0.053-374.187-224.512c-6.271-3.827-13.857-6.093-21.973-6.093s-15.702 2.266-22.162 6.2l0.188-0.107-374.187 224.512c-6.258 3.794-10.375 10.568-10.375 18.304s4.118 14.51 10.281 18.251l0.095 0.053 51.285 30.763 344.875-206.933 344.875 206.933zM856.875 512l51.285-30.763c6.258-3.794 10.375-10.568 10.375-18.304s-4.118-14.51-10.281-18.251l-0.095-0.053-396.16-237.696-396.16 237.696c-6.258 3.794-10.375 10.568-10.375 18.304s4.118 14.51 10.281 18.251l0.095 0.053 51.285 30.763 344.875-206.933 344.875 206.933zM533.931 904.149l374.229-224.512c6.258-3.794 10.375-10.568 10.375-18.304s-4.118-14.51-10.281-18.251l-0.095-0.053-396.16-237.696-396.16 237.696c-6.258 3.794-10.375 10.568-10.375 18.304s4.118 14.51 10.281 18.251l0.095 0.053 374.187 224.512c6.271 3.827 13.857 6.093 21.973 6.093s15.702-2.266 22.162-6.2l-0.188 0.107zM512 817.835l-260.821-156.501 260.821-156.501 260.821 156.501-260.821 156.501z" />
<glyph unicode="&#xe9a6;" glyph-name="trademark-fill" d="M426.667 704v-85.333h-170.667v-426.667h-85.333v426.667h-170.667v85.333h426.667zM512 704h106.667l128-221.696 128 221.696h106.667v-512h-85.333v378.325l-149.333-258.688-149.333 258.603v-378.24h-85.333v512z" />
<glyph unicode="&#xe9a7;" glyph-name="trademark-line" d="M426.667 704v-85.333h-170.667v-426.667h-85.333v426.667h-170.667v85.333h426.667zM512 704h106.667l128-221.696 128 221.696h106.667v-512h-85.333v378.325l-149.333-258.688-149.333 258.603v-378.24h-85.333v512z" />
</font>
</defs>
</svg>
