<?xml version="1.0" standalone="no"?>
<!DOCTYPE svg PUBLIC "-//W3C//DTD SVG 1.1//EN" "http://www.w3.org/Graphics/SVG/1.1/DTD/svg11.dtd" >
<svg xmlns="http://www.w3.org/2000/svg">
<metadata>Generated by IcoMoon</metadata>
<defs>
<font id="RemixIcons-Design" horiz-adv-x="1024">
<font-face units-per-em="1024" ascent="960" descent="-64" />
<missing-glyph horiz-adv-x="1024" />
<glyph unicode="&#x20;" horiz-adv-x="512" d="" />
<glyph unicode="&#xe900;" glyph-name="anticlockwise-2-fill" d="M597.333 789.333h85.333c117.821 0 213.333-95.513 213.333-213.333v0-170.667h-85.333v170.667c0 70.692-57.308 128-128 128v0h-85.333v-128l-213.333 170.667 213.333 170.667v-128zM640 490.667v-426.667c0-23.564-19.103-42.667-42.667-42.667v0h-426.667c-23.564 0-42.667 19.103-42.667 42.667v0 426.667c0 23.564 19.103 42.667 42.667 42.667v0h426.667c23.564 0 42.667-19.103 42.667-42.667v0z" />
<glyph unicode="&#xe901;" glyph-name="anticlockwise-2-line" d="M572.331 704l78.037-77.995-60.373-60.373-180.992 181.035 180.992 181.035 60.373-60.373-78.037-77.995h110.336c117.821 0 213.333-95.513 213.333-213.333v0-170.667h-85.333v170.667c0 70.692-57.308 128-128 128v0h-110.336zM640 490.667v-426.667c0-23.564-19.103-42.667-42.667-42.667v0h-426.667c-23.564 0-42.667 19.103-42.667 42.667v0 426.667c0 23.564 19.103 42.667 42.667 42.667v0h426.667c23.564 0 42.667-19.103 42.667-42.667v0zM554.667 448h-341.333v-341.333h341.333v341.333z" />
<glyph unicode="&#xe902;" glyph-name="anticlockwise-fill" d="M256 533.333h128l-170.667-213.333-170.667 213.333h128v85.333c0 117.821 95.513 213.333 213.333 213.333v0h170.667v-85.333h-170.667c-70.692 0-128-57.308-128-128v0-85.333zM469.333 576h426.667c23.564 0 42.667-19.103 42.667-42.667v0-426.667c0-23.564-19.103-42.667-42.667-42.667v0h-426.667c-23.564 0-42.667 19.103-42.667 42.667v0 426.667c0 23.564 19.103 42.667 42.667 42.667v0z" />
<glyph unicode="&#xe903;" glyph-name="anticlockwise-line" d="M469.333 576h426.667c23.564 0 42.667-19.103 42.667-42.667v0-426.667c0-23.564-19.103-42.667-42.667-42.667v0h-426.667c-23.564 0-42.667 19.103-42.667 42.667v0 426.667c0 23.564 19.103 42.667 42.667 42.667v0zM512 490.667v-341.333h341.333v341.333h-341.333zM256 508.331l77.995 78.037 60.373-60.373-181.035-180.992-181.035 180.992 60.373 60.373 77.995-78.037v110.336c0 117.821 95.513 213.333 213.333 213.333v0h170.667v-85.333h-170.667c-70.692 0-128-57.308-128-128v0-110.336z" />
<glyph unicode="&#xe904;" glyph-name="artboard-2-fill" d="M256 704h512v-512h-512v512zM256 874.667h85.333v-128h-85.333v128zM256 149.333h85.333v-128h-85.333v128zM85.333 704h128v-85.333h-128v85.333zM85.333 277.333h128v-85.333h-128v85.333zM810.667 704h128v-85.333h-128v85.333zM810.667 277.333h128v-85.333h-128v85.333zM682.667 874.667h85.333v-128h-85.333v128zM682.667 149.333h85.333v-128h-85.333v128z" />
<glyph unicode="&#xe905;" glyph-name="artboard-2-line" d="M341.333 618.667v-341.333h341.333v341.333h-341.333zM256 704h512v-512h-512v512zM256 874.667h85.333v-128h-85.333v128zM256 149.333h85.333v-128h-85.333v128zM85.333 704h128v-85.333h-128v85.333zM85.333 277.333h128v-85.333h-128v85.333zM810.667 704h128v-85.333h-128v85.333zM810.667 277.333h128v-85.333h-128v85.333zM682.667 874.667h85.333v-128h-85.333v128zM682.667 149.333h85.333v-128h-85.333v128z" />
<glyph unicode="&#xe906;" glyph-name="artboard-fill" d="M366.336 234.667h-238.336v85.333h768v-85.333h-238.336l138.368-138.368-60.331-60.331-181.035 181.035v-110.336h-85.333v110.336l-181.035-181.035-60.331 60.331 138.368 138.368zM213.333 832h597.333c23.564 0 42.667-19.103 42.667-42.667v0-426.667h-682.667v426.667c0 23.564 19.103 42.667 42.667 42.667v0z" />
<glyph unicode="&#xe907;" glyph-name="artboard-line" d="M366.336 234.667h-238.336v85.333h768v-85.333h-238.336l138.368-138.368-60.331-60.331-181.035 181.035v-110.336h-85.333v110.336l-181.035-181.035-60.331 60.331 138.368 138.368zM213.333 832h597.333c23.564 0 42.667-19.103 42.667-42.667v0-426.667h-682.667v426.667c0 23.564 19.103 42.667 42.667 42.667v0zM256 746.667v-298.667h512v298.667h-512z" />
<glyph unicode="&#xe908;" glyph-name="ball-pen-fill" d="M761.557 456.192l-30.165 30.165-422.4-422.4h-180.992v181.035l482.688 482.731 241.365-241.365c7.718-7.721 12.492-18.386 12.492-30.165s-4.774-22.445-12.492-30.165l-301.653-301.696-60.373 60.331 271.531 271.531zM791.723 848.384l120.704-120.661c7.718-7.721 12.492-18.386 12.492-30.165s-4.774-22.445-12.492-30.165l-60.373-60.373-180.992 181.035 60.331 60.331c7.721 7.718 18.386 12.492 30.165 12.492s22.445-4.774 30.165-12.492v0z" />
<glyph unicode="&#xe909;" glyph-name="ball-pen-line" d="M761.557 456.192l-30.165 30.165-422.4-422.4h-180.992v181.035l482.688 482.731 241.365-241.365c7.718-7.721 12.492-18.386 12.492-30.165s-4.774-22.445-12.492-30.165l-301.653-301.696-60.373 60.331 271.531 271.531zM671.061 546.688l-60.373 60.331-397.355-397.355v-60.373h60.331l397.397 397.397zM791.723 848.384l120.704-120.661c7.718-7.721 12.492-18.386 12.492-30.165s-4.774-22.445-12.492-30.165l-60.373-60.373-180.992 181.035 60.331 60.331c7.721 7.718 18.386 12.492 30.165 12.492s22.445-4.774 30.165-12.492v0z" />
<glyph unicode="&#xe90a;" glyph-name="blur-off-fill" d="M231.765 667.904l-172.331 172.288 60.373 60.373 844.757-844.8-60.373-60.331-129.621 129.707c-68.432-64.052-160.689-103.389-262.132-103.389-212.077 0-384 171.923-384 384 0 101.412 39.312 193.642 103.527 262.283l-0.201-0.217zM351.701 788.053l160.299 160.341 271.531-271.531c69.521-69.508 112.521-165.54 112.521-271.615 0-49.046-9.193-95.945-25.95-139.068l0.895 2.619-519.253 519.253z" />
<glyph unicode="&#xe90b;" glyph-name="blur-off-line" d="M774.571 125.099c-68.555-64.609-161.201-104.315-263.121-104.315-212.077 0-384 171.923-384 384 0 101.92 39.707 194.566 104.494 263.313l-0.179-0.192-172.331 172.288 60.373 60.373 844.757-844.8-60.373-60.331-129.621 129.707zM292.139 607.488c-48.764-52.983-78.658-123.993-78.658-201.985 0-164.949 133.718-298.667 298.667-298.667 78.003 0 149.022 29.903 202.219 78.871l-0.211-0.192-421.973 421.973zM870.997 268.8l-68.224 68.224c5.039 20.529 7.93 44.097 7.93 68.34 0 82.459-33.441 157.108-87.501 211.124l-211.202 211.245-99.968-99.968-60.331 60.288 160.299 160.341 271.531-271.531c69.521-69.508 112.521-165.54 112.521-271.615 0-49.046-9.193-95.945-25.95-139.068l0.895 2.619z" />
<glyph unicode="&#xe90c;" glyph-name="brush-2-fill" d="M705.536 279.467l90.453 90.539-135.723 135.765 150.827 150.827-90.453 90.496-150.869-150.827-135.765 135.765-90.539-90.496 362.069-362.069zM569.771 716.928l120.661 120.704c7.721 7.718 18.386 12.492 30.165 12.492s22.445-4.774 30.165-12.492l150.869-150.869c7.718-7.721 12.492-18.386 12.492-30.165s-4.774-22.445-12.492-30.165l-120.704-120.661 105.6-105.6c7.731-7.723 12.514-18.396 12.514-30.187s-4.782-22.464-12.513-30.186v0l-331.861-331.861c-7.721-7.718-18.386-12.492-30.165-12.492s-22.445 4.774-30.165 12.492l-422.4 422.4c-7.718 7.721-12.492 18.386-12.492 30.165s4.774 22.445 12.492 30.165l331.861 331.861c7.723 7.731 18.396 12.514 30.187 12.514s22.464-4.782 30.186-12.513v0l105.6-105.6z" />
<glyph unicode="&#xe90d;" glyph-name="brush-2-line" d="M705.536 279.467l90.453 90.539-135.723 135.765 150.827 150.827-90.453 90.496-150.869-150.827-135.765 135.765-90.539-90.496 362.069-362.069zM645.163 219.136l-362.027 362.027-120.661-120.661 362.027-362.027 120.661 120.661zM569.771 716.928l120.661 120.704c7.721 7.718 18.386 12.492 30.165 12.492s22.445-4.774 30.165-12.492l150.869-150.869c7.718-7.721 12.492-18.386 12.492-30.165s-4.774-22.445-12.492-30.165l-120.704-120.661 105.6-105.6c7.731-7.723 12.514-18.396 12.514-30.187s-4.782-22.464-12.513-30.186v0l-331.861-331.861c-7.721-7.718-18.386-12.492-30.165-12.492s-22.445 4.774-30.165 12.492l-422.4 422.4c-7.718 7.721-12.492 18.386-12.492 30.165s4.774 22.445 12.492 30.165l331.861 331.861c7.723 7.731 18.396 12.514 30.187 12.514s22.464-4.782 30.186-12.513v0l105.6-105.6z" />
<glyph unicode="&#xe90e;" glyph-name="brush-3-fill" d="M853.333 490.667v128h-256v170.667h-170.667v-170.667h-256v-128h682.667zM896 405.333v-341.333c0-23.564-19.103-42.667-42.667-42.667v0h-426.667v256h-85.333v-256h-170.667c-23.564 0-42.667 19.103-42.667 42.667v0 341.333h-42.667v256c0 23.564 19.103 42.667 42.667 42.667v0h213.333v128c0 23.564 19.103 42.667 42.667 42.667v0h256c23.564 0 42.667-19.103 42.667-42.667v0-128h213.333c23.564 0 42.667-19.103 42.667-42.667v0-256h-42.667z" />
<glyph unicode="&#xe90f;" glyph-name="brush-3-line" d="M341.333 106.667v213.333h85.333v-213.333h384v298.667h-597.333v-298.667h128zM170.667 490.667h682.667v128h-256v170.667h-170.667v-170.667h-256v-128zM128 64v341.333h-42.667v256c0 23.564 19.103 42.667 42.667 42.667v0h213.333v128c0 23.564 19.103 42.667 42.667 42.667v0h256c23.564 0 42.667-19.103 42.667-42.667v0-128h213.333c23.564 0 42.667-19.103 42.667-42.667v0-256h-42.667v-341.333c0-23.564-19.103-42.667-42.667-42.667v0h-682.667c-23.564 0-42.667 19.103-42.667 42.667v0z" />
<glyph unicode="&#xe910;" glyph-name="brush-4-fill" d="M853.333 277.333h-682.667v-85.333h682.667v85.333zM128 362.667v426.667c0 23.564 19.103 42.667 42.667 42.667v0h128v-352.981h85.333v352.981h469.333c23.564 0 42.667-19.103 42.667-42.667v0-426.667h42.667v-213.333c0-23.564-19.103-42.667-42.667-42.667v0h-341.333v-128h-85.333v128h-341.333c-23.564 0-42.667 19.103-42.667 42.667v0 213.333h42.667z" />
<glyph unicode="&#xe911;" glyph-name="brush-4-line" d="M384 746.667v-267.648h-85.333v267.648h-85.333v-384h597.333v384h-426.667zM853.333 277.333h-682.667v-85.333h682.667v85.333zM128 362.667v426.667c0 23.564 19.103 42.667 42.667 42.667v0h682.667c23.564 0 42.667-19.103 42.667-42.667v0-426.667h42.667v-213.333c0-23.564-19.103-42.667-42.667-42.667v0h-341.333v-128h-85.333v128h-341.333c-23.564 0-42.667 19.103-42.667 42.667v0 213.333h42.667z" />
<glyph unicode="&#xe912;" glyph-name="brush-fill" d="M566.997 694.784l210.731 163.883c7.148 5.595 16.268 8.973 26.176 8.973 11.769 0 22.426-4.765 30.145-12.472l127.786-127.743c7.717-7.72 12.49-18.384 12.49-30.163 0-9.919-3.385-19.047-9.062-26.293l0.070 0.093-163.84-210.688c5.851-22.895 9.21-49.178 9.21-76.245 0-176.757-143.215-320.064-319.937-320.213h-0.014c-149.419 0-341.419 64.085-448.085 128.085 169.813 128 130.005 205.227 149.333 277.333 45.141 168.533 206.592 266.965 374.997 225.451zM712.619 614.613c2.773-2.688 5.547-5.461 8.235-8.277l48.427-48.384 105.6 135.765-74.496 74.496-135.765-105.6 48-48z" />
<glyph unicode="&#xe913;" glyph-name="brush-line" d="M659.456 547.072l-6.059 6.059c-27.681 26.719-62.045 46.696-100.334 57.175l-1.639 0.382c-124.032 33.195-243.157-37.077-276.992-163.413-1.835-6.827-2.816-14.507-4.437-33.749-6.571-79.787-25.344-139.307-76.8-199.68 96.427-37.888 210.688-64.597 297.557-64.597 107.947 0.138 198.822 73.075 226.172 172.345l0.388 1.649c5.099 18.248 8.029 39.204 8.029 60.843 0 63.357-25.122 120.847-65.948 163.051l0.062-0.065zM567.040 694.784l210.731 163.883c7.148 5.595 16.268 8.973 26.176 8.973 11.769 0 22.426-4.765 30.145-12.472l127.786-127.743c7.717-7.72 12.49-18.384 12.49-30.163 0-9.919-3.385-19.047-9.062-26.293l0.070 0.093-163.84-210.688c5.851-22.895 9.21-49.178 9.21-76.245 0-176.757-143.215-320.064-319.937-320.213h-0.014c-149.461 0-341.461 64.085-448.128 128.085 169.813 128 130.005 205.227 149.333 277.333 45.141 168.533 206.592 266.965 374.997 225.451zM712.661 614.613c2.773-2.688 5.547-5.461 8.235-8.277l48.427-48.384 105.6 135.765-74.496 74.496-135.765-105.6 48-48z" />
<glyph unicode="&#xe914;" glyph-name="clockwise-2-fill" d="M426.667 789.333v128l213.333-170.667-213.333-170.667v128h-85.333c-70.692 0-128-57.308-128-128v0-170.667h-85.333v170.667c0 117.821 95.513 213.333 213.333 213.333v0h85.333zM384 490.667c0 23.564 19.103 42.667 42.667 42.667v0h426.667c23.564 0 42.667-19.103 42.667-42.667v0-426.667c0-23.564-19.103-42.667-42.667-42.667v0h-426.667c-23.564 0-42.667 19.103-42.667 42.667v0 426.667z" />
<glyph unicode="&#xe915;" glyph-name="clockwise-2-line" d="M451.669 789.333l-78.037 77.995 60.373 60.373 180.992-181.035-180.992-181.035-60.373 60.373 78.037 77.995h-110.336c-70.692 0-128-57.308-128-128v0-170.667h-85.333v170.667c0 117.821 95.513 213.333 213.333 213.333v0h110.336zM384 490.667c0 23.564 19.103 42.667 42.667 42.667v0h426.667c23.564 0 42.667-19.103 42.667-42.667v0-426.667c0-23.564-19.103-42.667-42.667-42.667v0h-426.667c-23.564 0-42.667 19.103-42.667 42.667v0 426.667zM469.333 448v-341.333h341.333v341.333h-341.333z" />
<glyph unicode="&#xe916;" glyph-name="clockwise-fill" d="M853.333 533.333h128l-170.667-213.333-170.667 213.333h128v85.333c0 70.692-57.308 128-128 128v0h-170.667v85.333h170.667c117.821 0 213.333-95.513 213.333-213.333v0-85.333zM554.667 576c23.564 0 42.667-19.103 42.667-42.667v0-426.667c0-23.564-19.103-42.667-42.667-42.667v0h-426.667c-23.564 0-42.667 19.103-42.667 42.667v0 426.667c0 23.564 19.103 42.667 42.667 42.667v0h426.667z" />
<glyph unicode="&#xe917;" glyph-name="clockwise-line" d="M853.333 508.331l77.995 78.037 60.373-60.373-181.035-180.992-181.035 180.992 60.373 60.373 77.995-78.037v110.336c0 70.692-57.308 128-128 128v0h-170.667v85.333h170.667c117.821 0 213.333-95.513 213.333-213.333v0-110.336zM554.667 576c23.564 0 42.667-19.103 42.667-42.667v0-426.667c0-23.564-19.103-42.667-42.667-42.667v0h-426.667c-23.564 0-42.667 19.103-42.667 42.667v0 426.667c0 23.564 19.103 42.667 42.667 42.667v0h426.667zM512 490.667h-341.333v-341.333h341.333v341.333z" />
<glyph unicode="&#xe918;" glyph-name="collage-fill" d="M477.397 398.635l58.923-334.635h-365.653c-23.552 0-42.667 19.115-42.667 42.667v230.315l349.397 61.653zM853.333 832c23.552 0 42.667-19.115 42.667-42.667v-682.667c0-23.552-19.115-42.667-42.667-42.667h-230.315l-135.424 768h365.739zM400.939 832l61.611-349.355-334.549-58.965v365.653c0 23.552 19.115 42.667 42.667 42.667h230.272z" />
<glyph unicode="&#xe919;" glyph-name="collage-line" d="M853.333 832c23.552 0 42.667-19.115 42.667-42.667v-682.667c0-23.552-19.115-42.667-42.667-42.667h-682.667c-23.552 0-42.667 19.115-42.667 42.667v682.667c0 23.552 19.115 42.667 42.667 42.667h682.667zM477.397 398.592l-264.064-46.592v-202.667h307.968l-43.947 249.259zM810.667 746.667h-308.011l105.301-597.333h202.709v597.333zM416 746.667h-202.667v-307.968l249.259 43.947-46.592 264.021z" />
<glyph unicode="&#xe91a;" glyph-name="compasses-2-fill" d="M696.747 384c69.639 55.084 113.92 139.582 113.92 234.422 0 0.086 0 0.172 0 0.257v-0.013h85.333c0-0.082 0-0.18 0-0.277 0-126.272-61.036-238.287-155.214-308.154l-1.032-0.731 107.861-186.795c7.187-12.239 11.432-26.957 11.432-42.666 0-31.418-16.979-58.87-42.261-73.681l-0.403-0.218-150.485 260.608c-45.168-20.275-97.903-32.086-153.395-32.086-0.177 0-0.354 0-0.53 0h0.027c-0.15 0-0.326 0-0.503 0-55.493 0-108.227 11.81-155.826 33.055l2.431-0.969-150.485-260.608c-25.685 15.029-42.664 42.482-42.664 73.899 0 15.709 4.245 30.427 11.65 43.069l-0.218-0.403 216.021 374.187c-31.512 30.998-51.038 74.097-51.038 121.757 0 79.098 53.783 145.635 126.774 165.035l1.192 0.269v90.709h85.333v-90.709c74.183-19.67 127.966-86.206 127.966-165.304 0-47.66-19.526-90.759-51.014-121.734l-0.023-0.023 65.152-112.896zM622.933 341.248l-65.195 112.939c-13.698-3.952-29.431-6.225-45.696-6.225s-31.998 2.273-46.901 6.518l1.205-0.293-65.195-112.939c34.304-13.696 71.68-21.248 110.891-21.248 39.168 0 76.587 7.552 110.891 21.248zM512 576c23.564 0 42.667 19.103 42.667 42.667s-19.103 42.667-42.667 42.667v0c-23.564 0-42.667-19.103-42.667-42.667s19.103-42.667 42.667-42.667v0z" />
<glyph unicode="&#xe91b;" glyph-name="compasses-2-line" d="M696.747 384c69.639 55.084 113.92 139.582 113.92 234.422 0 0.086 0 0.172 0 0.257v-0.013h85.333c0-0.082 0-0.18 0-0.277 0-126.272-61.036-238.287-155.214-308.154l-1.032-0.731 107.861-186.795c7.187-12.239 11.432-26.957 11.432-42.666 0-31.418-16.979-58.87-42.261-73.681l-0.403-0.218-150.485 260.608c-45.168-20.275-97.903-32.086-153.395-32.086-0.177 0-0.354 0-0.53 0h0.027c-0.15 0-0.326 0-0.503 0-55.493 0-108.227 11.81-155.826 33.055l2.431-0.969-150.485-260.608c-25.685 15.029-42.664 42.482-42.664 73.899 0 15.709 4.245 30.427 11.65 43.069l-0.218-0.403 216.021 374.187c-31.512 30.998-51.038 74.097-51.038 121.757 0 79.098 53.783 145.635 126.774 165.035l1.192 0.269v90.709h85.333v-90.709c74.183-19.67 127.966-86.206 127.966-165.304 0-47.66-19.526-90.759-51.014-121.734l-0.023-0.023 65.152-112.896zM622.933 341.248l-65.195 112.939c-13.698-3.952-29.431-6.225-45.696-6.225s-31.998 2.273-46.901 6.518l1.205-0.293-65.195-112.939c34.304-13.696 71.68-21.248 110.891-21.248 39.168 0 76.587 7.552 110.891 21.248zM512 533.333c47.128 0 85.333 38.205 85.333 85.333s-38.205 85.333-85.333 85.333v0c-47.128 0-85.333-38.205-85.333-85.333s38.205-85.333 85.333-85.333v0z" />
<glyph unicode="&#xe91c;" glyph-name="compasses-fill" d="M469.333 783.957v90.709h85.333v-90.709c74.183-19.67 127.966-86.206 127.966-165.304 0-47.66-19.526-90.759-51.014-121.734l-0.023-0.023 258.688-448.085-73.899-42.667-258.688 448.043c-13.698-3.952-29.431-6.225-45.696-6.225s-31.998 2.273-46.901 6.518l1.205-0.293-258.688-448.043-73.899 42.667 258.688 448.085c-31.512 30.998-51.038 74.097-51.038 121.757 0 79.098 53.783 145.635 126.774 165.035l1.192 0.269zM512 576c23.564 0 42.667 19.103 42.667 42.667s-19.103 42.667-42.667 42.667v0c-23.564 0-42.667-19.103-42.667-42.667s19.103-42.667 42.667-42.667v0z" />
<glyph unicode="&#xe91d;" glyph-name="compasses-line" d="M469.333 783.957v90.709h85.333v-90.709c74.183-19.67 127.966-86.206 127.966-165.304 0-47.66-19.526-90.759-51.014-121.734l-0.023-0.023 258.688-448.085-73.899-42.667-258.688 448.043c-13.698-3.952-29.431-6.225-45.696-6.225s-31.998 2.273-46.901 6.518l1.205-0.293-258.688-448.043-73.899 42.667 258.688 448.085c-31.512 30.998-51.038 74.097-51.038 121.757 0 79.098 53.783 145.635 126.774 165.035l1.192 0.269zM512 533.333c47.128 0 85.333 38.205 85.333 85.333s-38.205 85.333-85.333 85.333v0c-47.128 0-85.333-38.205-85.333-85.333s38.205-85.333 85.333-85.333v0z" />
<glyph unicode="&#xe91e;" glyph-name="contrast-2-fill" d="M512 21.333c-235.648 0-426.667 191.019-426.667 426.667s191.019 426.667 426.667 426.667 426.667-191.019 426.667-426.667-191.019-426.667-426.667-426.667zM227.371 259.2c62.112-91.983 165.979-151.663 283.784-151.663 188.513 0 341.333 152.82 341.333 341.333 0 117.816-59.691 221.691-150.48 283.032l-1.208 0.769c9.045-31.053 14.247-66.725 14.247-103.612 0-106.062-43.014-202.078-112.549-271.554l-0.003-0.003c-69.478-69.532-165.49-112.542-271.547-112.542-36.875 0-72.535 5.199-106.288 14.905l2.71-0.667z" />
<glyph unicode="&#xe91f;" glyph-name="contrast-2-line" d="M512 21.333c-235.648 0-426.667 191.019-426.667 426.667s191.019 426.667 426.667 426.667 426.667-191.019 426.667-426.667-191.019-426.667-426.667-426.667zM512 106.667c188.513 0 341.333 152.82 341.333 341.333s-152.82 341.333-341.333 341.333v0c-188.513 0-341.333-152.82-341.333-341.333s152.82-341.333 341.333-341.333v0zM298.667 306.347c95.674 7.072 180.547 48.338 243.489 111.478l0.010 0.010c63.15 62.952 104.416 147.825 111.413 242.235l0.075 1.264c69.167-46.56 114.061-124.561 114.061-213.048 0-141.385-114.615-256-256-256-88.487 0-166.488 44.895-212.469 113.149l-0.579 0.912z" />
<glyph unicode="&#xe920;" glyph-name="contrast-drop-2-fill" d="M240.469 676.864l271.531 271.531 271.531-271.531c69.489-69.49 112.469-165.49 112.469-271.527 0-212.077-171.923-384-384-384s-384 171.923-384 384c0 106.038 42.98 202.037 112.47 271.528v0zM512 827.691l-211.2-211.157c-54.036-53.904-87.467-128.443-87.467-210.79 0-0.144 0-0.289 0-0.433v0.023h597.333c0 0.122 0 0.266 0 0.41 0 82.347-33.431 156.885-87.461 210.784l-211.206 211.206z" />
<glyph unicode="&#xe921;" glyph-name="contrast-drop-2-line" d="M512 827.733l-211.2-211.2c-54.042-54.047-87.467-128.709-87.467-211.178 0-164.949 133.718-298.667 298.667-298.667s298.667 133.718 298.667 298.667c0 82.469-33.425 157.132-87.467 211.179l-211.2 211.2zM512 948.395l271.531-271.531c69.489-69.49 112.469-165.49 112.469-271.527 0-212.077-171.923-384-384-384s-384 171.923-384 384c0 106.038 42.98 202.037 112.47 271.528l271.53 271.53zM298.667 405.333h426.667c0-117.821-95.513-213.333-213.333-213.333s-213.333 95.513-213.333 213.333v0z" />
<glyph unicode="&#xe922;" glyph-name="contrast-drop-fill" d="M240.469 676.864l271.531 271.531 271.531-271.531c69.489-69.49 112.469-165.49 112.469-271.527 0-212.077-171.923-384-384-384s-384 171.923-384 384c0 106.038 42.98 202.037 112.47 271.528v0zM300.8 616.533c-54.055-54.049-87.488-128.72-87.488-211.2 0-164.949 133.718-298.667 298.667-298.667 0.068 0 0.135 0 0.203 0h-0.011l-0.171 721.067-211.2-211.2z" />
<glyph unicode="&#xe923;" glyph-name="contrast-drop-line" d="M512 827.733l-211.2-211.2c-54.042-54.047-87.467-128.709-87.467-211.178 0-164.949 133.718-298.667 298.667-298.667s298.667 133.718 298.667 298.667c0 82.469-33.425 157.132-87.467 211.179l-211.2 211.2zM512 948.395l271.531-271.531c69.489-69.49 112.469-165.49 112.469-271.527 0-212.077-171.923-384-384-384s-384 171.923-384 384c0 106.038 42.98 202.037 112.47 271.528l271.53 271.53zM512 192v426.667c117.821 0 213.333-95.513 213.333-213.333s-95.513-213.333-213.333-213.333v0z" />
<glyph unicode="&#xe924;" glyph-name="contrast-fill" d="M512 21.333c-235.648 0-426.667 191.019-426.667 426.667s191.019 426.667 426.667 426.667 426.667-191.019 426.667-426.667-191.019-426.667-426.667-426.667zM512 106.667v682.667c-188.513 0-341.333-152.82-341.333-341.333s152.82-341.333 341.333-341.333v0z" />
<glyph unicode="&#xe925;" glyph-name="contrast-line" d="M512 21.333c-235.648 0-426.667 191.019-426.667 426.667s191.019 426.667 426.667 426.667 426.667-191.019 426.667-426.667-191.019-426.667-426.667-426.667zM512 106.667c188.513 0 341.333 152.82 341.333 341.333s-152.82 341.333-341.333 341.333v0c-188.513 0-341.333-152.82-341.333-341.333s152.82-341.333 341.333-341.333v0zM512 192v512c141.385 0 256-114.615 256-256s-114.615-256-256-256v0z" />
<glyph unicode="&#xe926;" glyph-name="crop-2-fill" d="M750.336 746.667l109.056 109.056 60.331-60.331-109.056-109.056v-451.669h128v-85.333h-128v-128h-85.333v640h-341.333v85.333h366.336zM640 234.667v-85.333h-384c-23.564 0-42.667 19.103-42.667 42.667v0 469.333h-128v85.333h128v128h85.333v-640h341.333zM384 576h256v-256h-256v256z" />
<glyph unicode="&#xe927;" glyph-name="crop-2-line" d="M358.997 234.667h281.003v-85.333h-384c-23.564 0-42.667 19.103-42.667 42.667v0 469.333h-128v85.333h128v128h85.333v-579.669l366.336 366.336h-281.003v85.333h366.336l109.056 109.056 60.331-60.331-109.056-109.056v-451.669h128v-85.333h-128v-128h-85.333v579.669l-366.336-366.336z" />
<glyph unicode="&#xe928;" glyph-name="crop-fill" d="M810.667 234.667h128v-85.333h-128v-128h-85.333v128h-469.333c-23.564 0-42.667 19.103-42.667 42.667v0 469.333h-128v85.333h128v128h85.333v-128h469.333c23.564 0 42.667-19.103 42.667-42.667v0-469.333z" />
<glyph unicode="&#xe929;" glyph-name="crop-line" d="M640 234.667v-85.333h-384c-23.564 0-42.667 19.103-42.667 42.667v0 469.333h-128v85.333h128v128h85.333v-640h341.333zM725.333 21.333v640h-341.333v85.333h384c23.564 0 42.667-19.103 42.667-42.667v0-469.333h128v-85.333h-128v-128h-85.333z" />
<glyph unicode="&#xe92a;" glyph-name="drag-drop-fill" d="M597.333 704h85.333v-85.333h213.333c23.564 0 42.667-19.103 42.667-42.667v0-320l-256 149.333 1.536-343.979 94.848 91.733 76.032-131.755h-471.083c-23.564 0-42.667 19.103-42.667 42.667v0 213.333h-85.333v85.333h85.333v213.333c0 23.564 19.103 42.667 42.667 42.667v0h213.333v85.333zM938.667 220.245v-156.245c0-0.011 0-0.025 0-0.038 0-4.667-0.749-9.159-2.134-13.362l0.086 0.302-83.627 144.811 85.675 24.533zM170.667 362.667v-85.333h-85.333v85.333h85.333zM170.667 533.333v-85.333h-85.333v85.333h85.333zM170.667 704v-85.333h-85.333v85.333h85.333zM170.667 874.667v-85.333h-85.333v85.333h85.333zM341.333 874.667v-85.333h-85.333v85.333h85.333zM512 874.667v-85.333h-85.333v85.333h85.333zM682.667 874.667v-85.333h-85.333v85.333h85.333z" />
<glyph unicode="&#xe92b;" glyph-name="drag-drop-line" d="M682.667 405.333l297.131-173.312-126.848-36.267 90.667-157.056-73.899-42.667-90.667 157.013-94.848-91.733-1.536 344.021zM597.333 704h85.333v-85.333h213.333c23.564 0 42.667-19.103 42.667-42.667v0-170.667h-85.333v128h-426.667v-426.667h170.667v-85.333h-213.333c-23.564 0-42.667 19.103-42.667 42.667v0 213.333h-85.333v85.333h85.333v213.333c0 23.564 19.103 42.667 42.667 42.667v0h213.333v85.333zM170.667 362.667v-85.333h-85.333v85.333h85.333zM170.667 533.333v-85.333h-85.333v85.333h85.333zM170.667 704v-85.333h-85.333v85.333h85.333zM170.667 874.667v-85.333h-85.333v85.333h85.333zM341.333 874.667v-85.333h-85.333v85.333h85.333zM512 874.667v-85.333h-85.333v85.333h85.333zM682.667 874.667v-85.333h-85.333v85.333h85.333z" />
<glyph unicode="&#xe92c;" glyph-name="drag-move-2-fill" d="M768 490.667v128l170.667-170.667-170.667-170.667v128h-213.333v-213.333h128l-170.667-170.667-170.667 170.667h128v213.333h-213.333v-128l-170.667 170.667 170.667 170.667v-128h213.333v213.333h-128l170.667 170.667 170.667-170.667h-128v-213.333z" />
<glyph unicode="&#xe92d;" glyph-name="drag-move-2-line" d="M469.333 490.667v220.672l-77.995-78.037-60.373 60.331 181.035 181.035 181.035-181.035-60.373-60.331-77.995 78.037v-220.672h220.672l-78.037 77.995 60.331 60.373 181.035-181.035-181.035-181.035-60.331 60.373 78.037 77.995h-220.672v-220.672l77.995 78.037 60.373-60.331-181.035-181.035-181.035 181.035 60.373 60.331 77.995-78.037v220.672h-220.672l78.037-77.995-60.331-60.373-181.035 181.035 181.035 181.035 60.331-60.373-78.037-77.995z" />
<glyph unicode="&#xe92e;" glyph-name="drag-move-fill" d="M512 21.333l-170.667 170.667h341.333l-170.667-170.667zM512 874.667l170.667-170.667h-341.333l170.667 170.667zM512 362.667c-47.128 0-85.333 38.205-85.333 85.333s38.205 85.333 85.333 85.333v0c47.128 0 85.333-38.205 85.333-85.333s-38.205-85.333-85.333-85.333v0zM85.333 448l170.667 170.667v-341.333l-170.667 170.667zM938.667 448l-170.667-170.667v341.333l170.667-170.667z" />
<glyph unicode="&#xe92f;" glyph-name="drag-move-line" d="M512 874.667l181.035-181.035-60.373-60.331-120.661 120.704-120.661-120.704-60.373 60.331 181.035 181.035zM85.333 448l181.035 181.035 60.331-60.373-120.704-120.661 120.704-120.661-60.331-60.373-181.035 181.035zM938.667 448l-181.035-181.035-60.331 60.373 120.704 120.661-120.704 120.661 60.331 60.373 181.035-181.035zM512 362.667c-47.128 0-85.333 38.205-85.333 85.333s38.205 85.333 85.333 85.333v0c47.128 0 85.333-38.205 85.333-85.333s-38.205-85.333-85.333-85.333v0zM512 21.333l-181.035 181.035 60.373 60.331 120.661-120.704 120.661 120.704 60.373-60.331-181.035-181.035z" />
<glyph unicode="&#xe930;" glyph-name="drop-fill" d="M240.469 676.864l271.531 271.531 271.531-271.531c69.489-69.49 112.469-165.49 112.469-271.527 0-212.077-171.923-384-384-384s-384 171.923-384 384c0 106.038 42.98 202.037 112.47 271.528v0z" />
<glyph unicode="&#xe931;" glyph-name="drop-line" d="M512 827.733l-211.2-211.2c-54.042-54.047-87.467-128.709-87.467-211.178 0-164.949 133.718-298.667 298.667-298.667s298.667 133.718 298.667 298.667c0 82.469-33.425 157.132-87.467 211.179l-211.2 211.2zM512 948.395l271.531-271.531c69.489-69.49 112.469-165.49 112.469-271.527 0-212.077-171.923-384-384-384s-384 171.923-384 384c0 106.038 42.98 202.037 112.47 271.528l271.53 271.53z" />
<glyph unicode="&#xe932;" glyph-name="edit-2-fill" d="M394.368 149.333h501.632v-85.333h-768v181.035l422.4 422.4 180.992-181.077-337.067-337.024zM610.688 727.723l90.539 90.539c7.721 7.718 18.386 12.492 30.165 12.492s22.445-4.774 30.165-12.492l120.704-120.704c7.718-7.721 12.492-18.386 12.492-30.165s-4.774-22.445-12.492-30.165l-90.539-90.496-180.992 180.992z" />
<glyph unicode="&#xe933;" glyph-name="edit-2-line" d="M213.333 149.333h60.331l397.397 397.397-60.331 60.331-397.397-397.397v-60.331zM896 64h-768v181.035l573.227 573.227c7.721 7.718 18.386 12.492 30.165 12.492s22.445-4.774 30.165-12.492l120.704-120.704c7.718-7.721 12.492-18.386 12.492-30.165s-4.774-22.445-12.492-30.165l-487.893-487.893h501.632v-85.333zM671.061 667.392l60.331-60.331 60.331 60.331-60.331 60.331-60.331-60.331z" />
<glyph unicode="&#xe934;" glyph-name="edit-box-fill" d="M714.965 832l-318.549-318.549 0.341-181.205 180.821 0.299 318.421 318.421v-544.299c0-23.564-19.103-42.667-42.667-42.667v0h-682.667c-23.564 0-42.667 19.103-42.667 42.667v0 682.667c0 23.564 19.103 42.667 42.667 42.667v0h544.299zM874.027 870.4l60.373-60.416-392.192-392.192-60.245-0.128-0.085 60.459 392.149 392.277z" />
<glyph unicode="&#xe935;" glyph-name="edit-box-line" d="M714.965 832l-85.333-85.333h-416.299v-597.333h597.333v416.299l85.333 85.333v-544.299c0-23.564-19.103-42.667-42.667-42.667v0h-682.667c-23.564 0-42.667 19.103-42.667 42.667v0 682.667c0 23.564 19.103 42.667 42.667 42.667v0h544.299zM874.027 870.4l60.373-60.416-392.192-392.192-60.245-0.128-0.085 60.459 392.149 392.277z" />
<glyph unicode="&#xe936;" glyph-name="edit-circle-fill" d="M709.376 826.368l-313.003-312.917 0.341-181.205 180.821 0.299 312.789 312.832c30.455-57.094 48.342-124.867 48.342-196.818 0-0.196 0-0.393 0-0.589v0.031c0-235.648-191.019-426.667-426.667-426.667s-426.667 191.019-426.667 426.667 191.019 426.667 426.667 426.667c71.211 0 138.325-17.451 197.376-48.299zM874.069 870.357l60.288-60.331-392.192-392.192-60.245-0.128-0.085 60.459 392.192 392.235z" />
<glyph unicode="&#xe937;" glyph-name="edit-circle-line" d="M541.184 788.096c-8.74 0.795-18.903 1.249-29.172 1.249-188.513 0-341.333-152.82-341.333-341.333s152.82-341.333 341.333-341.333c188.513 0 341.333 152.82 341.333 341.333 0 10.27-0.454 20.433-1.342 30.472l0.093-1.3c-3.275 38.299-12.425 73.633-26.573 106.298l0.845-2.192 64 64.085c30.428-56.993 48.3-124.652 48.3-196.486 0-0.313 0-0.626-0.001-0.939v0.049c0-235.648-191.019-426.667-426.667-426.667s-426.667 191.019-426.667 426.667 191.019 426.667 426.667 426.667c0.112 0 0.245 0 0.378 0 72.007 0 139.839-17.87 199.306-49.416l-2.308 1.117-64.043-64c-30.473 13.299-65.806 22.449-102.843 25.64l-1.264 0.088zM874.027 870.4l60.373-60.373-392.192-392.192-60.245-0.128-0.085 60.459 392.149 392.235z" />
<glyph unicode="&#xe938;" glyph-name="edit-fill" d="M309.035 192h-181.035v181.035l487.893 487.893c7.721 7.718 18.386 12.492 30.165 12.492s22.445-4.774 30.165-12.492l120.704-120.704c7.718-7.721 12.492-18.386 12.492-30.165s-4.774-22.445-12.492-30.165l-487.893-487.893zM128 106.667h768v-85.333h-768v85.333z" />
<glyph unicode="&#xe939;" glyph-name="edit-line" d="M273.664 277.333l432.725 432.725-60.331 60.331-432.725-432.725v-60.331h60.331zM309.035 192h-181.035v181.035l487.893 487.893c7.721 7.718 18.386 12.492 30.165 12.492s22.445-4.774 30.165-12.492l120.704-120.704c7.718-7.721 12.492-18.386 12.492-30.165s-4.774-22.445-12.492-30.165l-487.893-487.893zM128 106.667h768v-85.333h-768v85.333z" />
<glyph unicode="&#xe93a;" glyph-name="eraser-fill" d="M597.333 149.333h298.667v-85.333l-554.581-0.085-276.779 276.779c-7.718 7.721-12.492 18.386-12.492 30.165s4.774 22.445 12.492 30.165l452.48 452.565c7.723 7.731 18.396 12.514 30.187 12.514s22.464-4.782 30.186-12.513v0l331.861-331.861c7.718-7.721 12.492-18.386 12.492-30.165s-4.774-22.445-12.492-30.165l-312.021-312.064zM668.032 340.693l150.827 150.869-271.531 271.531-150.827-150.869 271.531-271.531z" />
<glyph unicode="&#xe93b;" glyph-name="eraser-line" d="M366.336 582.059l-211.2-211.2 221.611-221.611h49.92v0.085h50.005l161.195 161.195-271.531 271.531zM426.667 642.389l271.531-271.531 120.661 120.704-271.531 271.531-120.661-120.704zM597.333 149.333h298.667v-85.333l-554.581-0.085-276.779 276.779c-7.718 7.721-12.492 18.386-12.492 30.165s4.774 22.445 12.492 30.165l452.48 452.565c7.723 7.731 18.396 12.514 30.187 12.514s22.464-4.782 30.186-12.513v0l331.861-331.861c7.718-7.721 12.492-18.386 12.492-30.165s-4.774-22.445-12.492-30.165l-312.021-312.064z" />
<glyph unicode="&#xe93c;" glyph-name="focus-2-fill" d="M512 874.667c235.52 0 426.667-191.147 426.667-426.667s-191.147-426.667-426.667-426.667-426.667 191.147-426.667 426.667 191.147 426.667 426.667 426.667zM512 106.667c188.885 0 341.333 152.448 341.333 341.333s-152.448 341.333-341.333 341.333c-0.127 0-0.277 0-0.427 0-188.278 0-340.907-152.629-340.907-340.907 0-0.15 0-0.3 0-0.45v0.023c0-188.885 152.448-341.333 341.333-341.333zM512 192c-141.653 0-256 114.347-256 256s114.347 256 256 256 256-114.347 256-256-114.347-256-256-256zM512 533.333c-46.933 0-85.333-38.4-85.333-85.333s38.4-85.333 85.333-85.333 85.333 38.4 85.333 85.333-38.4 85.333-85.333 85.333z" />
<glyph unicode="&#xe93d;" glyph-name="focus-2-line" d="M512 106.667c188.513 0 341.333 152.82 341.333 341.333s-152.82 341.333-341.333 341.333v0c-188.513 0-341.333-152.82-341.333-341.333s152.82-341.333 341.333-341.333v0zM512 21.333c-235.648 0-426.667 191.019-426.667 426.667s191.019 426.667 426.667 426.667 426.667-191.019 426.667-426.667-191.019-426.667-426.667-426.667zM512 277.333c94.257 0 170.667 76.41 170.667 170.667s-76.41 170.667-170.667 170.667v0c-94.257 0-170.667-76.41-170.667-170.667s76.41-170.667 170.667-170.667v0zM512 192c-141.385 0-256 114.615-256 256s114.615 256 256 256v0c141.385 0 256-114.615 256-256s-114.615-256-256-256v0zM512 362.667c-47.128 0-85.333 38.205-85.333 85.333s38.205 85.333 85.333 85.333v0c47.128 0 85.333-38.205 85.333-85.333s-38.205-85.333-85.333-85.333v0z" />
<glyph unicode="&#xe93e;" glyph-name="focus-3-fill" d="M554.667 917.333l0.043-130.645c154.709-20.116 275.885-141.306 295.796-294.303l0.183-1.718h130.645v-85.333l-130.645-0.043c-20.112-154.697-141.281-275.867-294.26-295.796l-1.719-0.183-0.043-130.645h-85.333v130.645c-154.715 20.094-275.905 141.269-295.838 294.26l-0.183 1.719-130.645 0.043v85.333h130.645c20.098 154.728 141.294 275.923 294.303 295.839l1.718 0.183v130.645h85.333zM512 533.333c-47.128 0-85.333-38.205-85.333-85.333s38.205-85.333 85.333-85.333v0c47.128 0 85.333 38.205 85.333 85.333s-38.205 85.333-85.333 85.333v0z" />
<glyph unicode="&#xe93f;" glyph-name="focus-3-line" d="M554.667 917.333l0.043-130.645c154.709-20.116 275.885-141.306 295.796-294.303l0.183-1.718h130.645v-85.333l-130.645-0.043c-20.112-154.697-141.281-275.867-294.26-295.796l-1.719-0.183-0.043-130.645h-85.333v130.645c-154.715 20.094-275.905 141.269-295.838 294.26l-0.183 1.719-130.645 0.043v85.333h130.645c20.098 154.728 141.294 275.923 294.303 295.839l1.718 0.183v130.645h85.333zM512 704c-141.385 0-256-114.615-256-256s114.615-256 256-256v0c141.385 0 256 114.615 256 256s-114.615 256-256 256v0zM512 533.333c47.128 0 85.333-38.205 85.333-85.333s-38.205-85.333-85.333-85.333v0c-47.128 0-85.333 38.205-85.333 85.333s38.205 85.333 85.333 85.333v0z" />
<glyph unicode="&#xe940;" glyph-name="focus-fill" d="M512 874.667c235.52 0 426.667-191.147 426.667-426.667s-191.147-426.667-426.667-426.667-426.667 191.147-426.667 426.667 191.147 426.667 426.667 426.667zM512 533.333c-46.933 0-85.333-38.4-85.333-85.333s38.4-85.333 85.333-85.333 85.333 38.4 85.333 85.333-38.4 85.333-85.333 85.333z" />
<glyph unicode="&#xe941;" glyph-name="focus-line" d="M512 106.667c188.513 0 341.333 152.82 341.333 341.333s-152.82 341.333-341.333 341.333v0c-188.513 0-341.333-152.82-341.333-341.333s152.82-341.333 341.333-341.333v0zM512 21.333c-235.648 0-426.667 191.019-426.667 426.667s191.019 426.667 426.667 426.667 426.667-191.019 426.667-426.667-191.019-426.667-426.667-426.667zM512 362.667c-47.128 0-85.333 38.205-85.333 85.333s38.205 85.333 85.333 85.333v0c47.128 0 85.333-38.205 85.333-85.333s-38.205-85.333-85.333-85.333v0z" />
<glyph unicode="&#xe942;" glyph-name="grid-fill" d="M597.333 533.333v-170.667h-170.667v170.667h170.667zM682.667 533.333h213.333v-170.667h-213.333v170.667zM597.333 64h-170.667v213.333h170.667v-213.333zM682.667 64v213.333h213.333v-170.667c0-23.564-19.103-42.667-42.667-42.667v0h-170.667zM597.333 832v-213.333h-170.667v213.333h170.667zM682.667 832h170.667c23.564 0 42.667-19.103 42.667-42.667v0-170.667h-213.333v213.333zM341.333 533.333v-170.667h-213.333v170.667h213.333zM341.333 64h-170.667c-23.564 0-42.667 19.103-42.667 42.667v0 170.667h213.333v-213.333zM341.333 832v-213.333h-213.333v170.667c0 23.564 19.103 42.667 42.667 42.667v0h170.667z" />
<glyph unicode="&#xe943;" glyph-name="grid-line" d="M597.333 533.333h-170.667v-170.667h170.667v170.667zM682.667 533.333v-170.667h128v170.667h-128zM597.333 149.333v128h-170.667v-128h170.667zM682.667 149.333h128v128h-128v-128zM597.333 746.667h-170.667v-128h170.667v128zM682.667 746.667v-128h128v128h-128zM341.333 533.333h-128v-170.667h128v170.667zM341.333 149.333v128h-128v-128h128zM341.333 746.667h-128v-128h128v128zM170.667 832h682.667c23.564 0 42.667-19.103 42.667-42.667v0-682.667c0-23.564-19.103-42.667-42.667-42.667v0h-682.667c-23.564 0-42.667 19.103-42.667 42.667v0 682.667c0 23.564 19.103 42.667 42.667 42.667v0z" />
<glyph unicode="&#xe944;" glyph-name="hammer-fill" d="M725.333 618.667v256h128c23.564 0 42.667-19.103 42.667-42.667v0-170.667c0-23.564-19.103-42.667-42.667-42.667v0h-128zM640 21.333c0-23.564-19.103-42.667-42.667-42.667v0h-170.667c-23.564 0-42.667 19.103-42.667 42.667v0 597.333h-277.333v82.176c0.011 15.628 8.424 29.29 20.965 36.713l0.198 0.108 234.837 137.003h277.333v-853.333z" />
<glyph unicode="&#xe945;" glyph-name="hammer-line" d="M853.333 874.667c23.564 0 42.667-19.103 42.667-42.667v0-213.333c0-23.564-19.103-42.667-42.667-42.667v0h-213.333v-554.667c0-23.564-19.103-42.667-42.667-42.667v0h-170.667c-23.564 0-42.667 19.103-42.667 42.667v0 554.667h-234.667c-23.564 0-42.667 19.103-42.667 42.667v0 101.632c0.009 16.603 9.501 30.988 23.352 38.032l0.243 0.112 232.405 116.224h490.667zM640 789.333h-257.195l-190.805-95.403v-32.597h277.333v-597.333h85.333v597.333h85.333v128zM810.667 789.333h-85.333v-128h85.333v128z" />
<glyph unicode="&#xe946;" glyph-name="ink-bottle-fill" d="M682.667 576l186.496-74.624c16.213-6.443 26.837-22.187 26.837-39.595v-397.781c0-23.552-19.115-42.667-42.667-42.667h-682.667c-23.552 0-42.667 19.115-42.667 42.667v397.781c0 17.451 10.624 33.152 26.837 39.595l186.496 74.624h341.333zM853.333 362.667h-512v-213.333h512v213.333zM682.667 832c23.552 0 42.667-19.115 42.667-42.667v-170.667h-426.667v170.667c0 23.552 19.115 42.667 42.667 42.667h341.333z" />
<glyph unicode="&#xe947;" glyph-name="ink-bottle-line" d="M682.667 576l186.496-74.624c16.213-6.443 26.837-22.187 26.837-39.595v-397.781c0-23.552-19.115-42.667-42.667-42.667h-682.667c-23.552 0-42.667 19.115-42.667 42.667v397.781c0 17.451 10.624 33.152 26.837 39.595l186.496 74.624h341.333zM666.24 490.667h-308.48l-144.427-57.771v-326.229h597.333v42.667h-469.333v213.333h469.333v70.229l-144.427 57.771zM682.667 832c23.552 0 42.667-19.115 42.667-42.667v-170.667h-426.667v170.667c0 23.552 19.115 42.667 42.667 42.667h341.333zM640 746.667h-256v-42.667h256v42.667z" />
<glyph unicode="&#xe948;" glyph-name="input-method-fill" d="M170.667 832h682.667c23.564 0 42.667-19.103 42.667-42.667v0-682.667c0-23.564-19.103-42.667-42.667-42.667v0h-682.667c-23.564 0-42.667 19.103-42.667 42.667v0 682.667c0 23.564 19.103 42.667 42.667 42.667v0zM421.077 320h181.845l34.987-85.333h94.549l-177.792 426.667h-85.333l-177.792-426.667h94.592l34.987 85.333zM456.064 405.333l55.936 136.533 55.936-136.533h-111.829z" />
<glyph unicode="&#xe949;" glyph-name="input-method-line" d="M213.333 746.667v-597.333h597.333v597.333h-597.333zM170.667 832h682.667c23.564 0 42.667-19.103 42.667-42.667v0-682.667c0-23.564-19.103-42.667-42.667-42.667v0h-682.667c-23.564 0-42.667 19.103-42.667 42.667v0 682.667c0 23.564 19.103 42.667 42.667 42.667v0zM421.077 320l-34.987-85.333h-94.549l177.792 426.667h85.333l177.792-426.667h-94.592l-34.987 85.333h-181.76zM456.064 405.333h111.872l-55.936 136.533-55.936-136.533z" />
<glyph unicode="&#xe94a;" glyph-name="layout-2-fill" d="M469.333 832v-768h-298.667c-23.564 0-42.667 19.103-42.667 42.667v0 682.667c0 23.564 19.103 42.667 42.667 42.667v0h298.667zM896 405.333v-298.667c0-23.564-19.103-42.667-42.667-42.667v0h-298.667v341.333h341.333zM853.333 832c23.564 0 42.667-19.103 42.667-42.667v0-298.667h-341.333v341.333h298.667z" />
<glyph unicode="&#xe94b;" glyph-name="layout-2-line" d="M896 106.667c0-23.564-19.103-42.667-42.667-42.667v0h-682.667c-23.564 0-42.667 19.103-42.667 42.667v0 682.667c0 23.564 19.103 42.667 42.667 42.667v0h682.667c23.564 0 42.667-19.103 42.667-42.667v0-682.667zM469.333 746.667h-256v-597.333h256v597.333zM810.667 405.333h-256v-256h256v256zM810.667 746.667h-256v-256h256v256z" />
<glyph unicode="&#xe94c;" glyph-name="layout-3-fill" d="M341.333 533.333v-469.333h-170.667c-23.564 0-42.667 19.103-42.667 42.667v0 426.667h213.333zM896 533.333v-426.667c0-23.564-19.103-42.667-42.667-42.667v0h-426.667v469.333h469.333zM853.333 832c23.564 0 42.667-19.103 42.667-42.667v0-170.667h-768v170.667c0 23.564 19.103 42.667 42.667 42.667v0h682.667z" />
<glyph unicode="&#xe94d;" glyph-name="layout-3-line" d="M170.667 64c-23.564 0-42.667 19.103-42.667 42.667v0 682.667c0 23.564 19.103 42.667 42.667 42.667v0h682.667c23.564 0 42.667-19.103 42.667-42.667v0-682.667c0-23.564-19.103-42.667-42.667-42.667v0h-682.667zM341.333 533.333h-128v-384h128v384zM810.667 533.333h-384v-384h384v384zM810.667 746.667h-597.333v-128h597.333v128z" />
<glyph unicode="&#xe94e;" glyph-name="layout-4-fill" d="M469.333 405.333v-341.333h-298.667c-23.564 0-42.667 19.103-42.667 42.667v0 298.667h341.333zM554.667 832h298.667c23.564 0 42.667-19.103 42.667-42.667v0-682.667c0-23.564-19.103-42.667-42.667-42.667v0h-298.667v768zM128 789.333c0 23.564 19.103 42.667 42.667 42.667v0h298.667v-341.333h-341.333v298.667z" />
<glyph unicode="&#xe94f;" glyph-name="layout-4-line" d="M853.333 832c23.564 0 42.667-19.103 42.667-42.667v0-682.667c0-23.564-19.103-42.667-42.667-42.667v0h-682.667c-23.564 0-42.667 19.103-42.667 42.667v0 682.667c0 23.564 19.103 42.667 42.667 42.667v0h682.667zM469.333 405.333h-256v-256h256v256zM554.667 149.333h256v597.333h-256v-597.333zM469.333 746.667h-256v-256h256v256z" />
<glyph unicode="&#xe950;" glyph-name="layout-5-fill" d="M298.667 533.333v-469.333h-170.667c-23.564 0-42.667 19.103-42.667 42.667v0 426.667h213.333zM938.667 533.333v-426.667c0-23.564-19.103-42.667-42.667-42.667v0h-512v469.333h554.667zM896 832c23.564 0 42.667-19.103 42.667-42.667v0-170.667h-853.333v170.667c0 23.564 19.103 42.667 42.667 42.667v0h768z" />
<glyph unicode="&#xe951;" glyph-name="layout-5-line" d="M128 64c-23.564 0-42.667 19.103-42.667 42.667v0 682.667c0 23.564 19.103 42.667 42.667 42.667v0h768c23.564 0 42.667-19.103 42.667-42.667v0-682.667c0-23.564-19.103-42.667-42.667-42.667v0h-768zM298.667 533.333h-128v-384h128v384zM853.333 533.333h-469.333v-384h469.333v384zM853.333 746.667h-682.667v-128h682.667v128z" />
<glyph unicode="&#xe952;" glyph-name="layout-6-fill" d="M640 533.333v-469.333h-512c-23.564 0-42.667 19.103-42.667 42.667v0 426.667h554.667zM938.667 533.333v-426.667c0-23.564-19.103-42.667-42.667-42.667v0h-170.667v469.333h213.333zM896 832c23.564 0 42.667-19.103 42.667-42.667v0-170.667h-853.333v170.667c0 23.564 19.103 42.667 42.667 42.667v0h768z" />
<glyph unicode="&#xe953;" glyph-name="layout-6-line" d="M128 64c-23.564 0-42.667 19.103-42.667 42.667v0 682.667c0 23.564 19.103 42.667 42.667 42.667v0h768c23.564 0 42.667-19.103 42.667-42.667v0-682.667c0-23.564-19.103-42.667-42.667-42.667v0h-768zM640 533.333h-469.333v-384h469.333v384zM853.333 533.333h-128v-384h128v384zM853.333 746.667h-682.667v-128h682.667v128z" />
<glyph unicode="&#xe954;" glyph-name="layout-bottom-2-fill" d="M896 832c23.564 0 42.667-19.103 42.667-42.667v0-682.667c0-23.564-19.103-42.667-42.667-42.667v0h-768c-23.564 0-42.667 19.103-42.667 42.667v0 682.667c0 23.564 19.103 42.667 42.667 42.667v0h768zM810.667 277.333h-597.333v-85.333h597.333v85.333z" />
<glyph unicode="&#xe955;" glyph-name="layout-bottom-2-line" d="M896 832c23.564 0 42.667-19.103 42.667-42.667v0-682.667c0-23.564-19.103-42.667-42.667-42.667v0h-768c-23.564 0-42.667 19.103-42.667 42.667v0 682.667c0 23.564 19.103 42.667 42.667 42.667v0h768zM853.333 746.667h-682.667v-597.333h682.667v597.333zM768 320v-85.333h-512v85.333h512z" />
<glyph unicode="&#xe956;" glyph-name="layout-bottom-fill" d="M938.667 277.333v-170.667c0-23.564-19.103-42.667-42.667-42.667v0h-768c-23.564 0-42.667 19.103-42.667 42.667v0 170.667h853.333zM896 832c23.564 0 42.667-19.103 42.667-42.667v0-426.667h-853.333v426.667c0 23.564 19.103 42.667 42.667 42.667v0h768z" />
<glyph unicode="&#xe957;" glyph-name="layout-bottom-line" d="M896 832c23.564 0 42.667-19.103 42.667-42.667v0-682.667c0-23.564-19.103-42.667-42.667-42.667v0h-768c-23.564 0-42.667 19.103-42.667 42.667v0 682.667c0 23.564 19.103 42.667 42.667 42.667v0h768zM170.667 277.333v-128h682.667v128h-682.667zM170.667 362.667h682.667v384h-682.667v-384z" />
<glyph unicode="&#xe958;" glyph-name="layout-column-fill" d="M512 746.667v-597.333h298.667v597.333h-298.667zM170.667 832h682.667c23.564 0 42.667-19.103 42.667-42.667v0-682.667c0-23.564-19.103-42.667-42.667-42.667v0h-682.667c-23.564 0-42.667 19.103-42.667 42.667v0 682.667c0 23.564 19.103 42.667 42.667 42.667v0z" />
<glyph unicode="&#xe959;" glyph-name="layout-column-line" d="M469.333 746.667h-256v-597.333h256v597.333zM554.667 746.667v-597.333h256v597.333h-256zM170.667 832h682.667c23.564 0 42.667-19.103 42.667-42.667v0-682.667c0-23.564-19.103-42.667-42.667-42.667v0h-682.667c-23.564 0-42.667 19.103-42.667 42.667v0 682.667c0 23.564 19.103 42.667 42.667 42.667v0z" />
<glyph unicode="&#xe95a;" glyph-name="layout-fill" d="M682.667 64v469.333h213.333v-426.667c0-23.564-19.103-42.667-42.667-42.667v0h-170.667zM597.333 64h-426.667c-23.564 0-42.667 19.103-42.667 42.667v0 426.667h469.333v-469.333zM896 618.667h-768v170.667c0 23.564 19.103 42.667 42.667 42.667v0h682.667c23.564 0 42.667-19.103 42.667-42.667v0-170.667z" />
<glyph unicode="&#xe95b;" glyph-name="layout-grid-fill" d="M938.667 405.376v-298.709c0-23.564-19.103-42.667-42.667-42.667v0h-341.333v341.376h384zM469.333 405.376v-341.376h-341.333c-23.564 0-42.667 19.103-42.667 42.667v0 298.709h384zM469.333 832v-341.291h-384v298.624c0 23.564 19.103 42.667 42.667 42.667v0h341.333zM896 832c23.564 0 42.667-19.103 42.667-42.667v0-298.624h-384v341.291h341.333z" />
<glyph unicode="&#xe95c;" glyph-name="layout-grid-line" d="M896 832c23.564 0 42.667-19.103 42.667-42.667v0-682.667c0-23.564-19.103-42.667-42.667-42.667v0h-768c-23.564 0-42.667 19.103-42.667 42.667v0 682.667c0 23.564 19.103 42.667 42.667 42.667v0h768zM469.333 405.333h-298.667v-256h298.667v256zM853.333 405.333h-298.667v-256h298.667v256zM469.333 746.667h-298.667v-256h298.667v256zM853.333 746.667h-298.667v-256h298.667v256z" />
<glyph unicode="&#xe95d;" glyph-name="layout-left-2-fill" d="M896 832c23.564 0 42.667-19.103 42.667-42.667v0-682.667c0-23.564-19.103-42.667-42.667-42.667v0h-768c-23.564 0-42.667 19.103-42.667 42.667v0 682.667c0 23.564 19.103 42.667 42.667 42.667v0h768zM298.667 704h-85.333v-512h85.333v512z" />
<glyph unicode="&#xe95e;" glyph-name="layout-left-2-line" d="M896 832c23.564 0 42.667-19.103 42.667-42.667v0-682.667c0-23.564-19.103-42.667-42.667-42.667v0h-768c-23.564 0-42.667 19.103-42.667 42.667v0 682.667c0 23.564 19.103 42.667 42.667 42.667v0h768zM853.333 746.667h-682.667v-597.333h682.667v597.333zM341.333 661.333v-426.667h-85.333v426.667h85.333z" />
<glyph unicode="&#xe95f;" glyph-name="layout-left-fill" d="M896 832c23.564 0 42.667-19.103 42.667-42.667v0-682.667c0-23.564-19.103-42.667-42.667-42.667v0h-512v768h512zM298.667 64h-170.667c-23.564 0-42.667 19.103-42.667 42.667v0 682.667c0 23.564 19.103 42.667 42.667 42.667v0h170.667v-768z" />
<glyph unicode="&#xe960;" glyph-name="layout-left-line" d="M896 832c23.564 0 42.667-19.103 42.667-42.667v0-682.667c0-23.564-19.103-42.667-42.667-42.667v0h-768c-23.564 0-42.667 19.103-42.667 42.667v0 682.667c0 23.564 19.103 42.667 42.667 42.667v0h768zM298.667 746.667h-128v-597.333h128v597.333zM853.333 746.667h-469.333v-597.333h469.333v597.333z" />
<glyph unicode="&#xe961;" glyph-name="layout-line" d="M213.333 618.667h597.333v128h-597.333v-128zM597.333 149.333v384h-384v-384h384zM682.667 149.333h128v384h-128v-384zM170.667 832h682.667c23.564 0 42.667-19.103 42.667-42.667v0-682.667c0-23.564-19.103-42.667-42.667-42.667v0h-682.667c-23.564 0-42.667 19.103-42.667 42.667v0 682.667c0 23.564 19.103 42.667 42.667 42.667v0z" />
<glyph unicode="&#xe962;" glyph-name="layout-masonry-fill" d="M938.667 533.376v-426.709c0-23.564-19.103-42.667-42.667-42.667v0h-341.333v469.376h384zM469.333 277.376v-213.376h-341.333c-23.564 0-42.667 19.103-42.667 42.667v0 170.709h384zM469.333 832v-469.291h-384v426.624c0 23.564 19.103 42.667 42.667 42.667v0h341.333zM896 832c23.564 0 42.667-19.103 42.667-42.667v0-170.624h-384v213.291h341.333z" />
<glyph unicode="&#xe963;" glyph-name="layout-masonry-line" d="M938.667 106.667c0-23.564-19.103-42.667-42.667-42.667v0h-768c-23.564 0-42.667 19.103-42.667 42.667v0 682.667c0 23.564 19.103 42.667 42.667 42.667v0h768c23.564 0 42.667-19.103 42.667-42.667v0-682.667zM469.333 320h-298.667v-170.667h298.667v170.667zM853.333 490.667h-298.667v-341.333h298.667v341.333zM469.333 746.667h-298.667v-341.333h298.667v341.333zM853.333 746.667h-298.667v-170.667h298.667v170.667z" />
<glyph unicode="&#xe964;" glyph-name="layout-right-2-fill" d="M896 832c23.564 0 42.667-19.103 42.667-42.667v0-682.667c0-23.564-19.103-42.667-42.667-42.667v0h-768c-23.564 0-42.667 19.103-42.667 42.667v0 682.667c0 23.564 19.103 42.667 42.667 42.667v0h768zM810.667 704h-85.333v-512h85.333v512z" />
<glyph unicode="&#xe965;" glyph-name="layout-right-2-line" d="M896 832c23.564 0 42.667-19.103 42.667-42.667v0-682.667c0-23.564-19.103-42.667-42.667-42.667v0h-768c-23.564 0-42.667 19.103-42.667 42.667v0 682.667c0 23.564 19.103 42.667 42.667 42.667v0h768zM853.333 746.667h-682.667v-597.333h682.667v597.333zM768 661.333v-426.667h-85.333v426.667h85.333z" />
<glyph unicode="&#xe966;" glyph-name="layout-right-fill" d="M896 832c23.564 0 42.667-19.103 42.667-42.667v0-682.667c0-23.564-19.103-42.667-42.667-42.667v0h-170.667v768h170.667zM640 64h-512c-23.564 0-42.667 19.103-42.667 42.667v0 682.667c0 23.564 19.103 42.667 42.667 42.667v0h512v-768z" />
<glyph unicode="&#xe967;" glyph-name="layout-right-line" d="M896 832c23.564 0 42.667-19.103 42.667-42.667v0-682.667c0-23.564-19.103-42.667-42.667-42.667v0h-768c-23.564 0-42.667 19.103-42.667 42.667v0 682.667c0 23.564 19.103 42.667 42.667 42.667v0h768zM640 746.667h-469.333v-597.333h469.333v597.333zM853.333 746.667h-128v-597.333h128v597.333z" />
<glyph unicode="&#xe968;" glyph-name="layout-row-fill" d="M810.667 448h-597.333v-298.667h597.333v298.667zM170.667 832h682.667c23.564 0 42.667-19.103 42.667-42.667v0-682.667c0-23.564-19.103-42.667-42.667-42.667v0h-682.667c-23.564 0-42.667 19.103-42.667 42.667v0 682.667c0 23.564 19.103 42.667 42.667 42.667v0z" />
<glyph unicode="&#xe969;" glyph-name="layout-row-line" d="M810.667 490.667v256h-597.333v-256h597.333zM810.667 405.333h-597.333v-256h597.333v256zM170.667 832h682.667c23.564 0 42.667-19.103 42.667-42.667v0-682.667c0-23.564-19.103-42.667-42.667-42.667v0h-682.667c-23.564 0-42.667 19.103-42.667 42.667v0 682.667c0 23.564 19.103 42.667 42.667 42.667v0z" />
<glyph unicode="&#xe96a;" glyph-name="layout-top-2-fill" d="M896 832c23.564 0 42.667-19.103 42.667-42.667v0-682.667c0-23.564-19.103-42.667-42.667-42.667v0h-768c-23.564 0-42.667 19.103-42.667 42.667v0 682.667c0 23.564 19.103 42.667 42.667 42.667v0h768zM810.667 704h-597.333v-85.333h597.333v85.333z" />
<glyph unicode="&#xe96b;" glyph-name="layout-top-2-line" d="M896 832c23.564 0 42.667-19.103 42.667-42.667v0-682.667c0-23.564-19.103-42.667-42.667-42.667v0h-768c-23.564 0-42.667 19.103-42.667 42.667v0 682.667c0 23.564 19.103 42.667 42.667 42.667v0h768zM853.333 746.667h-682.667v-597.333h682.667v597.333zM768 661.333v-85.333h-512v85.333h512z" />
<glyph unicode="&#xe96c;" glyph-name="layout-top-fill" d="M938.667 533.333v-426.667c0-23.564-19.103-42.667-42.667-42.667v0h-768c-23.564 0-42.667 19.103-42.667 42.667v0 426.667h853.333zM896 832c23.564 0 42.667-19.103 42.667-42.667v0-170.667h-853.333v170.667c0 23.564 19.103 42.667 42.667 42.667v0h768z" />
<glyph unicode="&#xe96d;" glyph-name="layout-top-line" d="M896 832c23.564 0 42.667-19.103 42.667-42.667v0-682.667c0-23.564-19.103-42.667-42.667-42.667v0h-768c-23.564 0-42.667 19.103-42.667 42.667v0 682.667c0 23.564 19.103 42.667 42.667 42.667v0h768zM170.667 533.333v-384h682.667v384h-682.667zM170.667 618.667h682.667v128h-682.667v-128z" />
<glyph unicode="&#xe96e;" glyph-name="magic-fill" d="M649.557 298.325l-94.421-198.4c-4.213-8.7-12.975-14.594-23.113-14.594-7.306 0-13.897 3.061-18.562 7.97l-0.010 0.011-151.125 159.531c-3.922 4.13-9.191 6.948-15.1 7.751l-0.132 0.015-217.899 28.501c-12.626 1.711-22.256 12.421-22.256 25.381 0 4.475 1.148 8.681 3.165 12.341l-0.067-0.132 105.045 193.024c1.941 3.521 3.083 7.717 3.083 12.18 0 1.667-0.159 3.298-0.464 4.876l0.026-0.161-40.235 216.021c-0.277 1.414-0.436 3.040-0.436 4.702 0 14.138 11.462 25.6 25.6 25.6 1.663 0 3.288-0.159 4.863-0.461l-0.161 0.026 216.021-40.235c1.418-0.279 3.048-0.438 4.716-0.438 4.463 0 8.66 1.142 12.313 3.15l-0.133-0.067 193.024 105.045c3.526 1.949 7.731 3.096 12.203 3.096 12.974 0 23.693-9.651 25.371-22.165l0.014-0.131 28.501-217.856c0.817-6.041 3.635-11.31 7.754-15.222l0.011-0.010 159.531-151.125c4.92-4.675 7.981-11.266 7.981-18.572 0-10.138-5.894-18.9-14.442-23.047l-0.152-0.067-198.4-94.421c-5.333-2.578-9.54-6.784-12.051-11.965l-0.067-0.152zM683.563 216.107l60.331 60.331 181.035-180.992-60.373-60.373-180.992 181.035z" />
<glyph unicode="&#xe96f;" glyph-name="magic-line" d="M648.491 535.68c-17.951 17.032-30.19 39.926-33.644 65.606l-0.063 0.57-17.195 131.541-116.48-63.403c-15.33-8.512-33.619-13.523-53.079-13.523-7.181 0-14.202 0.682-21.002 1.985l0.695-0.111-130.389 24.32 24.32-130.389c1.192-6.106 1.875-13.127 1.875-20.308 0-19.46-5.011-37.749-13.812-53.648l0.289 0.569-63.403-116.48 131.541-17.195c26.234-3.526 49.112-15.764 66.087-33.658l0.046-0.049 91.221-96.299 57.003 119.765c11.161 23.112 29.379 41.344 51.82 52.234l0.66 0.289 119.808 57.003-96.299 91.179zM649.557 298.325l-94.421-198.4c-4.213-8.7-12.975-14.594-23.113-14.594-7.306 0-13.897 3.061-18.562 7.97l-0.010 0.011-151.125 159.531c-3.922 4.13-9.191 6.948-15.1 7.751l-0.132 0.015-217.899 28.501c-12.626 1.711-22.256 12.421-22.256 25.381 0 4.475 1.148 8.681 3.165 12.341l-0.067-0.132 105.045 193.024c1.941 3.521 3.083 7.717 3.083 12.18 0 1.667-0.159 3.298-0.464 4.876l0.026-0.161-40.235 216.021c-0.277 1.414-0.436 3.040-0.436 4.702 0 14.138 11.462 25.6 25.6 25.6 1.663 0 3.288-0.159 4.863-0.461l-0.161 0.026 216.021-40.235c1.418-0.279 3.048-0.438 4.716-0.438 4.463 0 8.66 1.142 12.313 3.15l-0.133-0.067 193.024 105.045c3.526 1.949 7.731 3.096 12.203 3.096 12.974 0 23.693-9.651 25.371-22.165l0.014-0.131 28.501-217.856c0.817-6.041 3.635-11.31 7.754-15.222l0.011-0.010 159.531-151.125c4.92-4.675 7.981-11.266 7.981-18.572 0-10.138-5.894-18.9-14.442-23.047l-0.152-0.067-198.4-94.421c-5.333-2.578-9.54-6.784-12.051-11.965l-0.067-0.152zM683.563 216.107l60.331 60.331 181.035-180.992-60.373-60.373-180.992 181.035z" />
<glyph unicode="&#xe970;" glyph-name="mark-pen-fill" d="M680.533 857.899l241.365-241.365c7.718-7.721 12.492-18.386 12.492-30.165s-4.774-22.445-12.492-30.165l-331.904-331.904-90.453-30.165-60.373-60.331c-7.721-7.718-18.386-12.492-30.165-12.492s-22.445 4.774-30.165 12.492l-181.035 181.035c-7.718 7.721-12.492 18.386-12.492 30.165s4.774 22.445 12.492 30.165l60.331 60.331 30.165 90.496 331.904 331.904c7.721 7.718 18.386 12.492 30.165 12.492s22.445-4.774 30.165-12.492v0zM710.699 707.029l-271.531-271.531 60.331-60.331 271.531 271.531-60.331 60.331zM182.699 239.403l120.704-120.704-60.331-60.331-181.035 60.331 120.661 120.704z" />
<glyph unicode="&#xe971;" glyph-name="mark-pen-line" d="M650.368 767.36l-287.488-287.445-30.165-90.496-44.373-44.416 120.661-120.704 44.373 44.416 90.539 30.165 287.445 287.488-180.992 180.992zM921.899 616.533c7.718-7.721 12.492-18.386 12.492-30.165s-4.774-22.445-12.492-30.165l-331.904-331.904-90.453-30.165-60.373-60.331c-7.721-7.718-18.386-12.492-30.165-12.492s-22.445 4.774-30.165 12.492l-181.035 181.035c-7.718 7.721-12.492 18.386-12.492 30.165s4.774 22.445 12.492 30.165l60.331 60.331 30.165 90.496 331.904 331.904c7.721 7.718 18.386 12.492 30.165 12.492s22.445-4.774 30.165-12.492l241.365-241.365zM650.368 646.699l60.331-60.331-211.2-211.2-60.331 60.331 211.2 211.2zM182.741 239.36l120.661-120.704-60.331-60.331-181.035 60.331 120.661 120.704z" />
<glyph unicode="&#xe972;" glyph-name="markup-fill" d="M512 21.333c-235.648 0-426.667 191.019-426.667 426.667s191.019 426.667 426.667 426.667 426.667-191.019 426.667-426.667-191.019-426.667-426.667-426.667zM727.509 183.296l-36.779 147.072c-4.8 18.699-21.505 32.298-41.387 32.299h-274.688c-19.881-0.001-36.587-13.599-41.322-32.003l-0.065-0.296-36.779-147.072c58.074-47.708 133.159-76.63 214.999-76.63 0.179 0 0.359 0 0.538 0h-0.028c0.151 0 0.331 0 0.51 0 81.84 0 156.925 28.922 215.592 77.102l-0.593-0.473zM426.667 448h170.667v64l-44.288 155.093c-5.244 18.048-21.63 31.017-41.045 31.017s-35.802-12.968-40.97-30.715l-0.075-0.301-44.288-155.093v-64z" />
<glyph unicode="&#xe973;" glyph-name="markup-line" d="M426.667 512l44.288 155.093c5.244 18.048 21.63 31.017 41.045 31.017s35.802-12.968 40.97-30.715l0.075-0.301 44.288-155.093v-64h30.72c19.881-0.001 36.587-13.599 41.322-32.003l0.065-0.296 58.069-232.405c77.043 63.077 125.824 158.19 125.824 264.696 0 188.513-152.82 341.333-341.333 341.333s-341.333-152.82-341.333-341.333c0-106.506 48.781-201.619 125.219-264.216l0.605-0.48 58.112 232.405c4.796 18.685 21.48 32.278 41.342 32.299h30.722v64zM512 106.667c0.203 0 0.443-0.001 0.683-0.001 50.209 0 97.87 10.906 140.745 30.479l-2.121-0.867-56.619 226.389h-165.376l-56.619-226.389c40.748-18.705 88.403-29.611 138.606-29.611 0.246 0 0.493 0 0.739 0.001h-0.038zM512 21.333c-235.648 0-426.667 191.019-426.667 426.667s191.019 426.667 426.667 426.667 426.667-191.019 426.667-426.667-191.019-426.667-426.667-426.667z" />
<glyph unicode="&#xe974;" glyph-name="paint-brush-fill" d="M170.667 832h682.667c23.564 0 42.667-19.103 42.667-42.667v0-213.333c0-23.564-19.103-42.667-42.667-42.667v0h-682.667c-23.564 0-42.667 19.103-42.667 42.667v0 213.333c0 23.564 19.103 42.667 42.667 42.667v0zM256 448h256c23.564 0 42.667-19.103 42.667-42.667v0-128h42.667v-256h-170.667v256h42.667v85.333h-256c-23.564 0-42.667 19.103-42.667 42.667v0 85.333h85.333v-42.667zM756.565 374.101l75.435 75.435 75.435-75.435c19.297-19.302 31.232-45.965 31.232-75.415 0-58.91-47.756-106.667-106.667-106.667s-106.667 47.756-106.667 106.667c0 29.45 11.935 56.113 31.232 75.415v0z" />
<glyph unicode="&#xe975;" glyph-name="paint-brush-line" d="M213.333 746.667v-128h597.333v128h-597.333zM170.667 832h682.667c23.564 0 42.667-19.103 42.667-42.667v0-213.333c0-23.564-19.103-42.667-42.667-42.667v0h-682.667c-23.564 0-42.667 19.103-42.667 42.667v0 213.333c0 23.564 19.103 42.667 42.667 42.667v0zM256 448h256c23.564 0 42.667-19.103 42.667-42.667v0-128h42.667v-256h-170.667v256h42.667v85.333h-256c-23.564 0-42.667 19.103-42.667 42.667v0 85.333h85.333v-42.667zM756.565 374.101l75.435 75.435 75.435-75.435c19.297-19.302 31.232-45.965 31.232-75.415 0-58.91-47.756-106.667-106.667-106.667s-106.667 47.756-106.667 106.667c0 29.45 11.935 56.113 31.232 75.415v0z" />
<glyph unicode="&#xe976;" glyph-name="paint-fill" d="M820.395 160.768l75.435 75.435 75.392-75.435c19.31-19.304 31.253-45.975 31.253-75.436 0-58.91-47.756-106.667-106.667-106.667s-106.667 47.756-106.667 106.667c0 29.461 11.944 56.132 31.253 75.436v0zM378.795 913.92l482.731-482.688c7.731-7.723 12.514-18.396 12.514-30.187s-4.782-22.464-12.513-30.186v0l-362.027-362.027c-7.721-7.718-18.386-12.492-30.165-12.492s-22.445 4.774-30.165 12.492l-362.027 362.027c-7.731 7.723-12.514 18.396-12.514 30.187s4.782 22.464 12.513 30.186v0l331.861 331.861-90.539 90.496 60.416 60.331zM469.333 702.72l-301.696-301.653h603.349l-301.653 301.653z" />
<glyph unicode="&#xe977;" glyph-name="paint-line" d="M820.395 160.768l75.435 75.435 75.392-75.435c19.31-19.304 31.253-45.975 31.253-75.436 0-58.91-47.756-106.667-106.667-106.667s-106.667 47.756-106.667 106.667c0 29.461 11.944 56.132 31.253 75.436v0zM378.795 913.92l482.731-482.688c7.731-7.723 12.514-18.396 12.514-30.187s-4.782-22.464-12.513-30.186v0l-362.027-362.027c-7.721-7.718-18.386-12.492-30.165-12.492s-22.445 4.774-30.165 12.492l-362.027 362.027c-7.731 7.723-12.514 18.396-12.514 30.187s4.782 22.464 12.513 30.186v0l331.861 331.861-90.539 90.496 60.416 60.331zM469.333 702.72l-301.696-301.653 301.696-301.781 301.696 301.696-301.696 301.781z" />
<glyph unicode="&#xe978;" glyph-name="palette-fill" d="M512 874.667c235.605 0 426.667-169.728 426.667-379.264-0.073-130.884-106.168-236.965-237.051-237.013h-83.887c-39.339 0-71.125-31.787-71.125-71.125 0-18.005 7.125-34.603 18.005-46.933 11.392-12.8 18.517-29.397 18.517-47.872 0-39.381-32.725-71.125-71.125-71.125-235.605 0-426.667 191.061-426.667 426.667s191.061 426.667 426.667 426.667zM320 448c35.346 0 64 28.654 64 64s-28.654 64-64 64v0c-35.346 0-64-28.654-64-64s28.654-64 64-64v0zM704 448c35.346 0 64 28.654 64 64s-28.654 64-64 64v0c-35.346 0-64-28.654-64-64s28.654-64 64-64v0zM512 576c35.346 0 64 28.654 64 64s-28.654 64-64 64v0c-35.346 0-64-28.654-64-64s28.654-64 64-64v0z" />
<glyph unicode="&#xe979;" glyph-name="palette-line" d="M512 874.667c235.605 0 426.667-169.728 426.667-379.264-0.073-130.884-106.168-236.965-237.051-237.013h-83.887c-39.339 0-71.125-31.787-71.125-71.125 0-18.005 7.125-34.603 18.005-46.933 11.392-12.8 18.517-29.397 18.517-47.872 0-39.381-32.725-71.125-71.125-71.125-235.605 0-426.667 191.061-426.667 426.667s191.061 426.667 426.667 426.667zM461.269 187.264c0 0.038 0 0.083 0 0.128 0 86.339 69.992 156.331 156.331 156.331 0.045 0 0.090 0 0.135 0h83.875c83.745 0.049 151.626 67.899 151.723 151.628v0.009c0 160.043-150.699 293.973-341.333 293.973-0.092 0-0.202 0-0.311 0-188.513 0-341.333-152.82-341.333-341.333 0-178.47 136.97-324.949 311.525-340.050l1.277-0.089c-13.712 22.679-21.843 50.065-21.888 79.348v0.012zM320 448c-35.346 0-64 28.654-64 64s28.654 64 64 64v0c35.346 0 64-28.654 64-64s-28.654-64-64-64v0zM704 448c-35.346 0-64 28.654-64 64s28.654 64 64 64v0c35.346 0 64-28.654 64-64s-28.654-64-64-64v0zM512 576c-35.346 0-64 28.654-64 64s28.654 64 64 64v0c35.346 0 64-28.654 64-64s-28.654-64-64-64v0z" />
<glyph unicode="&#xe97a;" glyph-name="pantone-fill" d="M170.667 152.661l-57.6 23.253c-15.769 6.503-26.665 21.755-26.665 39.553 0 5.766 1.144 11.265 3.217 16.283l-0.104-0.283 81.152 200.875v-279.68zM378.027 64h-79.36c-23.564 0-42.667 19.103-42.667 42.667v0 259.328l122.027-301.995zM256.939 705.365l395.605 159.829c4.724 1.96 10.21 3.099 15.963 3.099 17.792 0 33.040-10.89 39.443-26.367l0.104-0.283 239.787-593.408c1.966-4.73 3.107-10.224 3.107-15.985 0-17.811-10.914-33.073-26.418-39.464l-0.284-0.104-395.605-159.829c-4.73-1.966-10.224-3.107-15.985-3.107-17.811 0-33.073 10.914-39.464 26.418l-0.104 0.284-239.701 593.365c-1.956 4.72-3.093 10.201-3.093 15.948 0 17.805 10.907 33.064 26.404 39.458l0.284 0.104zM384 576c23.564 0 42.667 19.103 42.667 42.667s-19.103 42.667-42.667 42.667v0c-23.564 0-42.667-19.103-42.667-42.667s19.103-42.667 42.667-42.667v0z" />
<glyph unicode="&#xe97b;" glyph-name="pantone-line" d="M245.931 618.667l-12.587 31.147c-1.966 4.73-3.107 10.224-3.107 15.985 0 17.811 10.914 33.073 26.418 39.464l0.284 0.104 395.605 159.829c4.724 1.96 10.21 3.099 15.963 3.099 17.792 0 33.040-10.89 39.443-26.367l0.104-0.283 239.787-593.408c1.966-4.73 3.107-10.224 3.107-15.985 0-17.811-10.914-33.073-26.418-39.464l-0.284-0.104-395.605-159.829c-4.73-1.966-10.224-3.107-15.985-3.107-17.811 0-33.073 10.914-39.464 26.418l-0.104 0.284-3.755 9.259v-1.707h-170.667c-23.564 0-42.667 19.103-42.667 42.667v0 11.52l-142.933 57.728c-15.769 6.503-26.665 21.755-26.665 39.553 0 5.766 1.144 11.265 3.217 16.283l-0.104-0.283 156.416 387.2zM341.333 149.333h94.251l-94.251 233.259v-233.259zM256 415.744l-71.381-176.683 71.381-30.336v207.019zM328.448 642.261l207.787-514.304 316.501 127.872-207.787 514.261-316.501-127.829zM455.509 555.52c-4.728-1.964-10.22-3.104-15.979-3.104-23.57 0-42.677 19.107-42.677 42.677 0 17.812 10.912 33.075 26.415 39.47l0.284 0.104c4.734 1.969 10.234 3.112 16 3.112 23.575 0 42.685-19.111 42.685-42.685 0-17.808-10.905-33.069-26.402-39.47l-0.284-0.104z" />
<glyph unicode="&#xe97c;" glyph-name="pencil-fill" d="M550.4 667.392l180.992-181.035-422.4-422.357h-180.992v181.035l422.4 422.4zM610.731 727.723l90.496 90.539c7.721 7.718 18.386 12.492 30.165 12.492s22.445-4.774 30.165-12.492l120.704-120.704c7.718-7.721 12.492-18.386 12.492-30.165s-4.774-22.445-12.492-30.165l-90.539-90.496-180.992 180.992z" />
<glyph unicode="&#xe97d;" glyph-name="pencil-line" d="M671.061 546.731l-60.331 60.331-397.397-397.397v-60.331h60.331l397.397 397.397zM731.392 607.061l60.331 60.331-60.331 60.331-60.331-60.331 60.331-60.331zM308.992 64h-180.992v181.035l573.227 573.227c7.721 7.718 18.386 12.492 30.165 12.492s22.445-4.774 30.165-12.492l120.704-120.704c7.718-7.721 12.492-18.386 12.492-30.165s-4.774-22.445-12.492-30.165l-573.227-573.227z" />
<glyph unicode="&#xe97e;" glyph-name="pencil-ruler-2-fill" d="M240.469 417.835l77.995-78.037 60.416 60.416-78.080 77.952 60.331 60.331 78.037-77.995 60.331 60.331-77.952 78.037 60.331 60.331 77.909-78.080 60.373 60.373-78.037 77.995 120.704 120.661c7.721 7.718 18.386 12.492 30.165 12.492s22.445-4.774 30.165-12.492l180.992-180.992c7.718-7.721 12.492-18.386 12.492-30.165s-4.774-22.445-12.492-30.165l-543.019-543.019c-7.721-7.718-18.386-12.492-30.165-12.492s-22.445 4.774-30.165 12.492l-180.992 180.992c-7.718 7.721-12.492 18.386-12.492 30.165s4.774 22.445 12.492 30.165l120.661 120.704zM602.496 176.512l181.035 180.992 112.469-112.469v-181.035h-180.992l-112.512 112.512zM240.469 538.539l-120.704 120.661c-7.731 7.723-12.514 18.396-12.514 30.187s4.782 22.464 12.513 30.186l120.704 120.662c7.721 7.718 18.386 12.492 30.165 12.492s22.445-4.774 30.165-12.492l120.747-120.661-181.077-181.035z" />
<glyph unicode="&#xe97f;" glyph-name="pencil-ruler-2-line" d="M300.8 357.504l-90.453-90.539 120.661-120.661 482.688 482.731-120.661 120.619-90.581-90.453 60.373-60.331-60.373-60.416-60.331 60.373-60.331-60.373 60.331-60.331-60.331-60.331-60.331 60.331-60.373-60.331 60.373-60.331-60.373-60.373-60.288 60.459zM723.2 840.192l180.992-180.992c7.718-7.721 12.492-18.386 12.492-30.165s-4.774-22.445-12.492-30.165l-543.061-543.061c-7.721-7.718-18.386-12.492-30.165-12.492s-22.445 4.774-30.165 12.492l-180.992 180.992c-7.718 7.721-12.492 18.386-12.492 30.165s4.774 22.445 12.492 30.165l543.061 543.061c7.721 7.718 18.386 12.492 30.165 12.492s22.445-4.774 30.165-12.492v0zM602.453 176.512l60.373 60.331 95.659-95.701h60.331v60.331l-95.659 95.701 60.331 60.331 112.512-112.469v-181.035h-180.992l-112.512 112.512zM240.469 538.539l-120.704 120.661c-7.731 7.723-12.514 18.396-12.514 30.187s4.782 22.464 12.513 30.186l120.704 120.662c7.721 7.718 18.386 12.492 30.165 12.492s22.445-4.774 30.165-12.492l120.747-120.661-60.416-60.373-90.496 90.539-60.331-60.373 90.496-90.453-60.331-60.373z" />
<glyph unicode="&#xe980;" glyph-name="pencil-ruler-fill" d="M213.333 192v-85.333h170.667v85.333h-170.667zM128 661.333l170.667 213.333 170.667-213.333v-640h-341.333v640zM896 618.667h-85.333v-85.333h85.333v-85.333h-128v-85.333h128v-85.333h-85.333v-85.333h85.333v-128c0-23.564-19.103-42.667-42.667-42.667v0h-256c-23.564 0-42.667 19.103-42.667 42.667v0 682.667c0 23.564 19.103 42.667 42.667 42.667v0h256c23.564 0 42.667-19.103 42.667-42.667v0-128z" />
<glyph unicode="&#xe981;" glyph-name="pencil-ruler-line" d="M213.333 618.667v-512h170.667v512h-170.667zM128 661.333l170.667 213.333 170.667-213.333v-640h-341.333v640zM810.667 277.333v85.333h-128v85.333h128v85.333h-85.333v85.333h85.333v85.333h-170.667v-597.333h170.667v85.333h-85.333v85.333h85.333zM597.333 789.333h256c23.564 0 42.667-19.103 42.667-42.667v0-682.667c0-23.564-19.103-42.667-42.667-42.667v0h-256c-23.564 0-42.667 19.103-42.667 42.667v0 682.667c0 23.564 19.103 42.667 42.667 42.667v0z" />
<glyph unicode="&#xe982;" glyph-name="pen-nib-fill" d="M210.304 43.307l249.429 249.429c6.626-1.848 14.236-2.91 22.093-2.91 47.128 0 85.333 38.205 85.333 85.333s-38.205 85.333-85.333 85.333c-47.128 0-85.333-38.205-85.333-85.333 0-7.857 1.062-15.467 3.050-22.692l-0.141 0.599-249.429-249.429-45.227 45.227c120.619 140.8 165.888 296.704 226.219 558.165l271.531 30.165 241.365-241.365-30.165-271.531c-261.461-60.331-417.365-105.6-558.123-226.261l-45.269 45.227zM708.096 872.96l270.805-270.763c3.868-3.862 6.261-9.2 6.261-15.098 0-10.634-7.78-19.45-17.958-21.068l-0.121-0.016-62.891-9.813-241.323 241.323 9.045 63.36c1.536 10.406 10.404 18.303 21.117 18.303 5.881 0 11.206-2.38 15.065-6.228v0z" />
<glyph unicode="&#xe983;" glyph-name="pen-nib-line" d="M708.096 915.627l270.805-270.763c3.868-3.862 6.261-9.2 6.261-15.098 0-10.634-7.78-19.45-17.958-21.068l-0.121-0.016-62.891-9.813-241.323 241.323 9.045 63.36c1.536 10.406 10.404 18.303 21.117 18.303 5.881 0 11.206-2.38 15.065-6.228v0zM196.053 100.267c158.805 142.123 341.12 184.661 539.435 235.52l19.029 171.435-183.339 183.339-171.435-19.029c-50.859-198.315-93.397-380.587-235.52-539.435l-59.52 59.477c120.661 140.8 165.973 296.661 226.261 558.123l271.531 30.165 241.365-241.365-30.165-271.531c-261.461-60.331-417.365-105.6-558.123-226.261l-59.52 59.563zM421.504 357.547c-16.073 15.539-26.051 37.294-26.051 61.379 0 47.128 38.205 85.333 85.333 85.333 24.086 0 45.841-9.979 61.356-26.027l0.023-0.024c14.536-15.272 23.479-35.985 23.479-58.786 0-47.128-38.205-85.333-85.333-85.333-22.791 0-43.495 8.935-58.8 23.492l0.036-0.034z" />
<glyph unicode="&#xe984;" glyph-name="quill-pen-fill" d="M896 874.667c-640 0-725.333-597.333-768-853.333h85.248c28.416 142.208 99.541 220.416 213.419 234.667 170.667 21.333 298.667 170.667 341.333 298.667l-64 42.667 42.667 42.667c42.667 42.667 85.504 106.667 149.333 234.667z" />
<glyph unicode="&#xe985;" glyph-name="quill-pen-line" d="M296.107 361.131c-9.941-26.624-18.347-51.2-25.856-76.075 40.96 29.739 89.643 48.597 145.835 55.637 107.221 13.397 202.496 84.181 250.709 173.141l-62.123 62.080 102.955 103.083c18.347 18.347 39.040 52.224 60.928 101.035-238.635-36.992-384.768-183.125-472.491-418.901zM725.333 575.957l42.667-42.624c-42.667-128-170.667-256-341.333-277.333-113.877-14.251-185.003-92.459-213.419-234.667h-85.248c42.667 256 128 853.333 768 853.333-42.667-127.872-85.248-213.163-127.872-255.872l-42.795-42.837z" />
<glyph unicode="&#xe986;" glyph-name="ruler-2-fill" d="M640 64h-85.333v128h-85.333v-128h-85.333v85.333h-85.333v-85.333h-128c-23.564 0-42.667 19.103-42.667 42.667v0 128h85.333v85.333h-85.333v85.333h128v85.333h-128v85.333h85.333v85.333h-85.333v128c0 23.564 19.103 42.667 42.667 42.667v0h256c23.564 0 42.667-19.103 42.667-42.667v0-384h384c23.564 0 42.667-19.103 42.667-42.667v0-256c0-23.564-19.103-42.667-42.667-42.667v0h-128v85.333h-85.333v-85.333z" />
<glyph unicode="&#xe987;" glyph-name="ruler-2-line" d="M725.333 149.333h85.333v213.333h-384v384h-213.333v-85.333h85.333v-85.333h-85.333v-85.333h128v-85.333h-128v-85.333h85.333v-85.333h-85.333v-85.333h85.333v85.333h85.333v-85.333h85.333v128h85.333v-128h85.333v85.333h85.333v-85.333zM512 448h341.333c23.564 0 42.667-19.103 42.667-42.667v0-298.667c0-23.564-19.103-42.667-42.667-42.667v0h-682.667c-23.564 0-42.667 19.103-42.667 42.667v0 682.667c0 23.564 19.103 42.667 42.667 42.667v0h298.667c23.564 0 42.667-19.103 42.667-42.667v0-341.333z" />
<glyph unicode="&#xe988;" glyph-name="ruler-fill" d="M210.304 396.501l90.496-90.496 60.331 60.331-90.453 90.496 90.453 90.496 120.704-120.661 60.331 60.331-120.619 120.704 90.453 90.496 90.496-90.496 60.373 60.331-90.539 90.496 120.704 120.704c7.721 7.718 18.386 12.492 30.165 12.492s22.445-4.774 30.165-12.492l211.2-211.2c7.718-7.721 12.492-18.386 12.492-30.165s-4.774-22.445-12.492-30.165l-633.6-633.6c-7.721-7.718-18.386-12.492-30.165-12.492s-22.445 4.774-30.165 12.492l-211.2 211.2c-7.718 7.721-12.492 18.386-12.492 30.165s4.774 22.445 12.492 30.165l150.869 150.869z" />
<glyph unicode="&#xe989;" glyph-name="ruler-line" d="M270.635 336.171l-120.661-120.704 150.827-150.827 573.227 573.227-150.827 150.827-90.539-90.496 60.373-60.331-60.373-60.331-60.331 60.331-90.496-90.539 90.496-90.453-60.331-60.416-90.496 90.496-90.539-90.496 60.373-60.331-60.373-60.373-60.331 60.373zM753.365 879.232l211.2-211.2c7.718-7.721 12.492-18.386 12.492-30.165s-4.774-22.445-12.492-30.165l-633.6-633.6c-7.721-7.718-18.386-12.492-30.165-12.492s-22.445 4.774-30.165 12.492l-211.2 211.2c-7.718 7.721-12.492 18.386-12.492 30.165s4.774 22.445 12.492 30.165l633.6 633.6c7.721 7.718 18.386 12.492 30.165 12.492s22.445-4.774 30.165-12.492v0z" />
<glyph unicode="&#xe98a;" glyph-name="scissors-2-fill" d="M512 357.504l-98.859-98.859c8.562-19.659 13.543-42.562 13.543-66.628 0-94.257-76.41-170.667-170.667-170.667s-170.667 76.41-170.667 170.667c0 94.257 76.41 170.667 170.667 170.667 24.066 0 46.969-4.981 67.733-13.969l-1.105 0.426 98.901 98.859-241.92 241.792c-15.45 15.444-25.006 36.782-25.006 60.352s9.556 44.908 25.005 60.352l30.208 30.166 302.165-302.208 302.123 302.165 30.208-30.165c15.45-15.444 25.006-36.782 25.006-60.352s-9.556-44.908-25.005-60.352l-241.878-241.75 98.859-98.859c19.659 8.562 42.562 13.543 66.628 13.543 94.257 0 170.667-76.41 170.667-170.667s-76.41-170.667-170.667-170.667c-94.257 0-170.667 76.41-170.667 170.667 0 24.066 4.981 46.969 13.969 67.733l-0.426-1.105-98.816 98.901zM256 106.667c47.128 0 85.333 38.205 85.333 85.333s-38.205 85.333-85.333 85.333v0c-47.128 0-85.333-38.205-85.333-85.333s38.205-85.333 85.333-85.333v0zM768 106.667c47.128 0 85.333 38.205 85.333 85.333s-38.205 85.333-85.333 85.333v0c-47.128 0-85.333-38.205-85.333-85.333s38.205-85.333 85.333-85.333v0z" />
<glyph unicode="&#xe98b;" glyph-name="scissors-2-line" d="M512 387.669l-108.971-108.971c14.863-24.799 23.653-54.715 23.653-86.683 0-94.257-76.41-170.667-170.667-170.667s-170.667 76.41-170.667 170.667c0 94.257 76.41 170.667 170.667 170.667 31.968 0 61.884-8.79 87.462-24.084l-0.778 0.431 108.971 108.971-256.896 256.853c-15.462 15.446-25.027 36.792-25.027 60.373s9.565 44.928 25.026 60.373l0.001 0.001 317.227-317.312 317.227 317.227c15.437-15.441 24.984-36.771 24.984-60.331s-9.548-44.889-24.985-60.331l-256.853-256.853 108.928-108.971c24.799 14.863 54.715 23.653 86.683 23.653 94.257 0 170.667-76.41 170.667-170.667s-76.41-170.667-170.667-170.667c-94.257 0-170.667 76.41-170.667 170.667 0 31.968 8.79 61.884 24.084 87.462l-0.431-0.778-108.971 108.971zM256 106.667c47.128 0 85.333 38.205 85.333 85.333s-38.205 85.333-85.333 85.333v0c-47.128 0-85.333-38.205-85.333-85.333s38.205-85.333 85.333-85.333v0zM768 106.667c47.128 0 85.333 38.205 85.333 85.333s-38.205 85.333-85.333 85.333v0c-47.128 0-85.333-38.205-85.333-85.333s38.205-85.333 85.333-85.333v0z" />
<glyph unicode="&#xe98c;" glyph-name="scissors-cut-fill" d="M421.504 448l-98.859 98.859c-19.659-8.562-42.562-13.543-66.628-13.543-94.257 0-170.667 76.41-170.667 170.667s76.41 170.667 170.667 170.667c94.257 0 170.667-76.41 170.667-170.667 0-24.066-4.981-46.969-13.969-67.733l0.426 1.105 98.859-98.901 271.957 272c15.444 15.45 36.782 25.006 60.352 25.006s44.908-9.556 60.352-25.005l30.166-30.166-521.685-521.643c8.562-19.659 13.543-42.562 13.543-66.628 0-94.257-76.41-170.667-170.667-170.667s-170.667 76.41-170.667 170.667c0 94.257 76.41 170.667 170.667 170.667 24.066 0 46.969-4.981 67.733-13.969l-1.105 0.426 98.901 98.859zM256 618.667c47.128 0 85.333 38.205 85.333 85.333s-38.205 85.333-85.333 85.333v0c-47.128 0-85.333-38.205-85.333-85.333s38.205-85.333 85.333-85.333v0zM256 106.667c47.128 0 85.333 38.205 85.333 85.333s-38.205 85.333-85.333 85.333v0c-47.128 0-85.333-38.205-85.333-85.333s38.205-85.333 85.333-85.333v0zM662.827 387.712l272-272.043-30.165-30.165c-15.444-15.45-36.782-25.006-60.352-25.006s-44.908 9.556-60.352 25.005l-211.627 211.67 90.453 90.539zM682.667 490.667h85.333v-85.333h-85.333v85.333zM853.333 490.667h85.333v-85.333h-85.333v85.333zM256 490.667h85.333v-85.333h-85.333v85.333zM85.333 490.667h85.333v-85.333h-85.333v85.333z" />
<glyph unicode="&#xe98d;" glyph-name="scissors-cut-line" d="M426.667 704c0-31.232-8.405-60.544-23.040-85.76l108.373-109.867 287.061 287.061c15.441 15.437 36.771 24.984 60.331 24.984s44.889-9.548 60.331-24.985v0l-516.693-516.693c14.863-24.799 23.653-54.715 23.653-86.683 0-94.257-76.41-170.667-170.667-170.667s-170.667 76.41-170.667 170.667c0 94.257 76.41 170.667 170.667 170.667 31.968 0 61.884-8.79 87.462-24.084l-0.778 0.431 108.971 108.928-108.971 108.971c-24.803-14.869-54.724-23.662-86.699-23.662-94.257 0-170.667 76.41-170.667 170.667s76.41 170.667 170.667 170.667c94.248 0 170.653-76.396 170.667-170.641v-0.001zM341.333 704c0 47.128-38.205 85.333-85.333 85.333s-85.333-38.205-85.333-85.333v0c0-47.128 38.205-85.333 85.333-85.333s85.333 38.205 85.333 85.333v0zM919.723 100.608c-15.441-15.437-36.771-24.984-60.331-24.984s-44.889 9.548-60.331 24.985l-226.858 226.816 60.373 60.373 287.147-287.189zM682.667 490.667h85.333v-85.333h-85.333v85.333zM853.333 490.667h85.333v-85.333h-85.333v85.333zM256 490.667h85.333v-85.333h-85.333v85.333zM85.333 490.667h85.333v-85.333h-85.333v85.333zM256 106.667c47.128 0 85.333 38.205 85.333 85.333s-38.205 85.333-85.333 85.333v0c-47.128 0-85.333-38.205-85.333-85.333s38.205-85.333 85.333-85.333v0z" />
<glyph unicode="&#xe98e;" glyph-name="scissors-fill" d="M413.141 637.355l98.859-98.901 271.957 272c15.444 15.45 36.782 25.006 60.352 25.006s44.908-9.556 60.352-25.005l30.166-30.166-521.685-521.643c8.562-19.659 13.543-42.562 13.543-66.628 0-94.257-76.41-170.667-170.667-170.667s-170.667 76.41-170.667 170.667c0 94.257 76.41 170.667 170.667 170.667 24.066 0 46.969-4.981 67.733-13.969l-1.105 0.426 98.901 98.859-98.901 98.859c-19.659-8.562-42.562-13.543-66.628-13.543-94.257 0-170.667 76.41-170.667 170.667s76.41 170.667 170.667 170.667c94.257 0 170.667-76.41 170.667-170.667 0-24.066-4.981-46.969-13.969-67.733l0.426 1.105zM256 618.667c47.128 0 85.333 38.205 85.333 85.333s-38.205 85.333-85.333 85.333v0c-47.128 0-85.333-38.205-85.333-85.333s38.205-85.333 85.333-85.333v0zM256 106.667c47.128 0 85.333 38.205 85.333 85.333s-38.205 85.333-85.333 85.333v0c-47.128 0-85.333-38.205-85.333-85.333s38.205-85.333 85.333-85.333v0zM662.827 387.712l272-272.043-30.165-30.165c-15.444-15.45-36.782-25.006-60.352-25.006s-44.908 9.556-60.352 25.005l-211.627 211.67 90.453 90.539z" />
<glyph unicode="&#xe98f;" glyph-name="scissors-line" d="M403.029 617.301l108.971-108.971 287.061 287.061c15.441 15.437 36.771 24.984 60.331 24.984s44.889-9.548 60.331-24.985v0l-516.693-516.693c14.863-24.799 23.653-54.715 23.653-86.683 0-94.257-76.41-170.667-170.667-170.667s-170.667 76.41-170.667 170.667c0 94.257 76.41 170.667 170.667 170.667 31.968 0 61.884-8.79 87.462-24.084l-0.778 0.431 108.971 108.971-108.971 108.971c-24.799-14.863-54.715-23.653-86.683-23.653-94.257 0-170.667 76.41-170.667 170.667s76.41 170.667 170.667 170.667c94.257 0 170.667-76.41 170.667-170.667 0-31.968-8.79-61.884-24.084-87.462l0.431 0.778zM632.576 387.755l287.147-287.147c-15.441-15.437-36.771-24.984-60.331-24.984s-44.889 9.548-60.331 24.985l-226.858 226.816 60.373 60.373zM316.331 252.331c-15.539 16.073-37.294 26.051-61.379 26.051-47.128 0-85.333-38.205-85.333-85.333 0-24.086 9.979-45.841 26.027-61.356l0.024-0.023c15.33-14.821 36.239-23.954 59.282-23.954 47.128 0 85.333 38.205 85.333 85.333 0 23.043-9.133 43.952-23.977 59.306l0.023-0.024zM316.331 643.669c16.073 15.539 26.051 37.294 26.051 61.379 0 47.128-38.205 85.333-85.333 85.333-24.086 0-45.841-9.979-61.356-26.027l-0.023-0.024c-14.821-15.33-23.954-36.239-23.954-59.282 0-47.128 38.205-85.333 85.333-85.333 23.043 0 43.952 9.133 59.306 23.977l-0.024-0.023z" />
<glyph unicode="&#xe990;" glyph-name="screenshot-2-fill" d="M128 832h85.333v-85.333h-85.333v85.333zM298.667 832h85.333v-85.333h-85.333v85.333zM469.333 832h85.333v-85.333h-85.333v85.333zM640 832h85.333v-85.333h-85.333v85.333zM810.667 832h85.333v-85.333h-85.333v85.333zM810.667 661.333h85.333v-85.333h-85.333v85.333zM128 149.333h85.333v-85.333h-85.333v85.333zM128 320h85.333v-85.333h-85.333v85.333zM128 490.667h85.333v-85.333h-85.333v85.333zM128 661.333h85.333v-85.333h-85.333v85.333zM455.125 490.667l44.203 66.347c7.762 11.514 20.754 18.987 35.492 18.987 0.002 0 0.005 0 0.007 0h125.013c0.002 0 0.004 0 0.006 0 14.738 0 27.731-7.472 35.396-18.835l0.096-0.152 44.203-66.347h113.792c23.564 0 42.667-19.103 42.667-42.667v0-341.333c0-23.564-19.103-42.667-42.667-42.667v0h-512c-23.564 0-42.667 19.103-42.667 42.667v0 341.333c0 23.564 19.103 42.667 42.667 42.667v0h113.792zM597.333 192c47.128 0 85.333 38.205 85.333 85.333s-38.205 85.333-85.333 85.333v0c-47.128 0-85.333-38.205-85.333-85.333s38.205-85.333 85.333-85.333v0z" />
<glyph unicode="&#xe991;" glyph-name="screenshot-2-line" d="M128 832h85.333v-85.333h-85.333v85.333zM298.667 832h85.333v-85.333h-85.333v85.333zM469.333 832h85.333v-85.333h-85.333v85.333zM640 832h85.333v-85.333h-85.333v85.333zM810.667 832h85.333v-85.333h-85.333v85.333zM810.667 661.333h85.333v-85.333h-85.333v85.333zM128 149.333h85.333v-85.333h-85.333v85.333zM128 320h85.333v-85.333h-85.333v85.333zM128 490.667h85.333v-85.333h-85.333v85.333zM128 661.333h85.333v-85.333h-85.333v85.333zM455.125 490.667l44.203 66.347c7.762 11.514 20.754 18.987 35.492 18.987 0.002 0 0.005 0 0.007 0h125.013c0.002 0 0.004 0 0.006 0 14.738 0 27.731-7.472 35.396-18.835l0.096-0.152 44.203-66.347h113.792c23.564 0 42.667-19.103 42.667-42.667v0-341.333c0-23.564-19.103-42.667-42.667-42.667v0h-512c-23.564 0-42.667 19.103-42.667 42.667v0 341.333c0 23.564 19.103 42.667 42.667 42.667v0h113.792zM384 149.333h426.667v256h-116.779l-56.875 85.333h-79.36l-56.875-85.333h-116.779v-256zM597.333 192c-47.128 0-85.333 38.205-85.333 85.333s38.205 85.333 85.333 85.333v0c47.128 0 85.333-38.205 85.333-85.333s-38.205-85.333-85.333-85.333v0z" />
<glyph unicode="&#xe992;" glyph-name="screenshot-fill" d="M511.701 345.301l-66.219-66.219c15.015-24.897 23.898-54.961 23.898-87.099 0-94.257-76.41-170.667-170.667-170.667s-170.667 76.41-170.667 170.667c0 94.257 76.41 170.667 170.667 170.667 31.799 0 61.566-8.696 87.054-23.841l-0.787 0.433 66.347 66.389-133.291 133.333c-11.578 11.581-18.738 27.578-18.738 45.248s7.161 33.667 18.739 45.248l15.104 15.104 178.56-178.56 178.731 178.731 15.061-15.104c11.565-11.579 18.717-27.568 18.717-45.227s-7.152-33.648-18.718-45.227l-133.461-133.546 66.603-66.56c24.799 14.863 54.715 23.653 86.683 23.653 94.257 0 170.667-76.41 170.667-170.667s-76.41-170.667-170.667-170.667c-94.257 0-170.667 76.41-170.667 170.667 0 31.968 8.79 61.884 24.084 87.462l-0.431-0.778-66.603 66.56zM810.667 405.333v341.333h-597.333v-341.333h-85.333v384c0 23.564 19.103 42.667 42.667 42.667v0h682.667c23.564 0 42.667-19.103 42.667-42.667v0-384h-85.333zM298.667 106.667c47.128 0 85.333 38.205 85.333 85.333s-38.205 85.333-85.333 85.333v0c-47.128 0-85.333-38.205-85.333-85.333s38.205-85.333 85.333-85.333v0zM725.333 106.667c47.128 0 85.333 38.205 85.333 85.333s-38.205 85.333-85.333 85.333v0c-47.128 0-85.333-38.205-85.333-85.333s38.205-85.333 85.333-85.333v0z" />
<glyph unicode="&#xe993;" glyph-name="screenshot-line" d="M511.701 345.301l-66.219-66.219c15.015-24.897 23.898-54.961 23.898-87.099 0-94.257-76.41-170.667-170.667-170.667s-170.667 76.41-170.667 170.667c0 94.257 76.41 170.667 170.667 170.667 31.799 0 61.566-8.696 87.054-23.841l-0.787 0.433 66.347 66.389-178.56 178.56 60.373 60.373 178.56-178.56 178.731 178.731 60.331-60.331-178.773-178.773 66.645-66.56c24.799 14.863 54.715 23.653 86.683 23.653 94.257 0 170.667-76.41 170.667-170.667s-76.41-170.667-170.667-170.667c-94.257 0-170.667 76.41-170.667 170.667 0 31.968 8.79 61.884 24.084 87.462l-0.431-0.778-66.603 66.56zM298.667 106.667c47.128 0 85.333 38.205 85.333 85.333s-38.205 85.333-85.333 85.333v0c-47.128 0-85.333-38.205-85.333-85.333s38.205-85.333 85.333-85.333v0zM725.333 106.667c47.128 0 85.333 38.205 85.333 85.333s-38.205 85.333-85.333 85.333v0c-47.128 0-85.333-38.205-85.333-85.333s38.205-85.333 85.333-85.333v0zM810.667 405.333v341.333h-597.333v-341.333h-85.333v384c0 23.564 19.103 42.667 42.667 42.667v0h682.667c23.564 0 42.667-19.103 42.667-42.667v0-384h-85.333z" />
<glyph unicode="&#xe994;" glyph-name="shape-2-fill" d="M85.333 874.667h213.333v-213.333h-213.333v213.333zM85.333 234.667h213.333v-213.333h-213.333v213.333zM725.333 874.667h213.333v-213.333h-213.333v213.333zM725.333 234.667h213.333v-213.333h-213.333v213.333zM341.333 789.333h341.333v-85.333h-341.333v85.333zM170.667 618.667h85.333v-341.333h-85.333v341.333zM768 618.667h85.333v-341.333h-85.333v341.333zM341.333 192h341.333v-85.333h-341.333v85.333z" />
<glyph unicode="&#xe995;" glyph-name="shape-2-line" d="M853.333 277.333h85.333v-256h-256v85.333h-341.333v-85.333h-256v256h85.333v341.333h-85.333v256h256v-85.333h341.333v85.333h256v-256h-85.333v-341.333zM768 277.333v341.333h-85.333v85.333h-341.333v-85.333h-85.333v-341.333h85.333v-85.333h341.333v85.333h85.333zM170.667 789.333v-85.333h85.333v85.333h-85.333zM170.667 192v-85.333h85.333v85.333h-85.333zM768 789.333v-85.333h85.333v85.333h-85.333zM768 192v-85.333h85.333v85.333h-85.333z" />
<glyph unicode="&#xe996;" glyph-name="shape-fill" d="M213.333 618.667c-70.692 0-128 57.308-128 128s57.308 128 128 128v0c70.692 0 128-57.308 128-128s-57.308-128-128-128v0zM810.667 618.667c-70.692 0-128 57.308-128 128s57.308 128 128 128v0c70.692 0 128-57.308 128-128s-57.308-128-128-128v0zM810.667 21.333c-70.692 0-128 57.308-128 128s57.308 128 128 128v0c70.692 0 128-57.308 128-128s-57.308-128-128-128v0zM213.333 21.333c-70.692 0-128 57.308-128 128s57.308 128 128 128v0c70.692 0 128-57.308 128-128s-57.308-128-128-128v0zM384 789.333h256v-85.333h-256v85.333zM384 192h256v-85.333h-256v85.333zM170.667 576h85.333v-256h-85.333v256zM768 576h85.333v-256h-85.333v256z" />
<glyph unicode="&#xe997;" glyph-name="shape-line" d="M334.080 106.667c-18.114-50.146-65.303-85.342-120.713-85.342-70.716 0-128.043 57.327-128.043 128.043 0 55.41 35.196 102.599 84.451 120.431l0.892 0.282v355.84c-50.146 18.114-85.342 65.303-85.342 120.713 0 70.716 57.327 128.043 128.043 128.043 55.41 0 102.599-35.196 120.431-84.451l0.282-0.892h355.84c18.114 50.146 65.303 85.342 120.713 85.342 70.716 0 128.043-57.327 128.043-128.043 0-55.41-35.196-102.599-84.451-120.431l-0.892-0.282v-355.84c50.146-18.114 85.342-65.303 85.342-120.713 0-70.716-57.327-128.043-128.043-128.043-55.41 0-102.599 35.196-120.431 84.451l-0.282 0.892h-355.84zM334.080 192h355.84c13.223 36.557 41.523 64.857 77.187 77.797l0.893 0.283v355.84c-36.557 13.223-64.857 41.523-77.797 77.187l-0.283 0.893h-355.84c-13.223-36.557-41.523-64.857-77.187-77.797l-0.893-0.283v-355.84c36.557-13.223 64.857-41.523 77.797-77.187l0.283-0.893zM213.333 704c23.564 0 42.667 19.103 42.667 42.667s-19.103 42.667-42.667 42.667v0c-23.564 0-42.667-19.103-42.667-42.667s19.103-42.667 42.667-42.667v0zM810.667 704c23.564 0 42.667 19.103 42.667 42.667s-19.103 42.667-42.667 42.667v0c-23.564 0-42.667-19.103-42.667-42.667s19.103-42.667 42.667-42.667v0zM810.667 106.667c23.564 0 42.667 19.103 42.667 42.667s-19.103 42.667-42.667 42.667v0c-23.564 0-42.667-19.103-42.667-42.667s19.103-42.667 42.667-42.667v0zM213.333 106.667c23.564 0 42.667 19.103 42.667 42.667s-19.103 42.667-42.667 42.667v0c-23.564 0-42.667-19.103-42.667-42.667s19.103-42.667 42.667-42.667v0z" />
<glyph unicode="&#xe998;" glyph-name="sip-fill" d="M595.627 682.496l120.704 120.661c7.721 7.718 18.386 12.492 30.165 12.492s22.445-4.774 30.165-12.492l90.496-90.496c7.718-7.721 12.492-18.386 12.492-30.165s-4.774-22.445-12.492-30.165l-120.661-120.704 75.392-75.435-60.331-60.331-301.653 301.696 60.288 60.331 75.435-75.392zM459.861 576.853l181.035-181.035-331.861-331.819h-181.035v181.035l331.861 331.861z" />
<glyph unicode="&#xe999;" glyph-name="sip-line" d="M275.499 151.168l365.397 365.397-60.331 60.331-365.397-365.397 60.331-60.331zM520.192 637.227l-60.331 60.331 60.331 60.331 75.435-75.392 120.704 120.661c7.721 7.718 18.386 12.492 30.165 12.492s22.445-4.774 30.165-12.492l90.496-90.496c7.718-7.721 12.492-18.386 12.492-30.165s-4.774-22.445-12.492-30.165l-120.661-120.704 75.392-75.435-60.331-60.331-60.331 60.331-392.192-392.192h-181.035v181.035l392.192 392.192z" />
<glyph unicode="&#xe99a;" glyph-name="slice-fill" d="M587.435 438.101l90.496-90.539c-196.096-196.096-437.461-256.427-588.288-226.261l663.723 663.765 90.496-90.453-256.427-256.469z" />
<glyph unicode="&#xe99b;" glyph-name="slice-line" d="M669.44 408.832l75.477-75.435c-256.427-256.427-467.627-256.427-648.661-196.096l663.723 663.723 150.869-150.827-241.365-241.365zM548.779 408.832l241.365 241.365-30.165 30.165-490.581-490.581c116.565-4.565 228.608 38.699 352.725 145.749l-73.344 73.301z" />
<glyph unicode="&#xe99c;" glyph-name="table-alt-fill" d="M298.667 362.667v469.333h-170.667c-23.564 0-42.667-19.103-42.667-42.667v0-426.667h213.333zM640 362.667v469.333h-256v-469.333h256zM938.667 362.667v426.667c0 23.564-19.103 42.667-42.667 42.667v0h-170.667v-469.333h213.333zM896 64c23.564 0 42.667 19.103 42.667 42.667v0 170.667h-853.333v-170.667c0-23.564 19.103-42.667 42.667-42.667v0h768z" />
<glyph unicode="&#xe99d;" glyph-name="table-alt-line" d="M896 832c23.564 0 42.667-19.103 42.667-42.667v0-682.667c0-23.564-19.103-42.667-42.667-42.667v0h-768c-23.564 0-42.667 19.103-42.667 42.667v0 682.667c0 23.564 19.103 42.667 42.667 42.667v0h768zM853.333 277.333h-682.667v-128h682.667v128zM341.333 746.667h-170.667v-384h170.667v384zM597.333 746.667h-170.667v-384h170.667v384zM853.333 746.667h-170.667v-384h170.667v384z" />
<glyph unicode="&#xe99e;" glyph-name="table-fill" d="M640 64h-256v469.333h256v-469.333zM725.333 64v469.333h213.333v-426.667c0-23.564-19.103-42.667-42.667-42.667v0h-170.667zM298.667 64h-170.667c-23.564 0-42.667 19.103-42.667 42.667v0 426.667h213.333v-469.333zM938.667 618.667h-853.333v170.667c0 23.564 19.103 42.667 42.667 42.667v0h768c23.564 0 42.667-19.103 42.667-42.667v0-170.667z" />
<glyph unicode="&#xe99f;" glyph-name="table-line" d="M170.667 618.667h682.667v128h-682.667v-128zM597.333 149.333v384h-170.667v-384h170.667zM682.667 149.333h170.667v384h-170.667v-384zM341.333 149.333v384h-170.667v-384h170.667zM128 832h768c23.564 0 42.667-19.103 42.667-42.667v0-682.667c0-23.564-19.103-42.667-42.667-42.667v0h-768c-23.564 0-42.667 19.103-42.667 42.667v0 682.667c0 23.564 19.103 42.667 42.667 42.667v0z" />
<glyph unicode="&#xe9a0;" glyph-name="t-box-fill" d="M725.333 618.667h-426.667v-85.333h170.667v-298.667h85.333v298.667h170.667v85.333zM170.667 832h682.667c23.564 0 42.667-19.103 42.667-42.667v0-682.667c0-23.564-19.103-42.667-42.667-42.667v0h-682.667c-23.564 0-42.667 19.103-42.667 42.667v0 682.667c0 23.564 19.103 42.667 42.667 42.667v0z" />
<glyph unicode="&#xe9a1;" glyph-name="t-box-line" d="M213.333 746.667v-597.333h597.333v597.333h-597.333zM170.667 832h682.667c23.564 0 42.667-19.103 42.667-42.667v0-682.667c0-23.564-19.103-42.667-42.667-42.667v0h-682.667c-23.564 0-42.667 19.103-42.667 42.667v0 682.667c0 23.564 19.103 42.667 42.667 42.667v0zM554.667 533.333v-298.667h-85.333v298.667h-170.667v85.333h426.667v-85.333h-170.667z" />
<glyph unicode="&#xe9a2;" glyph-name="tools-fill" d="M227.413 820.437c14.936 5.5 32.185 8.682 50.177 8.682 82.475 0 149.333-66.859 149.333-149.333 0-18.015-3.19-35.286-9.036-51.277l0.332 1.037 462.72-462.72-90.539-90.496-462.72 462.677c-14.936-5.5-32.185-8.682-50.177-8.682-82.475 0-149.333 66.859-149.333 149.333 0 18.015 3.19 35.286 9.036 51.277l-0.332-1.037 95.403-95.445c11.654-12.054 27.97-19.538 46.034-19.538 35.346 0 64 28.654 64 64 0 18.064-7.484 34.38-19.52 46.017l-0.018 0.017-95.403 95.531zM669.739 740.053l135.765 75.435 60.331-60.331-75.435-135.765-75.435-15.104-90.453-90.496-60.373 60.331 90.496 90.496 15.104 75.435zM368.043 408.192l90.496-90.539-211.2-211.2c-11.56-11.455-27.474-18.533-45.042-18.533-35.346 0-64 28.654-64 64 0 15.421 5.454 29.568 14.538 40.617l-0.089-0.111 4.139 4.565 211.2 211.2z" />
<glyph unicode="&#xe9a3;" glyph-name="tools-line" d="M227.413 820.437c14.939 5.503 32.191 8.686 50.187 8.686 82.475 0 149.333-66.859 149.333-149.333 0-26.058-6.674-50.556-18.406-71.88l0.39 0.773 456.917-456.96-60.331-60.331-456.96 456.96c-20.506-11.271-44.937-17.902-70.918-17.902-82.522 0-149.419 66.897-149.419 149.419 0 17.937 3.161 35.136 8.955 51.070l-0.33-1.039 95.445-95.445c11.654-12.054 27.97-19.538 46.034-19.538 35.346 0 64 28.654 64 64 0 18.064-7.484 34.38-19.52 46.017l-0.018 0.017-95.403 95.531zM669.739 740.053l135.765 75.435 60.331-60.331-75.435-135.765-75.435-15.104-90.453-90.496-60.373 60.331 90.496 90.496 15.104 75.435zM383.104 393.088l60.331-60.331-226.261-226.261c-7.725-7.747-18.409-12.539-30.212-12.539-23.564 0-42.667 19.103-42.667 42.667 0 10.049 3.474 19.287 9.287 26.578l-0.066-0.086 3.328 3.712 226.261 226.261z" />
</font>
</defs>
</svg>
