<?xml version="1.0" standalone="no"?>
<!DOCTYPE svg PUBLIC "-//W3C//DTD SVG 1.1//EN" "http://www.w3.org/Graphics/SVG/1.1/DTD/svg11.dtd" >
<svg xmlns="http://www.w3.org/2000/svg">
<metadata>Generated by IcoMoon</metadata>
<defs>
<font id="RemixIcons-Finance" horiz-adv-x="1024">
<font-face units-per-em="1024" ascent="960" descent="-64" />
<missing-glyph horiz-adv-x="1024" />
<glyph unicode="&#x20;" horiz-adv-x="512" d="" />
<glyph unicode="&#xe900;" glyph-name="hours-fill" d="M512 405.333c70.699 0 128-57.301 128-128 0-36.267-15.061-68.949-39.253-92.245l-81.493-78.421h120.747v-85.333h-256v73.557l157.568 151.68c8.107 7.808 13.099 18.688 13.099 30.763 0 23.552-19.115 42.667-42.667 42.667s-42.667-19.115-42.667-42.667h-85.333c0 70.699 57.301 128 128 128zM768 405.333v-170.667h85.333v170.667h85.333v-384h-85.333v128h-170.667v256h85.333zM170.667 448c0-107.819 49.963-203.947 128-266.496v-103.083c-127.531 73.771-213.333 211.627-213.333 369.579h85.333zM512 874.667c221.227 0 403.157-168.405 424.533-384h-85.845c-20.992 168.363-164.608 298.667-338.688 298.667-105.131 0-199.168-47.531-261.76-122.24l91.093-91.093h-256v256l104.405-104.363c78.208 90.027 193.579 147.029 322.261 147.029z" />
<glyph unicode="&#xe901;" glyph-name="hours-line" d="M512 405.333c70.699 0 128-57.301 128-128 0-36.267-15.061-68.949-39.253-92.245l-81.493-78.421h120.747v-85.333h-256v73.557l157.568 151.68c8.107 7.808 13.099 18.688 13.099 30.763 0 23.552-19.115 42.667-42.667 42.667s-42.667-19.115-42.667-42.667h-85.333c0 70.699 57.301 128 128 128zM768 405.333v-170.667h85.333v170.667h85.333v-384h-85.333v128h-170.667v256h85.333zM170.667 448c0-107.819 49.963-203.947 128-266.496v-103.083c-127.531 73.771-213.333 211.627-213.333 369.579h85.333zM512 874.667c221.227 0 403.157-168.405 424.533-384h-85.845c-20.992 168.363-164.608 298.667-338.688 298.667-117.333 0-220.843-59.179-282.24-149.333h111.573v-85.333h-256v256h85.333v-106.667c77.824 103.68 201.771 170.667 341.333 170.667z" />
<glyph unicode="&#xe902;" glyph-name="auction-fill" d="M597.333 106.667v-85.333h-512v85.333h512zM622.336 930.731l331.861-331.861-60.331-60.416-45.227 15.104-105.685-105.557 241.365-241.365-60.331-60.331-241.323 241.365-102.571-102.571 12.075-48.299-60.373-60.331-331.861 331.861 60.373 60.331 48.213-12.032 268.544 268.501-15.061 45.227 60.331 60.373z" />
<glyph unicode="&#xe903;" glyph-name="auction-line" d="M597.333 106.667v-85.333h-512v85.333h512zM622.336 930.731l331.861-331.861-60.331-60.416-45.227 15.104-105.685-105.557 241.365-241.365-60.331-60.331-241.323 241.365-102.571-102.571 12.075-48.299-60.373-60.331-331.861 331.861 60.373 60.331 48.213-12.032 268.544 268.501-15.061 45.227 60.331 60.373zM652.501 779.861l-301.696-301.653 150.827-150.869 301.696 301.653-150.827 150.869z" />
<glyph unicode="&#xe904;" glyph-name="bank-card-2-fill" d="M938.667 490.667v-384c0-23.564-19.103-42.667-42.667-42.667v0h-768c-23.564 0-42.667 19.103-42.667 42.667v0 384h853.333zM938.667 661.333h-853.333v128c0 23.564 19.103 42.667 42.667 42.667v0h768c23.564 0 42.667-19.103 42.667-42.667v0-128z" />
<glyph unicode="&#xe905;" glyph-name="bank-card-2-line" d="M128 832h768c23.564 0 42.667-19.103 42.667-42.667v0-682.667c0-23.564-19.103-42.667-42.667-42.667v0h-768c-23.564 0-42.667 19.103-42.667 42.667v0 682.667c0 23.564 19.103 42.667 42.667 42.667v0zM853.333 448h-682.667v-298.667h682.667v298.667zM853.333 618.667v128h-682.667v-128h682.667z" />
<glyph unicode="&#xe906;" glyph-name="bank-card-fill" d="M938.667 533.333v-426.667c0-23.564-19.103-42.667-42.667-42.667v0h-768c-23.564 0-42.667 19.103-42.667 42.667v0 426.667h853.333zM938.667 618.667h-853.333v170.667c0 23.564 19.103 42.667 42.667 42.667v0h768c23.564 0 42.667-19.103 42.667-42.667v0-170.667zM640 277.333v-85.333h170.667v85.333h-170.667z" />
<glyph unicode="&#xe907;" glyph-name="bank-card-line" d="M128 832h768c23.564 0 42.667-19.103 42.667-42.667v0-682.667c0-23.564-19.103-42.667-42.667-42.667v0h-768c-23.564 0-42.667 19.103-42.667 42.667v0 682.667c0 23.564 19.103 42.667 42.667 42.667v0zM853.333 490.667h-682.667v-341.333h682.667v341.333zM853.333 576v170.667h-682.667v-170.667h682.667zM597.333 320h170.667v-85.333h-170.667v85.333z" />
<glyph unicode="&#xe908;" glyph-name="bit-coin-fill" d="M512 21.333c-235.648 0-426.667 191.019-426.667 426.667s191.019 426.667 426.667 426.667 426.667-191.019 426.667-426.667-191.019-426.667-426.667-426.667zM469.333 277.333v-85.333h85.333v85.333h42.667c58.91 0 106.667 47.756 106.667 106.667 0 24.134-8.015 46.395-21.528 64.268l0.194-0.268c13.319 17.605 21.333 39.866 21.333 64 0 58.91-47.756 106.667-106.667 106.667v0h-42.667v85.333h-85.333v-85.333h-128v-341.333h128zM426.667 405.333h170.667c11.782 0 21.333-9.551 21.333-21.333s-9.551-21.333-21.333-21.333v0h-170.667v42.667zM426.667 533.333h170.667c11.782 0 21.333-9.551 21.333-21.333s-9.551-21.333-21.333-21.333v0h-170.667v42.667z" />
<glyph unicode="&#xe909;" glyph-name="bit-coin-line" d="M512 21.333c-235.648 0-426.667 191.019-426.667 426.667s191.019 426.667 426.667 426.667 426.667-191.019 426.667-426.667-191.019-426.667-426.667-426.667zM512 106.667c188.513 0 341.333 152.82 341.333 341.333s-152.82 341.333-341.333 341.333v0c-188.513 0-341.333-152.82-341.333-341.333s152.82-341.333 341.333-341.333v0zM469.333 277.333h-128v341.333h128v85.333h85.333v-85.333h42.667c58.91 0 106.667-47.756 106.667-106.667 0-24.134-8.015-46.395-21.528-64.268l0.194 0.268c13.319-17.605 21.333-39.866 21.333-64 0-58.91-47.756-106.667-106.667-106.667v0h-42.667v-85.333h-85.333v85.333zM426.667 405.333v-42.667h170.667c11.782 0 21.333 9.551 21.333 21.333s-9.551 21.333-21.333 21.333v0h-170.667zM426.667 533.333v-42.667h170.667c11.782 0 21.333 9.551 21.333 21.333s-9.551 21.333-21.333 21.333v0h-170.667z" />
<glyph unicode="&#xe90a;" glyph-name="coin-fill" d="M981.333 448v-85.333c0-141.397-210.133-256-469.333-256-254.592 0-461.824 110.549-469.12 248.448l-0.213 7.552v85.333c0-141.397 210.133-256 469.333-256s469.333 114.603 469.333 256zM512 789.333c259.2 0 469.333-114.603 469.333-256s-210.133-256-469.333-256-469.333 114.603-469.333 256 210.133 256 469.333 256z" />
<glyph unicode="&#xe90b;" glyph-name="coin-line" d="M512 789.333c259.2 0 469.333-114.603 469.333-256v-170.667c0-141.397-210.133-256-469.333-256-254.592 0-461.824 110.549-469.12 248.448l-0.213 7.552v170.667c0 141.397 210.133 256 469.333 256zM512 277.333c-158.72 0-299.093 42.965-384 108.8v-23.467c0-80.299 165.675-170.667 384-170.667 213.76 0 377.088 86.613 383.787 165.632l0.213 5.035 0.043 23.467c-84.907-65.792-225.28-108.8-384.043-108.8zM512 704c-218.325 0-384-90.368-384-170.667s165.675-170.667 384-170.667 384 90.368 384 170.667c0 80.299-165.675 170.667-384 170.667z" />
<glyph unicode="&#xe90c;" glyph-name="coins-fill" d="M597.333 874.667c0.049 0 0.106 0 0.163 0 188.513 0 341.333-152.82 341.333-341.333 0-137.68-81.515-256.32-198.915-310.293l-2.122-0.875c-54.928-119.319-173.464-200.663-310.999-200.663-188.513 0-341.333 152.82-341.333 341.333 0 137.535 81.343 256.071 198.545 310.123l2.118 0.876c54.929 119.415 173.535 200.832 311.158 200.832 0.018 0 0.037 0 0.055 0h-0.003zM469.333 576h-85.333v-42.667c-0.077 0-0.168 0-0.26 0-58.91 0-106.667-47.756-106.667-106.667 0-56.54 43.99-102.805 99.612-106.437l0.317-0.017 6.997-0.213h85.333l3.84-0.341c10.035-1.866 17.532-10.553 17.532-20.992s-7.497-19.126-17.401-20.972l-0.132-0.020-3.84-0.341h-170.667v-85.333h85.333v-42.667h85.333v42.667c0.077 0 0.168 0 0.26 0 58.91 0 106.667 47.756 106.667 106.667 0 56.54-43.99 102.805-99.612 106.437l-0.317 0.017-6.997 0.213h-85.333l-3.84 0.341c-10.035 1.866-17.532 10.553-17.532 20.992s7.497 19.126 17.401 20.972l0.132 0.020 3.84 0.341h170.667v85.333h-85.333v42.667zM597.333 789.333c-0.089 0-0.194 0-0.299 0-75.876 0-144.022-33.092-190.794-85.632l-0.224-0.257c6.183 0.4 13.407 0.627 20.683 0.627 188.513 0 341.333-152.82 341.333-341.333 0-7.291-0.229-14.528-0.679-21.706l0.049 0.982c52.809 47.105 85.901 115.347 85.901 191.317 0 141.375-114.598 255.983-255.969 256h-0.001z" />
<glyph unicode="&#xe90d;" glyph-name="coins-line" d="M597.333 874.667c0.049 0 0.106 0 0.163 0 188.513 0 341.333-152.82 341.333-341.333 0-137.68-81.515-256.32-198.915-310.293l-2.122-0.875c-54.928-119.319-173.464-200.663-310.999-200.663-188.513 0-341.333 152.82-341.333 341.333 0 137.535 81.343 256.071 198.545 310.123l2.118 0.876c54.929 119.415 173.535 200.832 311.158 200.832 0.018 0 0.037 0 0.055 0h-0.003zM426.667 618.667c-141.385 0-256-114.615-256-256s114.615-256 256-256v0c141.385 0 256 114.615 256 256s-114.615 256-256 256v0zM469.333 576v-42.667h85.333v-85.333h-170.667c-0.012 0-0.025 0-0.039 0-11.782 0-21.333-9.551-21.333-21.333 0-10.439 7.497-19.126 17.401-20.972l0.132-0.020 3.84-0.341h85.333c58.91 0 106.667-47.756 106.667-106.667s-47.756-106.667-106.667-106.667v0-42.667h-85.333v42.667h-85.333v85.333h170.667c0.012 0 0.025 0 0.039 0 11.782 0 21.333 9.551 21.333 21.333 0 10.439-7.497 19.126-17.401 20.972l-0.132 0.020-3.84 0.341h-85.333c-58.91 0-106.667 47.756-106.667 106.667s47.756 106.667 106.667 106.667v0 42.667h85.333zM597.333 789.333c-0.089 0-0.194 0-0.299 0-75.876 0-144.022-33.092-190.794-85.632l-0.224-0.257c6.183 0.4 13.407 0.627 20.683 0.627 188.513 0 341.333-152.82 341.333-341.333 0-7.291-0.229-14.528-0.679-21.706l0.049 0.982c52.809 47.105 85.901 115.347 85.901 191.317 0 141.375-114.598 255.983-255.969 256h-0.001z" />
<glyph unicode="&#xe90e;" glyph-name="copper-coin-fill" d="M512 21.333c-235.648 0-426.667 191.019-426.667 426.667s191.019 426.667 426.667 426.667 426.667-191.019 426.667-426.667-191.019-426.667-426.667-426.667zM512 629.035l-181.035-181.035 181.035-181.035 181.035 181.035-181.035 181.035z" />
<glyph unicode="&#xe90f;" glyph-name="copper-coin-line" d="M512 21.333c-235.648 0-426.667 191.019-426.667 426.667s191.019 426.667 426.667 426.667 426.667-191.019 426.667-426.667-191.019-426.667-426.667-426.667zM512 106.667c188.513 0 341.333 152.82 341.333 341.333s-152.82 341.333-341.333 341.333v0c-188.513 0-341.333-152.82-341.333-341.333s152.82-341.333 341.333-341.333v0zM512 659.2l211.2-211.2-211.2-211.2-211.2 211.2 211.2 211.2zM512 538.496l-90.496-90.496 90.496-90.496 90.496 90.496-90.496 90.496z" />
<glyph unicode="&#xe910;" glyph-name="copper-diamond-fill" d="M512 21.333c-235.648 0-426.667 191.019-426.667 426.667s191.019 426.667 426.667 426.667 426.667-191.019 426.667-426.667-191.019-426.667-426.667-426.667zM405.333 576l-106.667-106.667 213.333-213.333 213.333 213.333-106.667 106.667h-213.333z" />
<glyph unicode="&#xe911;" glyph-name="copper-diamond-line" d="M512 21.333c-235.648 0-426.667 191.019-426.667 426.667s191.019 426.667 426.667 426.667 426.667-191.019 426.667-426.667-191.019-426.667-426.667-426.667zM512 106.667c188.513 0 341.333 152.82 341.333 341.333s-152.82 341.333-341.333 341.333v0c-188.513 0-341.333-152.82-341.333-341.333s152.82-341.333 341.333-341.333v0zM384 618.667h256l106.667-149.333-234.667-234.667-234.667 234.667 106.667 149.333zM427.947 533.333l-39.253-55.040 123.307-123.307 123.307 123.307-39.253 55.040h-168.107z" />
<glyph unicode="&#xe912;" glyph-name="coupon-2-fill" d="M597.333 832v-768h-469.333c-23.564 0-42.667 19.103-42.667 42.667v0 234.667c58.91 0 106.667 47.756 106.667 106.667s-47.756 106.667-106.667 106.667v0 234.667c0 23.564 19.103 42.667 42.667 42.667v0h469.333zM682.667 832h213.333c23.564 0 42.667-19.103 42.667-42.667v0-234.667c-58.91 0-106.667-47.756-106.667-106.667s47.756-106.667 106.667-106.667v0-234.667c0-23.564-19.103-42.667-42.667-42.667v0h-213.333v768z" />
<glyph unicode="&#xe913;" glyph-name="coupon-2-line" d="M85.333 554.667v234.667c0 23.564 19.103 42.667 42.667 42.667v0h768c23.564 0 42.667-19.103 42.667-42.667v0-234.667c-58.91 0-106.667-47.756-106.667-106.667s47.756-106.667 106.667-106.667v0-234.667c0-23.564-19.103-42.667-42.667-42.667v0h-768c-23.564 0-42.667 19.103-42.667 42.667v0 234.667c58.91 0 106.667 47.756 106.667 106.667s-47.756 106.667-106.667 106.667v0zM597.333 746.667h-426.667v-126.635c63.764-32.114 106.742-97.054 106.742-172.032s-42.977-139.918-105.641-171.529l-1.101-0.503v-126.635h426.667v597.333zM682.667 746.667v-597.333h170.667v126.635c-63.764 32.114-106.742 97.054-106.742 172.032s42.977 139.918 105.641 171.529l1.101 0.503v126.635h-170.667z" />
<glyph unicode="&#xe914;" glyph-name="coupon-3-fill" d="M469.333 64c0 35.346-28.654 64-64 64s-64-28.654-64-64v0h-213.333c-23.564 0-42.667 19.103-42.667 42.667v0 682.667c0 23.564 19.103 42.667 42.667 42.667v0h213.333c0-35.346 28.654-64 64-64s64 28.654 64 64v0h426.667c23.564 0 42.667-19.103 42.667-42.667v0-234.667c-58.91 0-106.667-47.756-106.667-106.667s47.756-106.667 106.667-106.667v0-234.667c0-23.564-19.103-42.667-42.667-42.667v0h-426.667zM405.333 512c35.346 0 64 28.654 64 64s-28.654 64-64 64v0c-35.346 0-64-28.654-64-64s28.654-64 64-64v0zM405.333 256c35.346 0 64 28.654 64 64s-28.654 64-64 64v0c-35.346 0-64-28.654-64-64s28.654-64 64-64v0z" />
<glyph unicode="&#xe915;" glyph-name="coupon-3-line" d="M85.333 789.333c0 23.564 19.103 42.667 42.667 42.667v0h768c23.564 0 42.667-19.103 42.667-42.667v0-234.667c-58.91 0-106.667-47.756-106.667-106.667s47.756-106.667 106.667-106.667v0-234.667c0-23.564-19.103-42.667-42.667-42.667v0h-768c-23.564 0-42.667 19.103-42.667 42.667v0 682.667zM344.96 149.333c9.024 25.12 32.639 42.762 60.373 42.762s51.349-17.642 60.233-42.316l0.14-0.446h387.627v126.635c-63.764 32.114-106.742 97.054-106.742 172.032s42.977 139.918 105.641 171.529l1.101 0.503v126.635h-387.627c-9.024-25.12-32.639-42.762-60.373-42.762s-51.349 17.642-60.233 42.316l-0.14 0.446h-174.293v-597.333h174.293zM405.333 490.667c-35.346 0-64 28.654-64 64s28.654 64 64 64v0c35.346 0 64-28.654 64-64s-28.654-64-64-64v0zM405.333 277.333c-35.346 0-64 28.654-64 64s28.654 64 64 64v0c35.346 0 64-28.654 64-64s-28.654-64-64-64v0z" />
<glyph unicode="&#xe916;" glyph-name="coupon-4-fill" d="M426.667 64h-298.667c-23.564 0-42.667 19.103-42.667 42.667v0 682.667c0 23.564 19.103 42.667 42.667 42.667v0h298.667c0-47.128 38.205-85.333 85.333-85.333s85.333 38.205 85.333 85.333v0h298.667c23.564 0 42.667-19.103 42.667-42.667v0-682.667c0-23.564-19.103-42.667-42.667-42.667v0h-298.667c0 47.128-38.205 85.333-85.333 85.333s-85.333-38.205-85.333-85.333v0zM256 618.667v-341.333h85.333v341.333h-85.333zM682.667 618.667v-341.333h85.333v341.333h-85.333z" />
<glyph unicode="&#xe917;" glyph-name="coupon-4-line" d="M426.667 64h-298.667c-23.564 0-42.667 19.103-42.667 42.667v0 682.667c0 23.564 19.103 42.667 42.667 42.667v0h298.667c0-47.128 38.205-85.333 85.333-85.333s85.333 38.205 85.333 85.333v0h298.667c23.564 0 42.667-19.103 42.667-42.667v0-682.667c0-23.564-19.103-42.667-42.667-42.667v0h-298.667c0 47.128-38.205 85.333-85.333 85.333s-85.333-38.205-85.333-85.333v0zM364.16 149.333c30.037 51.372 84.929 85.333 147.752 85.333 0.031 0 0.062 0 0.092 0h-0.005c63.147 0 118.315-34.304 147.84-85.333h193.493v597.333h-193.493c-30.037-51.372-84.929-85.333-147.752-85.333-0.031 0-0.062 0-0.092 0h0.005c-0.026 0-0.057 0-0.088 0-62.824 0-117.715 33.962-147.317 84.528l-0.436 0.806h-193.493v-597.333h193.493zM256 618.667h85.333v-341.333h-85.333v341.333zM682.667 618.667h85.333v-341.333h-85.333v341.333z" />
<glyph unicode="&#xe918;" glyph-name="coupon-5-fill" d="M896 362.667v-298.667c0-23.564-19.103-42.667-42.667-42.667v0h-682.667c-23.564 0-42.667 19.103-42.667 42.667v0 298.667c47.128 0 85.333 38.205 85.333 85.333s-38.205 85.333-85.333 85.333v0 298.667c0 23.564 19.103 42.667 42.667 42.667v0h682.667c23.564 0 42.667-19.103 42.667-42.667v0-298.667c-47.128 0-85.333-38.205-85.333-85.333s38.205-85.333 85.333-85.333v0zM384 704v-85.333h256v85.333h-256zM384 277.333v-85.333h256v85.333h-256z" />
<glyph unicode="&#xe919;" glyph-name="coupon-5-line" d="M896 362.667v-298.667c0-23.564-19.103-42.667-42.667-42.667v0h-682.667c-23.564 0-42.667 19.103-42.667 42.667v0 298.667c47.128 0 85.333 38.205 85.333 85.333s-38.205 85.333-85.333 85.333v0 298.667c0 23.564 19.103 42.667 42.667 42.667v0h682.667c23.564 0 42.667-19.103 42.667-42.667v0-298.667c-47.128 0-85.333-38.205-85.333-85.333s38.205-85.333 85.333-85.333v0zM810.667 300.16c-51.372 30.037-85.333 84.929-85.333 147.752 0 0.031 0 0.062 0 0.092v-0.005c0 63.147 34.304 118.315 85.333 147.84v193.493h-597.333v-193.493c51.029-29.525 85.333-84.693 85.333-147.84s-34.304-118.315-85.333-147.84v-193.493h597.333v193.493zM384 704h256v-85.333h-256v85.333zM384 277.333h256v-85.333h-256v85.333z" />
<glyph unicode="&#xe91a;" glyph-name="coupon-fill" d="M85.333 554.667v234.667c0 23.564 19.103 42.667 42.667 42.667v0h768c23.564 0 42.667-19.103 42.667-42.667v0-234.667c-58.91 0-106.667-47.756-106.667-106.667s47.756-106.667 106.667-106.667v0-234.667c0-23.564-19.103-42.667-42.667-42.667v0h-768c-23.564 0-42.667 19.103-42.667 42.667v0 234.667c58.91 0 106.667 47.756 106.667 106.667s-47.756 106.667-106.667 106.667v0zM384 576v-85.333h256v85.333h-256zM384 405.333v-85.333h256v85.333h-256z" />
<glyph unicode="&#xe91b;" glyph-name="coupon-line" d="M85.333 554.667v234.667c0 23.564 19.103 42.667 42.667 42.667v0h768c23.564 0 42.667-19.103 42.667-42.667v0-234.667c-58.91 0-106.667-47.756-106.667-106.667s47.756-106.667 106.667-106.667v0-234.667c0-23.564-19.103-42.667-42.667-42.667v0h-768c-23.564 0-42.667 19.103-42.667 42.667v0 234.667c58.91 0 106.667 47.756 106.667 106.667s-47.756 106.667-106.667 106.667v0zM170.667 620.032c63.764-32.114 106.742-97.054 106.742-172.032s-42.977-139.918-105.641-171.529l-1.101-0.503v-126.635h682.667v126.635c-63.764 32.114-106.742 97.054-106.742 172.032s42.977 139.918 105.641 171.529l1.101 0.503v126.635h-682.667v-126.635zM384 576h256v-85.333h-256v85.333zM384 405.333h256v-85.333h-256v85.333z" />
<glyph unicode="&#xe91c;" glyph-name="currency-fill" d="M725.333 277.333h85.333v512h-426.667v-85.333h341.333v-426.667zM725.333 192v-128c0-23.552-19.2-42.667-42.965-42.667h-511.403c-0.076 0-0.166-0.001-0.256-0.001-23.573 0-42.685 19.098-42.709 42.665v0.002l0.128 597.333c0 23.552 19.2 42.667 42.965 42.667h127.573v128c0 23.564 19.103 42.667 42.667 42.667v0h512c23.564 0 42.667-19.103 42.667-42.667v0-597.333c0-23.564-19.103-42.667-42.667-42.667v0h-128zM298.667 277.333v-85.333h85.333v-42.667h85.333v42.667h21.333c58.91 0 106.667 47.756 106.667 106.667s-47.756 106.667-106.667 106.667v0h-128c-11.782 0-21.333 9.551-21.333 21.333s9.551 21.333 21.333 21.333v0h192v85.333h-85.333v42.667h-85.333v-42.667h-21.333c-58.91 0-106.667-47.756-106.667-106.667s47.756-106.667 106.667-106.667v0h128c11.782 0 21.333-9.551 21.333-21.333s-9.551-21.333-21.333-21.333v0h-192z" />
<glyph unicode="&#xe91d;" glyph-name="currency-line" d="M725.333 277.333h85.333v512h-426.667v-85.333h341.333v-426.667zM725.333 192v-128c0-23.552-19.2-42.667-42.965-42.667h-511.403c-0.076 0-0.166-0.001-0.256-0.001-23.573 0-42.685 19.098-42.709 42.665v0.002l0.128 597.333c0 23.552 19.2 42.667 42.965 42.667h127.573v128c0 23.564 19.103 42.667 42.667 42.667v0h512c23.564 0 42.667-19.103 42.667-42.667v0-597.333c0-23.564-19.103-42.667-42.667-42.667v0h-128zM213.461 618.667l-0.128-512h426.667v512h-426.539zM298.667 277.333h192c11.782 0 21.333 9.551 21.333 21.333s-9.551 21.333-21.333 21.333v0h-128c-58.91 0-106.667 47.756-106.667 106.667s47.756 106.667 106.667 106.667v0h21.333v42.667h85.333v-42.667h85.333v-85.333h-192c-11.782 0-21.333-9.551-21.333-21.333s9.551-21.333 21.333-21.333v0h128c58.91 0 106.667-47.756 106.667-106.667s-47.756-106.667-106.667-106.667v0h-21.333v-42.667h-85.333v42.667h-85.333v85.333z" />
<glyph unicode="&#xe91e;" glyph-name="exchange-box-fill" d="M128 832h768c23.564 0 42.667-19.103 42.667-42.667v0-682.667c0-23.564-19.103-42.667-42.667-42.667v0h-768c-23.564 0-42.667 19.103-42.667 42.667v0 682.667c0 23.564 19.103 42.667 42.667 42.667v0zM512 576h-170.667v-85.333h384l-213.333 213.333v-128zM298.667 405.333l213.333-213.333v128h170.667v85.333h-384z" />
<glyph unicode="&#xe91f;" glyph-name="exchange-box-line" d="M170.667 746.667v-597.333h682.667v597.333h-682.667zM128 832h768c23.564 0 42.667-19.103 42.667-42.667v0-682.667c0-23.564-19.103-42.667-42.667-42.667v0h-768c-23.564 0-42.667 19.103-42.667 42.667v0 682.667c0 23.564 19.103 42.667 42.667 42.667v0zM512 576v128l213.333-213.333h-384v85.333h170.667zM298.667 405.333h384v-85.333h-170.667v-128l-213.333 213.333z" />
<glyph unicode="&#xe920;" glyph-name="exchange-cny-fill" d="M229.248 767.573c74.669 66.478 173.632 107.094 282.082 107.094 0.236 0 0.471 0 0.706-0.001h-0.037c235.648 0 426.667-191.019 426.667-426.667 0-0.201 0.001-0.438 0.001-0.676 0-91.030-28.639-175.37-77.398-244.504l0.896 1.34-115.499 243.84h106.667c0 0.002 0 0.004 0 0.006 0 188.513-152.82 341.333-341.333 341.333-95.733 0-182.26-39.411-244.244-102.893l-0.066-0.068-38.4 81.152zM794.752 128.427c-74.669-66.478-173.632-107.094-282.082-107.094-0.236 0-0.471 0-0.706 0.001h0.037c-235.648 0-426.667 191.019-426.667 426.667 0 90.667 28.288 174.72 76.501 243.84l115.499-243.84h-106.667c0-0.002 0-0.004 0-0.006 0-188.513 152.82-341.333 341.333-341.333 95.733 0 182.26 39.411 244.244 102.893l0.066 0.068 38.4-81.152zM554.667 382.507h128v-85.333h-128v-85.333h-85.333v85.333h-128v85.333h128v42.667h-128v85.333h110.336l-90.539 90.496 60.416 60.331 90.453-90.496 90.496 90.496 60.373-60.331-90.539-90.539h110.336v-85.333h-128v-42.667z" />
<glyph unicode="&#xe921;" glyph-name="exchange-cny-line" d="M826.667 315.605c16.901 39.092 26.731 84.61 26.731 132.425 0 188.537-152.839 341.376-341.376 341.376-62.327 0-120.753-16.703-171.045-45.877l1.636 0.876-42.325 74.112c60.784 35.347 133.771 56.211 211.632 56.211 78.583 0 152.202-21.253 215.423-58.324l-2.010 1.089c191.573-110.592 264.96-347.392 175.659-544.853l57.259-33.024-177.707-94.464-7.040 201.131 53.163-30.677zM197.333 580.395c-16.901-39.092-26.731-84.61-26.731-132.425 0-188.537 152.839-341.376 341.376-341.376 62.327 0 120.753 16.703 171.045 45.877l-1.636-0.876 42.325-74.112c-60.784-35.347-133.771-56.211-211.632-56.211-78.583 0-152.202 21.253-215.423 58.324l2.010-1.089c-191.573 110.592-264.96 347.392-175.659 544.853l-57.301 32.981 177.707 94.464 7.040-201.131-53.163 30.677zM554.667 382.464h128v-85.333h-128v-85.333h-85.333v85.333h-128v85.333h128v42.667h-128v85.333h110.336l-90.539 90.539 60.416 60.331 90.453-90.496 90.496 90.496 60.373-60.331-90.539-90.539h110.336v-85.333h-128v-42.667z" />
<glyph unicode="&#xe922;" glyph-name="exchange-dollar-fill" d="M229.248 767.573c74.669 66.478 173.632 107.094 282.082 107.094 0.236 0 0.471 0 0.706-0.001h-0.037c235.648 0 426.667-191.019 426.667-426.667 0-0.201 0.001-0.438 0.001-0.676 0-91.030-28.639-175.37-77.398-244.504l0.896 1.34-115.499 243.84h106.667c0 0.002 0 0.004 0 0.006 0 188.513-152.82 341.333-341.333 341.333-95.733 0-182.26-39.411-244.244-102.893l-0.066-0.068-38.4 81.152zM794.752 128.427c-74.669-66.478-173.632-107.094-282.082-107.094-0.236 0-0.471 0-0.706 0.001h0.037c-235.648 0-426.667 191.019-426.667 426.667 0 90.667 28.288 174.72 76.501 243.84l115.499-243.84h-106.667c0-0.002 0-0.004 0-0.006 0-188.513 152.82-341.333 341.333-341.333 95.733 0 182.26 39.411 244.244 102.893l0.066 0.068 38.4-81.152zM362.667 362.667h234.667c11.782 0 21.333 9.551 21.333 21.333s-9.551 21.333-21.333 21.333v0h-170.667c-58.91 0-106.667 47.756-106.667 106.667s47.756 106.667 106.667 106.667v0h42.667v42.667h85.333v-42.667h106.667v-85.333h-234.667c-11.782 0-21.333-9.551-21.333-21.333s9.551-21.333 21.333-21.333v0h170.667c58.91 0 106.667-47.756 106.667-106.667s-47.756-106.667-106.667-106.667v0h-42.667v-42.667h-85.333v42.667h-106.667v85.333z" />
<glyph unicode="&#xe923;" glyph-name="exchange-dollar-line" d="M826.667 315.605c16.901 39.092 26.731 84.61 26.731 132.425 0 188.537-152.839 341.376-341.376 341.376-62.327 0-120.753-16.703-171.045-45.877l1.636 0.876-42.325 74.112c60.784 35.347 133.771 56.211 211.632 56.211 78.583 0 152.202-21.253 215.423-58.324l-2.010 1.089c191.573-110.592 264.96-347.392 175.659-544.853l57.259-33.024-177.707-94.464-7.040 201.131 53.163-30.677zM197.333 580.395c-16.901-39.092-26.731-84.61-26.731-132.425 0-188.537 152.839-341.376 341.376-341.376 62.327 0 120.753 16.703 171.045 45.877l-1.636-0.876 42.325-74.112c-60.784-35.347-133.771-56.211-211.632-56.211-78.583 0-152.202 21.253-215.423 58.324l2.010-1.089c-191.573 110.592-264.96 347.392-175.659 544.853l-57.301 32.981 177.707 94.464 7.040-201.131-53.163 30.677zM362.667 362.667h234.667c11.782 0 21.333 9.551 21.333 21.333s-9.551 21.333-21.333 21.333v0h-170.667c-58.91 0-106.667 47.756-106.667 106.667s47.756 106.667 106.667 106.667v0h42.667v42.667h85.333v-42.667h106.667v-85.333h-234.667c-11.782 0-21.333-9.551-21.333-21.333s9.551-21.333 21.333-21.333v0h170.667c58.91 0 106.667-47.756 106.667-106.667s-47.756-106.667-106.667-106.667v0h-42.667v-42.667h-85.333v42.667h-106.667v85.333z" />
<glyph unicode="&#xe924;" glyph-name="exchange-fill" d="M512 21.333c-235.648 0-426.667 191.019-426.667 426.667s191.019 426.667 426.667 426.667 426.667-191.019 426.667-426.667-191.019-426.667-426.667-426.667zM512 576h-170.667v-85.333h384l-213.333 213.333v-128zM298.667 405.333l213.333-213.333v128h170.667v85.333h-384z" />
<glyph unicode="&#xe925;" glyph-name="exchange-funds-fill" d="M229.248 767.573c74.669 66.478 173.632 107.094 282.082 107.094 0.236 0 0.471 0 0.706-0.001h-0.037c235.648 0 426.667-191.019 426.667-426.667 0-0.201 0.001-0.438 0.001-0.676 0-91.030-28.639-175.37-77.398-244.504l0.896 1.34-115.499 243.84h106.667c0 0.002 0 0.004 0 0.006 0 188.513-152.82 341.333-341.333 341.333-95.733 0-182.26-39.411-244.244-102.893l-0.066-0.068-38.4 81.152zM794.752 128.427c-74.669-66.478-173.632-107.094-282.082-107.094-0.236 0-0.471 0-0.706 0.001h0.037c-235.648 0-426.667 191.019-426.667 426.667 0 90.667 28.288 174.72 76.501 243.84l115.499-243.84h-106.667c0-0.002 0-0.004 0-0.006 0-188.513 152.82-341.333 341.333-341.333 95.733 0 182.26 39.411 244.244 102.893l0.066 0.068 38.4-81.152zM572.331 327.339l-120.661 120.661-120.704-120.661-60.331 60.331 181.035 180.992 120.661-120.661 120.704 120.661 60.331-60.331-181.035-180.992z" />
<glyph unicode="&#xe926;" glyph-name="exchange-funds-line" d="M826.667 315.605c16.901 39.092 26.731 84.61 26.731 132.425 0 188.537-152.839 341.376-341.376 341.376-62.327 0-120.753-16.703-171.045-45.877l1.636 0.876-42.325 74.112c60.784 35.347 133.771 56.211 211.632 56.211 78.583 0 152.202-21.253 215.423-58.324l-2.010 1.089c191.573-110.592 264.96-347.392 175.659-544.853l57.259-33.024-177.707-94.464-7.040 201.131 53.163-30.677zM197.333 580.395c-16.901-39.092-26.731-84.61-26.731-132.425 0-188.537 152.839-341.376 341.376-341.376 62.327 0 120.753 16.703 171.045 45.877l-1.636-0.876 42.325-74.112c-60.784-35.347-133.771-56.211-211.632-56.211-78.583 0-152.202 21.253-215.423 58.324l2.010-1.089c-191.573 110.592-264.96 347.392-175.659 544.853l-57.301 32.981 177.707 94.464 7.040-201.131-53.163 30.677zM572.373 327.339l-120.789 120.661-120.661-120.661-60.331 60.331 181.035 180.992 120.704-120.661 120.704 120.661 60.331-60.331-181.035-180.992z" />
<glyph unicode="&#xe927;" glyph-name="exchange-line" d="M512 21.333c-235.648 0-426.667 191.019-426.667 426.667s191.019 426.667 426.667 426.667 426.667-191.019 426.667-426.667-191.019-426.667-426.667-426.667zM512 106.667c188.513 0 341.333 152.82 341.333 341.333s-152.82 341.333-341.333 341.333v0c-188.513 0-341.333-152.82-341.333-341.333s152.82-341.333 341.333-341.333v0zM298.667 405.333h384v-85.333h-170.667v-128l-213.333 213.333zM512 576v128l213.333-213.333h-384v85.333h170.667z" />
<glyph unicode="&#xe928;" glyph-name="funds-box-fill" d="M128 832h768c23.564 0 42.667-19.103 42.667-42.667v0-682.667c0-23.564-19.103-42.667-42.667-42.667v0h-768c-23.564 0-42.667 19.103-42.667 42.667v0 682.667c0 23.564 19.103 42.667 42.667 42.667v0zM631.168 542.165l-104.533-104.533-90.496 90.539-181.035-181.035 60.331-60.331 120.704 120.661 90.496-90.496 164.864 164.864 76.501-76.501v213.333h-213.333l76.501-76.501z" />
<glyph unicode="&#xe929;" glyph-name="funds-box-line" d="M170.667 746.667v-597.333h682.667v597.333h-682.667zM128 832h768c23.564 0 42.667-19.103 42.667-42.667v0-682.667c0-23.564-19.103-42.667-42.667-42.667v0h-768c-23.564 0-42.667 19.103-42.667 42.667v0 682.667c0 23.564 19.103 42.667 42.667 42.667v0zM631.168 542.165l-76.501 76.501h213.333v-213.333l-76.501 76.501-164.864-164.864-90.496 90.496-120.704-120.661-60.331 60.331 181.035 181.035 90.496-90.539 104.533 104.533z" />
<glyph unicode="&#xe92a;" glyph-name="funds-fill" d="M166.272 197.973l166.827 166.827 120.704-120.661 195.029 194.987 76.501-76.459v213.333h-213.333l76.501-76.501-134.699-134.699-120.661 120.704-211.029-211.029c-23.235 50.872-36.779 110.345-36.779 172.98 0 0.192 0 0.383 0 0.574v-0.029c0 235.648 191.019 426.667 426.667 426.667s426.667-191.019 426.667-426.667-191.019-426.667-426.667-426.667c-0.083 0-0.181 0-0.279 0-141.631 0-267.123 69.098-344.604 175.423l-0.845 1.217z" />
<glyph unicode="&#xe92b;" glyph-name="funds-line" d="M187.989 340.352l145.152 145.152 120.661-120.704 134.699 134.699-76.501 76.501h213.333v-213.333l-76.501 76.501-195.029-195.029-120.661 120.661-105.6-105.557c62.051-92.428 166.169-152.441 284.303-152.441 188.513 0 341.333 152.82 341.333 341.333s-152.82 341.333-341.333 341.333c-188.513 0-341.333-152.82-341.333-341.333 0-38.571 6.398-75.649 18.19-110.228l-0.712 2.403zM122.368 273.877l-0.427 0.427 0.171 0.171c-23.235 50.872-36.779 110.345-36.779 172.98 0 0.192 0 0.383 0 0.574v-0.029c0 235.648 191.019 426.667 426.667 426.667s426.667-191.019 426.667-426.667-191.019-426.667-426.667-426.667c-173.653 0-322.987 103.68-389.632 252.544z" />
<glyph unicode="&#xe92c;" glyph-name="gift-2-fill" d="M853.333 405.333v-298.667c0-23.564-19.103-42.667-42.667-42.667v0h-597.333c-23.564 0-42.667 19.103-42.667 42.667v0 298.667h682.667zM618.667 874.667c0.015 0 0.033 0 0.051 0 82.475 0 149.333-66.859 149.333-149.333 0-23.272-5.323-45.3-14.818-64.934l0.389 0.891 142.379 0.043c23.564 0 42.667-19.103 42.667-42.667v0-128c0-23.564-19.103-42.667-42.667-42.667v0h-768c-23.564 0-42.667 19.103-42.667 42.667v0 128c0 23.564 19.103 42.667 42.667 42.667v0l142.379-0.043c-9.15 18.781-14.499 40.86-14.499 64.188 0 82.475 66.859 149.333 149.333 149.333 41.855 0 79.688-17.219 106.802-44.96l0.028-0.028c26.996 27.677 64.657 44.843 106.328 44.843 0.104 0 0.208 0 0.312 0h-0.016zM405.333 789.333c-35.333-0.018-63.968-28.665-63.968-64 0-33.172 25.236-60.449 57.557-63.68l0.267-0.022 6.144-0.299h64v64c-0.002 33.181-25.254 60.464-57.59 63.68l-0.266 0.021-6.144 0.299zM618.667 789.333l-6.144-0.299c-30.51-3.009-54.568-27.052-57.579-57.291l-0.021-0.267-0.256-6.144v-64h64l6.144 0.299c32.588 3.253 57.824 30.53 57.824 63.701s-25.236 60.449-57.557 63.68l-0.267 0.022-6.144 0.299z" />
<glyph unicode="&#xe92d;" glyph-name="gift-2-line" d="M618.667 874.667c0.015 0 0.033 0 0.051 0 82.475 0 149.333-66.859 149.333-149.333 0-23.272-5.323-45.3-14.818-64.934l0.389 0.891 142.379 0.043c23.564 0 42.667-19.103 42.667-42.667v0-170.667c0-23.564-19.103-42.667-42.667-42.667v0h-42.667v-341.333c0-23.564-19.103-42.667-42.667-42.667v0h-597.333c-23.564 0-42.667 19.103-42.667 42.667v0 341.333h-42.667c-23.564 0-42.667 19.103-42.667 42.667v0 170.667c0 23.564 19.103 42.667 42.667 42.667v0l142.379-0.043c-9.15 18.781-14.499 40.86-14.499 64.188 0 82.475 66.859 149.333 149.333 149.333 41.855 0 79.688-17.219 106.802-44.96l0.028-0.028c26.996 27.677 64.657 44.843 106.328 44.843 0.104 0 0.208 0 0.312 0h-0.016zM768 405.333h-512v-298.667h512v298.667zM853.333 576h-682.667v-85.333h682.667v85.333zM405.333 789.333c-35.333-0.018-63.968-28.665-63.968-64 0-33.172 25.236-60.449 57.557-63.68l0.267-0.022 6.144-0.299h64v64c-0.002 33.181-25.254 60.464-57.59 63.68l-0.266 0.021-6.144 0.299zM618.667 789.333l-6.144-0.299c-30.51-3.009-54.568-27.052-57.579-57.291l-0.021-0.267-0.256-6.144v-64h64l6.144 0.299c32.588 3.253 57.824 30.53 57.824 63.701s-25.236 60.449-57.557 63.68l-0.267 0.022-6.144 0.299z" />
<glyph unicode="&#xe92e;" glyph-name="gift-fill" d="M640 874.667c0.006 0 0.013 0 0.020 0 94.257 0 170.667-76.41 170.667-170.667 0-31.436-8.499-60.887-23.326-86.181l0.436 0.805 193.536 0.043v-85.333h-85.333v-426.667c0-23.564-19.103-42.667-42.667-42.667v0h-682.667c-23.564 0-42.667 19.103-42.667 42.667v0 426.667h-85.333v85.333l193.536-0.043c-14.381 24.482-22.875 53.924-22.875 85.35 0 94.257 76.41 170.667 170.667 170.667 50.891 0 96.58-22.275 127.848-57.607l0.157-0.181c31.302 35.522 76.898 57.814 127.701 57.814 0.105 0 0.21 0 0.316 0h-0.016zM554.667 533.333h-85.333v-426.667h85.333v426.667zM384 789.333c-0.113 0.001-0.248 0.001-0.382 0.001-47.128 0-85.333-38.205-85.333-85.333 0-45.011 34.849-81.882 79.037-85.105l0.278-0.016 6.4-0.213h85.333v85.333c0 0.001 0 0.002 0 0.004 0 42.565-31.165 77.852-71.922 84.285l-0.483 0.063-6.571 0.768-6.357 0.213zM640 789.333c-0.008 0-0.018 0-0.027 0-44.876 0-81.661-34.641-85.075-78.641l-0.018-0.293-0.213-6.4v-85.333h85.333c0.008 0 0.018 0 0.027 0 44.876 0 81.661 34.641 85.075 78.641l0.018 0.293 0.213 6.4c0 47.128-38.205 85.333-85.333 85.333v0z" />
<glyph unicode="&#xe92f;" glyph-name="gift-line" d="M640 874.667c0.006 0 0.013 0 0.020 0 94.257 0 170.667-76.41 170.667-170.667 0-31.436-8.499-60.887-23.326-86.181l0.436 0.805 193.536 0.043v-85.333h-85.333v-426.667c0-23.564-19.103-42.667-42.667-42.667v0h-682.667c-23.564 0-42.667 19.103-42.667 42.667v0 426.667h-85.333v85.333l193.536-0.043c-14.381 24.482-22.875 53.924-22.875 85.35 0 94.257 76.41 170.667 170.667 170.667 50.891 0 96.58-22.275 127.848-57.607l0.157-0.181c31.302 35.522 76.898 57.814 127.701 57.814 0.105 0 0.21 0 0.316 0h-0.016zM469.333 533.333h-256v-384h256v384zM810.667 533.333h-256v-384h256v384zM384 789.333c-0.113 0.001-0.248 0.001-0.382 0.001-47.128 0-85.333-38.205-85.333-85.333 0-45.011 34.849-81.882 79.037-85.105l0.278-0.016 6.4-0.213h85.333v85.333c0 0.001 0 0.002 0 0.004 0 42.565-31.165 77.852-71.922 84.285l-0.483 0.063-6.571 0.768-6.357 0.213zM640 789.333c-0.008 0-0.018 0-0.027 0-44.876 0-81.661-34.641-85.075-78.641l-0.018-0.293-0.213-6.4v-85.333h85.333c0.008 0 0.018 0 0.027 0 44.876 0 81.661 34.641 85.075 78.641l0.018 0.293 0.213 6.4c0 47.128-38.205 85.333-85.333 85.333v0z" />
<glyph unicode="&#xe930;" glyph-name="hand-coin-fill" d="M398.080 469.333h92.587c106.039 0 192-85.961 192-192v0h-298.709l0.043-42.667h341.333v42.667c-0.145 47.568-14.223 91.818-38.364 128.92l0.561-0.92h123.136c0.017 0 0.038 0 0.059 0 84.497 0 157.521-49.125 192.068-120.373l0.556-1.27c-100.907-133.163-264.277-219.691-448.683-219.691-117.803 0-217.6 25.173-298.667 69.333v396.971c54.444-7.992 102.745-29.684 142.688-61.438l-0.608 0.467zM213.333 149.333c0-23.564-19.103-42.667-42.667-42.667v0h-85.333c-23.564 0-42.667 19.103-42.667 42.667v0 384c0 23.564 19.103 42.667 42.667 42.667v0h85.333c23.564 0 42.667-19.103 42.667-42.667v0-384zM768 746.667c70.692 0 128-57.308 128-128s-57.308-128-128-128v0c-70.692 0-128 57.308-128 128s57.308 128 128 128v0zM469.333 874.667c70.692 0 128-57.308 128-128s-57.308-128-128-128v0c-70.692 0-128 57.308-128 128s57.308 128 128 128v0z" />
<glyph unicode="&#xe931;" glyph-name="hand-coin-line" d="M213.333 576c23.564 0 42.667-19.103 42.667-42.667v0c0.13 0 0.284 0 0.438 0 69.892 0 134.152-24.111 184.918-64.468l-0.609 0.468h92.587c56.875 0 107.947-24.747 143.104-64h134.229c0.017 0 0.038 0 0.059 0 84.497 0 157.521-49.125 192.068-120.373l0.556-1.27c-100.907-133.163-264.277-219.691-448.683-219.691-119.040 0-219.733 25.728-301.227 70.741-6.109-16.515-21.722-28.075-40.034-28.075-0.026 0-0.051 0-0.077 0h-127.996c-23.564 0-42.667 19.103-42.667 42.667v0 384c0 23.564 19.103 42.667 42.667 42.667v0h128zM256.043 448l-0.043-214.272 1.92-1.365c76.587-53.76 176.341-83.029 296.747-83.029 128.171 0 247.424 49.323 334.293 133.547l5.675 5.675-5.12 4.267c-19.252 15.189-43.375 25.011-69.698 26.857l-0.403 0.023-8.747 0.299h-90.069c3.072-13.739 4.736-27.989 4.736-42.667v-42.667h-384v85.333l289.707 0.043-1.451 3.328c-16.587 34.091-49.877 57.751-88.931 60.398l-0.327 0.018-6.997 0.213h-125.013c-38.65 39.506-92.505 64-152.081 64-0.054 0-0.108 0-0.162 0h0.008zM170.667 490.667h-42.667v-298.667h42.667v298.667zM768 746.667c70.692 0 128-57.308 128-128s-57.308-128-128-128v0c-70.692 0-128 57.308-128 128s57.308 128 128 128v0zM768 661.333c-23.564 0-42.667-19.103-42.667-42.667s19.103-42.667 42.667-42.667v0c23.564 0 42.667 19.103 42.667 42.667s-19.103 42.667-42.667 42.667v0zM469.333 874.667c70.692 0 128-57.308 128-128s-57.308-128-128-128v0c-70.692 0-128 57.308-128 128s57.308 128 128 128v0zM469.333 789.333c-23.564 0-42.667-19.103-42.667-42.667s19.103-42.667 42.667-42.667v0c23.564 0 42.667 19.103 42.667 42.667s-19.103 42.667-42.667 42.667v0z" />
<glyph unicode="&#xe932;" glyph-name="hand-heart-fill" d="M398.080 469.333h92.587c106.039 0 192-85.961 192-192v0h-298.709l0.043-42.667h341.333v42.667c-0.145 47.568-14.223 91.818-38.364 128.92l0.561-0.92h123.136c0.017 0 0.038 0 0.059 0 84.497 0 157.521-49.125 192.068-120.373l0.556-1.27c-100.907-133.163-264.277-219.691-448.683-219.691-117.803 0-217.6 25.173-298.667 69.333v396.971c54.444-7.992 102.745-29.684 142.688-61.438l-0.608 0.467zM170.667 576c21.803-0.003 39.784-16.359 42.348-37.47l0.020-0.205 0.299-4.992v-384c0-23.564-19.103-42.667-42.667-42.667v0h-85.333c-23.564 0-42.667 19.103-42.667 42.667v0 384c0 23.564 19.103 42.667 42.667 42.667v0h85.333zM582.229 807.467l15.104-15.147 15.104 15.104c19.334 19.494 46.129 31.562 75.744 31.562 58.91 0 106.667-47.756 106.667-106.667 0-29.625-12.077-56.429-31.576-75.757l-165.939-165.896-165.973 165.973c-19.494 19.334-31.562 46.129-31.562 75.744 0 58.91 47.756 106.667 106.667 106.667 29.625 0 56.429-12.077 75.757-31.576l0.008-0.008z" />
<glyph unicode="&#xe933;" glyph-name="hand-heart-line" d="M213.333 576c23.564 0 42.667-19.103 42.667-42.667v0c0.13 0 0.284 0 0.438 0 69.892 0 134.152-24.111 184.918-64.468l-0.609 0.468h92.587c56.832 0 107.947-24.704 143.061-63.957l134.272-0.043c0.017 0 0.038 0 0.059 0 84.497 0 157.521-49.125 192.068-120.373l0.556-1.27c-100.907-133.163-264.277-219.691-448.683-219.691-119.040 0-219.733 25.728-301.227 70.741-6.109-16.515-21.722-28.075-40.034-28.075-0.026 0-0.051 0-0.077 0h-127.996c-23.564 0-42.667 19.103-42.667 42.667v0 384c0 23.564 19.103 42.667 42.667 42.667v0h128zM256.043 448l-0.043-214.229 1.92-1.408c76.587-53.76 176.341-83.029 296.747-83.029 128.171 0 247.424 49.323 334.293 133.547l5.675 5.675-5.12 4.267c-19.252 15.189-43.375 25.011-69.698 26.857l-0.403 0.023-8.747 0.299-90.112 0.043c3.115-13.739 4.779-28.032 4.779-42.709v-42.667h-384v85.333l289.707 0.043-1.451 3.328c-16.587 34.091-49.877 57.751-88.931 60.398l-0.327 0.018-6.997 0.213h-125.013c-38.65 39.506-92.505 64-152.081 64-0.054 0-0.108 0-0.162 0h0.008zM170.667 490.667h-42.667v-298.667h42.667v298.667zM582.229 807.467l15.104-15.147 15.104 15.104c19.334 19.494 46.129 31.562 75.744 31.562 58.91 0 106.667-47.756 106.667-106.667 0-29.625-12.077-56.429-31.576-75.757l-165.939-165.896-165.973 165.973c-19.494 19.334-31.562 46.129-31.562 75.744 0 58.91 47.756 106.667 106.667 106.667 29.625 0 56.429-12.077 75.757-31.576l0.008-0.008zM491.776 747.093c-3.886-3.865-6.29-9.215-6.29-15.127 0-4.503 1.395-8.68 3.777-12.123l-0.046 0.071 2.475-2.944 105.643-105.557 105.643 105.557c3.866 3.861 6.257 9.198 6.257 15.094 0 4.535-1.415 8.74-3.828 12.197l0.046-0.069-2.475 2.987c-3.859 3.851-9.186 6.232-15.068 6.232-4.546 0-8.76-1.422-12.222-3.846l0.069 0.046-2.987-2.475-75.477-75.435-75.392 75.52-2.901 2.389c-3.387 2.367-7.592 3.782-12.128 3.782-5.895 0-11.232-2.391-15.094-6.257v0z" />
<glyph unicode="&#xe934;" glyph-name="increase-decrease-fill" d="M128 832h768c23.564 0 42.667-19.103 42.667-42.667v0-682.667c0-23.564-19.103-42.667-42.667-42.667v0h-768c-23.564 0-42.667 19.103-42.667 42.667v0 682.667c0 23.564 19.103 42.667 42.667 42.667v0zM384 490.667v85.333h-85.333v-85.333h-85.333v-85.333h85.333v-85.333h85.333v85.333h85.333v85.333h-85.333zM554.667 490.667v-85.333h256v85.333h-256z" />
<glyph unicode="&#xe935;" glyph-name="increase-decrease-line" d="M128 832h768c23.564 0 42.667-19.103 42.667-42.667v0-682.667c0-23.564-19.103-42.667-42.667-42.667v0h-768c-23.564 0-42.667 19.103-42.667 42.667v0 682.667c0 23.564 19.103 42.667 42.667 42.667v0zM170.667 746.667v-597.333h682.667v597.333h-682.667zM384 490.667h85.333v-85.333h-85.333v-85.333h-85.333v85.333h-85.333v85.333h85.333v85.333h85.333v-85.333zM554.667 490.667h256v-85.333h-256v85.333z" />
<glyph unicode="&#xe936;" glyph-name="money-cny-box-fill" d="M128 832h768c23.564 0 42.667-19.103 42.667-42.667v0-682.667c0-23.564-19.103-42.667-42.667-42.667v0h-768c-23.564 0-42.667 19.103-42.667 42.667v0 682.667c0 23.564 19.103 42.667 42.667 42.667v0zM554.667 405.333v42.667h128v85.333h-110.336l90.539 90.496-60.373 60.373-90.496-90.539-90.496 90.539-60.373-60.416 90.539-90.453h-110.336v-85.333h128v-42.667h-128v-85.333h128v-85.333h85.333v85.333h128v85.333h-128z" />
<glyph unicode="&#xe937;" glyph-name="money-cny-box-line" d="M128 832h768c23.564 0 42.667-19.103 42.667-42.667v0-682.667c0-23.564-19.103-42.667-42.667-42.667v0h-768c-23.564 0-42.667 19.103-42.667 42.667v0 682.667c0 23.564 19.103 42.667 42.667 42.667v0zM170.667 746.667v-597.333h682.667v597.333h-682.667zM554.667 405.333h128v-85.333h-128v-85.333h-85.333v85.333h-128v85.333h128v42.667h-128v85.333h110.336l-90.539 90.496 60.416 60.373 90.453-90.539 90.496 90.539 60.373-60.373-90.539-90.496h110.336v-85.333h-128v-42.667z" />
<glyph unicode="&#xe938;" glyph-name="money-cny-circle-fill" d="M512 21.333c-235.648 0-426.667 191.019-426.667 426.667s191.019 426.667 426.667 426.667 426.667-191.019 426.667-426.667-191.019-426.667-426.667-426.667zM554.667 405.333v42.667h128v85.333h-110.336l90.539 90.496-60.373 60.373-90.496-90.539-90.496 90.539-60.373-60.416 90.539-90.453h-110.336v-85.333h128v-42.667h-128v-85.333h128v-85.333h85.333v85.333h128v85.333h-128z" />
<glyph unicode="&#xe939;" glyph-name="money-cny-circle-line" d="M512 21.333c-235.648 0-426.667 191.019-426.667 426.667s191.019 426.667 426.667 426.667 426.667-191.019 426.667-426.667-191.019-426.667-426.667-426.667zM512 106.667c188.513 0 341.333 152.82 341.333 341.333s-152.82 341.333-341.333 341.333v0c-188.513 0-341.333-152.82-341.333-341.333s152.82-341.333 341.333-341.333v0zM554.667 405.333h128v-85.333h-128v-85.333h-85.333v85.333h-128v85.333h128v42.667h-128v85.333h110.336l-90.539 90.496 60.416 60.373 90.453-90.539 90.496 90.539 60.373-60.373-90.539-90.496h110.336v-85.333h-128v-42.667z" />
<glyph unicode="&#xe93a;" glyph-name="money-dollar-box-fill" d="M128 832h768c23.564 0 42.667-19.103 42.667-42.667v0-682.667c0-23.564-19.103-42.667-42.667-42.667v0h-768c-23.564 0-42.667 19.103-42.667 42.667v0 682.667c0 23.564 19.103 42.667 42.667 42.667v0zM362.667 362.667v-85.333h106.667v-85.333h85.333v85.333h42.667c58.91 0 106.667 47.756 106.667 106.667s-47.756 106.667-106.667 106.667v0h-170.667c-11.782 0-21.333 9.551-21.333 21.333s9.551 21.333 21.333 21.333v0h234.667v85.333h-106.667v85.333h-85.333v-85.333h-42.667c-58.91 0-106.667-47.756-106.667-106.667s47.756-106.667 106.667-106.667v0h170.667c11.782 0 21.333-9.551 21.333-21.333s-9.551-21.333-21.333-21.333v0h-234.667z" />
<glyph unicode="&#xe93b;" glyph-name="money-dollar-box-line" d="M128 832h768c23.564 0 42.667-19.103 42.667-42.667v0-682.667c0-23.564-19.103-42.667-42.667-42.667v0h-768c-23.564 0-42.667 19.103-42.667 42.667v0 682.667c0 23.564 19.103 42.667 42.667 42.667v0zM170.667 746.667v-597.333h682.667v597.333h-682.667zM362.667 362.667h234.667c11.782 0 21.333 9.551 21.333 21.333s-9.551 21.333-21.333 21.333v0h-170.667c-58.91 0-106.667 47.756-106.667 106.667s47.756 106.667 106.667 106.667v0h42.667v85.333h85.333v-85.333h106.667v-85.333h-234.667c-11.782 0-21.333-9.551-21.333-21.333s9.551-21.333 21.333-21.333v0h170.667c58.91 0 106.667-47.756 106.667-106.667s-47.756-106.667-106.667-106.667v0h-42.667v-85.333h-85.333v85.333h-106.667v85.333z" />
<glyph unicode="&#xe93c;" glyph-name="money-dollar-circle-fill" d="M512 21.333c-235.648 0-426.667 191.019-426.667 426.667s191.019 426.667 426.667 426.667 426.667-191.019 426.667-426.667-191.019-426.667-426.667-426.667zM362.667 362.667v-85.333h106.667v-85.333h85.333v85.333h42.667c58.91 0 106.667 47.756 106.667 106.667s-47.756 106.667-106.667 106.667v0h-170.667c-11.782 0-21.333 9.551-21.333 21.333s9.551 21.333 21.333 21.333v0h234.667v85.333h-106.667v85.333h-85.333v-85.333h-42.667c-58.91 0-106.667-47.756-106.667-106.667s47.756-106.667 106.667-106.667v0h170.667c11.782 0 21.333-9.551 21.333-21.333s-9.551-21.333-21.333-21.333v0h-234.667z" />
<glyph unicode="&#xe93d;" glyph-name="money-dollar-circle-line" d="M512 21.333c-235.648 0-426.667 191.019-426.667 426.667s191.019 426.667 426.667 426.667 426.667-191.019 426.667-426.667-191.019-426.667-426.667-426.667zM512 106.667c188.513 0 341.333 152.82 341.333 341.333s-152.82 341.333-341.333 341.333v0c-188.513 0-341.333-152.82-341.333-341.333s152.82-341.333 341.333-341.333v0zM362.667 362.667h234.667c11.782 0 21.333 9.551 21.333 21.333s-9.551 21.333-21.333 21.333v0h-170.667c-58.91 0-106.667 47.756-106.667 106.667s47.756 106.667 106.667 106.667v0h42.667v85.333h85.333v-85.333h106.667v-85.333h-234.667c-11.782 0-21.333-9.551-21.333-21.333s9.551-21.333 21.333-21.333v0h170.667c58.91 0 106.667-47.756 106.667-106.667s-47.756-106.667-106.667-106.667v0h-42.667v-85.333h-85.333v85.333h-106.667v85.333z" />
<glyph unicode="&#xe93e;" glyph-name="money-euro-box-fill" d="M128 832h768c23.564 0 42.667-19.103 42.667-42.667v0-682.667c0-23.564-19.103-42.667-42.667-42.667v0h-768c-23.564 0-42.667 19.103-42.667 42.667v0 682.667c0 23.564 19.103 42.667 42.667 42.667v0zM428.8 490.667c10.254 49.058 53.146 85.379 104.521 85.379 26.326 0 50.425-9.537 69.029-25.345l-0.153 0.126 72.576 48.341c-35.212 38.264-85.534 62.154-141.435 62.154-98.518 0-179.706-74.201-190.726-169.766l-0.083-0.89h-43.861v-85.333h43.819c11.084-96.474 92.281-170.697 190.814-170.697 55.921 0 106.259 23.907 141.349 62.059l0.124 0.137-72.576 48.384c-18.453-15.685-42.555-25.225-68.884-25.225-51.362 0-94.245 36.302-104.391 84.648l-0.122 0.694 211.2-0.043v85.333h-211.2z" />
<glyph unicode="&#xe93f;" glyph-name="money-euro-box-line" d="M128 832h768c23.564 0 42.667-19.103 42.667-42.667v0-682.667c0-23.564-19.103-42.667-42.667-42.667v0h-768c-23.564 0-42.667 19.103-42.667 42.667v0 682.667c0 23.564 19.103 42.667 42.667 42.667v0zM170.667 746.667v-597.333h682.667v597.333h-682.667zM428.8 490.667h211.2v-85.333h-211.2c10.254-49.058 53.146-85.379 104.521-85.379 26.326 0 50.425 9.537 69.029 25.345l-0.153-0.126 72.533-48.341c-35.21-38.239-85.516-62.113-141.397-62.113-98.504 0-179.682 74.179-190.721 169.723l-0.084 0.891h-43.861v85.333h43.819c11.084 96.474 92.281 170.697 190.814 170.697 55.921 0 106.259-23.907 141.349-62.059l0.124-0.137-72.576-48.341c-18.452 15.681-42.55 25.219-68.877 25.219-51.375 0-94.267-36.32-104.399-84.685l-0.122-0.694z" />
<glyph unicode="&#xe940;" glyph-name="money-euro-circle-fill" d="M512 21.333c-235.648 0-426.667 191.019-426.667 426.667s191.019 426.667 426.667 426.667 426.667-191.019 426.667-426.667-191.019-426.667-426.667-426.667zM428.8 490.667c10.254 49.058 53.146 85.379 104.521 85.379 26.326 0 50.425-9.537 69.029-25.345l-0.153 0.126 72.576 48.341c-35.212 38.264-85.534 62.154-141.435 62.154-98.518 0-179.706-74.201-190.726-169.766l-0.083-0.89h-43.861v-85.333h43.819c11.084-96.474 92.281-170.697 190.814-170.697 55.921 0 106.259 23.907 141.349 62.059l0.124 0.137-72.576 48.384c-18.453-15.685-42.555-25.225-68.884-25.225-51.362 0-94.245 36.302-104.391 84.648l-0.122 0.694 211.2-0.043v85.333h-211.2z" />
<glyph unicode="&#xe941;" glyph-name="money-euro-circle-line" d="M512 21.333c-235.648 0-426.667 191.019-426.667 426.667s191.019 426.667 426.667 426.667 426.667-191.019 426.667-426.667-191.019-426.667-426.667-426.667zM512 106.667c188.513 0 341.333 152.82 341.333 341.333s-152.82 341.333-341.333 341.333v0c-188.513 0-341.333-152.82-341.333-341.333s152.82-341.333 341.333-341.333v0zM428.8 490.667h211.2v-85.333h-211.2c10.254-49.058 53.146-85.379 104.521-85.379 26.326 0 50.425 9.537 69.029 25.345l-0.153-0.126 72.533-48.341c-35.21-38.239-85.516-62.113-141.397-62.113-98.504 0-179.682 74.179-190.721 169.723l-0.084 0.891h-43.861v85.333h43.819c11.084 96.474 92.281 170.697 190.814 170.697 55.921 0 106.259-23.907 141.349-62.059l0.124-0.137-72.576-48.341c-18.452 15.681-42.55 25.219-68.877 25.219-51.375 0-94.267-36.32-104.399-84.685l-0.122-0.694z" />
<glyph unicode="&#xe942;" glyph-name="money-pound-box-fill" d="M128 832h768c23.564 0 42.667-19.103 42.667-42.667v0-682.667c0-23.564-19.103-42.667-42.667-42.667v0h-768c-23.564 0-42.667 19.103-42.667 42.667v0 682.667c0 23.564 19.103 42.667 42.667 42.667v0zM384 405.333v-85.333h-42.667v-85.333h341.333v85.333h-213.333v85.333h128v85.333h-128v42.667c0 0.014 0 0.031 0 0.048 0 35.346 28.654 64 64 64 22.441 0 42.184-11.55 53.61-29.030l0.15-0.245 84.736 21.163c-22.78 55.18-76.164 93.306-138.453 93.306-82.451 0-149.3-66.802-149.376-149.235v-42.674h-42.667v-85.333h42.667z" />
<glyph unicode="&#xe943;" glyph-name="money-pound-box-line" d="M128 832h768c23.564 0 42.667-19.103 42.667-42.667v0-682.667c0-23.564-19.103-42.667-42.667-42.667v0h-768c-23.564 0-42.667 19.103-42.667 42.667v0 682.667c0 23.564 19.103 42.667 42.667 42.667v0zM170.667 746.667v-597.333h682.667v597.333h-682.667zM384 405.333h-42.667v85.333h42.667v42.667c0 0.025 0 0.055 0 0.085 0 82.475 66.859 149.333 149.333 149.333 62.348 0 115.773-38.209 138.134-92.489l0.362-0.993-84.736-21.163c-11.557 17.782-31.326 29.377-53.803 29.377-35.323 0-63.957-28.635-63.957-63.957 0-0.068 0-0.136 0-0.204v0.010-42.667h128v-85.333h-128v-85.333h213.333v-85.333h-341.333v85.333h42.667v85.333z" />
<glyph unicode="&#xe944;" glyph-name="money-pound-circle-fill" d="M512 21.333c-235.648 0-426.667 191.019-426.667 426.667s191.019 426.667 426.667 426.667 426.667-191.019 426.667-426.667-191.019-426.667-426.667-426.667zM384 405.333v-85.333h-42.667v-85.333h341.333v85.333h-213.333v85.333h128v85.333h-128v42.667c0 0.014 0 0.031 0 0.048 0 35.346 28.654 64 64 64 22.441 0 42.184-11.55 53.61-29.030l0.15-0.245 84.736 21.163c-22.78 55.18-76.164 93.306-138.453 93.306-82.451 0-149.3-66.802-149.376-149.235v-42.674h-42.667v-85.333h42.667z" />
<glyph unicode="&#xe945;" glyph-name="money-pound-circle-line" d="M512 21.333c-235.648 0-426.667 191.019-426.667 426.667s191.019 426.667 426.667 426.667 426.667-191.019 426.667-426.667-191.019-426.667-426.667-426.667zM512 106.667c188.513 0 341.333 152.82 341.333 341.333s-152.82 341.333-341.333 341.333v0c-188.513 0-341.333-152.82-341.333-341.333s152.82-341.333 341.333-341.333v0zM384 405.333h-42.667v85.333h42.667v42.667c0 0.025 0 0.055 0 0.085 0 82.475 66.859 149.333 149.333 149.333 62.348 0 115.773-38.209 138.134-92.489l0.362-0.993-84.736-21.163c-11.557 17.782-31.326 29.377-53.803 29.377-35.323 0-63.957-28.635-63.957-63.957 0-0.068 0-0.136 0-0.204v0.010-42.667h128v-85.333h-128v-85.333h213.333v-85.333h-341.333v85.333h42.667v85.333z" />
<glyph unicode="&#xe946;" glyph-name="percent-fill" d="M746.667 64c-82.475 0-149.333 66.859-149.333 149.333s66.859 149.333 149.333 149.333v0c82.475 0 149.333-66.859 149.333-149.333s-66.859-149.333-149.333-149.333v0zM277.333 533.333c-82.475 0-149.333 66.859-149.333 149.333s66.859 149.333 149.333 149.333v0c82.475 0 149.333-66.859 149.333-149.333s-66.859-149.333-149.333-149.333v0zM813.696 810.027l60.331-60.331-663.68-663.723-60.331 60.331 663.637 663.723z" />
<glyph unicode="&#xe947;" glyph-name="percent-line" d="M746.667 64c-82.475 0-149.333 66.859-149.333 149.333s66.859 149.333 149.333 149.333v0c82.475 0 149.333-66.859 149.333-149.333s-66.859-149.333-149.333-149.333v0zM746.667 149.333c35.346 0 64 28.654 64 64s-28.654 64-64 64v0c-35.346 0-64-28.654-64-64s28.654-64 64-64v0zM277.333 533.333c-82.475 0-149.333 66.859-149.333 149.333s66.859 149.333 149.333 149.333v0c82.475 0 149.333-66.859 149.333-149.333s-66.859-149.333-149.333-149.333v0zM277.333 618.667c35.346 0 64 28.654 64 64s-28.654 64-64 64v0c-35.346 0-64-28.654-64-64s28.654-64 64-64v0zM813.696 810.027l60.331-60.331-663.68-663.723-60.331 60.331 663.637 663.723z" />
<glyph unicode="&#xe948;" glyph-name="price-tag-2-fill" d="M128 661.333l360.32 240.213c6.653 4.494 14.854 7.174 23.68 7.174s17.027-2.68 23.832-7.271l-0.152 0.096 360.32-240.213v-597.333c0-23.564-19.103-42.667-42.667-42.667v0h-682.667c-23.564 0-42.667 19.103-42.667 42.667v0 597.333zM512 490.667c47.128 0 85.333 38.205 85.333 85.333s-38.205 85.333-85.333 85.333v0c-47.128 0-85.333-38.205-85.333-85.333s38.205-85.333 85.333-85.333v0zM341.333 277.333v-85.333h341.333v85.333h-341.333zM341.333 405.333v-85.333h341.333v85.333h-341.333z" />
<glyph unicode="&#xe949;" glyph-name="price-tag-2-line" d="M128 661.333l360.32 240.213c6.653 4.494 14.854 7.174 23.68 7.174s17.027-2.68 23.832-7.271l-0.152 0.096 360.32-240.213v-597.333c0-23.564-19.103-42.667-42.667-42.667v0h-682.667c-23.564 0-42.667 19.103-42.667 42.667v0 597.333zM213.333 615.68v-509.013h597.333v509.013l-298.667 199.083-298.667-199.083zM341.333 277.333h341.333v-85.333h-341.333v85.333zM341.333 405.333h341.333v-85.333h-341.333v85.333zM512 490.667c-47.128 0-85.333 38.205-85.333 85.333s38.205 85.333 85.333 85.333v0c47.128 0 85.333-38.205 85.333-85.333s-38.205-85.333-85.333-85.333v0z" />
<glyph unicode="&#xe94a;" glyph-name="price-tag-3-fill" d="M465.067 870.4l422.357-60.373 60.331-422.4-392.192-392.192c-7.721-7.718-18.386-12.492-30.165-12.492s-22.445 4.774-30.165 12.492l-422.4 422.4c-7.718 7.721-12.492 18.386-12.492 30.165s4.774 22.445 12.492 30.165l392.235 392.235zM585.728 508.331c15.442-15.436 36.771-24.984 60.331-24.984 47.13 0 85.336 38.206 85.336 85.336 0 23.57-9.556 44.908-25.005 60.352v0c-15.442 15.436-36.771 24.984-60.331 24.984-47.13 0-85.336-38.206-85.336-85.336 0-23.57 9.556-44.908 25.005-60.352v0z" />
<glyph unicode="&#xe94b;" glyph-name="price-tag-3-line" d="M465.067 870.4l422.357-60.373 60.331-422.4-392.192-392.192c-7.721-7.718-18.386-12.492-30.165-12.492s-22.445 4.774-30.165 12.492l-422.4 422.4c-7.718 7.721-12.492 18.386-12.492 30.165s4.774 22.445 12.492 30.165l392.235 392.235zM495.232 779.861l-331.904-331.861 362.069-362.027 331.861 331.861-45.227 316.8-316.8 45.227zM585.685 508.331c-15.442 15.447-24.992 36.784-24.992 60.352 0 47.146 38.22 85.366 85.366 85.366 23.578 0 44.924-9.559 60.373-25.013v0c15.442-15.447 24.992-36.784 24.992-60.352 0-47.146-38.22-85.366-85.366-85.366-23.578 0-44.924 9.559-60.373 25.013v0z" />
<glyph unicode="&#xe94c;" glyph-name="price-tag-fill" d="M128 661.333l360.32 240.213c6.653 4.494 14.854 7.174 23.68 7.174s17.027-2.68 23.832-7.271l-0.152 0.096 360.32-240.213v-597.333c0-23.564-19.103-42.667-42.667-42.667v0h-682.667c-23.564 0-42.667 19.103-42.667 42.667v0 597.333zM512 490.667c47.128 0 85.333 38.205 85.333 85.333s-38.205 85.333-85.333 85.333v0c-47.128 0-85.333-38.205-85.333-85.333s38.205-85.333 85.333-85.333v0z" />
<glyph unicode="&#xe94d;" glyph-name="price-tag-line" d="M128 661.333l360.32 240.213c6.653 4.494 14.854 7.174 23.68 7.174s17.027-2.68 23.832-7.271l-0.152 0.096 360.32-240.213v-597.333c0-23.564-19.103-42.667-42.667-42.667v0h-682.667c-23.564 0-42.667 19.103-42.667 42.667v0 597.333zM213.333 615.68v-509.013h597.333v509.013l-298.667 199.083-298.667-199.083zM512 490.667c-47.128 0-85.333 38.205-85.333 85.333s38.205 85.333 85.333 85.333v0c47.128 0 85.333-38.205 85.333-85.333s-38.205-85.333-85.333-85.333v0z" />
<glyph unicode="&#xe94e;" glyph-name="red-packet-fill" d="M896 706.688c-73.896-83.627-173.909-142.657-287.19-164.312l-3.199-0.509c-18.474 33.337-53.451 55.531-93.611 55.531s-75.136-22.194-93.333-54.986l-0.278-0.546c-116.479 22.164-216.493 81.193-289.914 164.274l-0.475 0.548v125.312c0 23.564 19.103 42.667 42.667 42.667v0h682.667c23.564 0 42.667-19.103 42.667-42.667v0-125.312zM896 587.776v-523.776c0-23.564-19.103-42.667-42.667-42.667v0h-682.667c-23.564 0-42.667 19.103-42.667 42.667v0 523.776c77.68-65.711 173.693-112.145 279.306-130.722l3.574-0.521c14.664-42.58 54.383-72.627 101.12-72.627s86.456 30.047 100.895 71.877l0.225 0.75c109.187 19.098 205.2 65.532 283.757 131.965l-0.877-0.723z" />
<glyph unicode="&#xe94f;" glyph-name="red-packet-line" d="M604.715 543.445c80.932 18.397 150.829 57.703 206.013 111.932l-0.061-0.060v134.016h-597.333v-134.016c55.123-54.169 125.020-93.475 203.093-111.322l2.859-0.55c18.707 32.44 53.202 53.924 92.715 53.924s74.008-21.485 92.44-53.409l0.274-0.515zM613.589 458.112c-14.237-43.323-54.325-74.052-101.589-74.052s-87.352 30.729-101.374 73.298l-0.215 0.754c-75.061 15.424-141.3 45.373-198.548 86.948l1.471-1.017v-437.376h597.333v437.419c-55.774-40.588-122.011-70.564-193.776-85.444l-3.301-0.572zM170.667 874.667h682.667c23.564 0 42.667-19.103 42.667-42.667v0-768c0-23.564-19.103-42.667-42.667-42.667v0h-682.667c-23.564 0-42.667 19.103-42.667 42.667v0 768c0 23.564 19.103 42.667 42.667 42.667v0z" />
<glyph unicode="&#xe950;" glyph-name="refund-2-fill" d="M512 874.667c235.648 0 426.667-191.019 426.667-426.667s-191.019-426.667-426.667-426.667c-0.184 0-0.403 0-0.622 0-103.651 0-198.635 37.109-272.39 98.765l0.671-0.546-10.411 8.917 38.485 81.152c62.049-63.552 148.578-102.965 244.313-102.965 188.513 0 341.333 152.82 341.333 341.333s-152.82 341.333-341.333 341.333c-184.759 0-335.232-146.793-341.152-330.113l-0.014-0.544-0.213-10.667h106.667l-115.456-243.883c-47.889 67.806-76.545 152.169-76.545 243.225 0 0.231 0 0.463 0.001 0.694v-0.037c0 235.648 191.019 426.667 426.667 426.667zM554.667 704v-85.333h106.667v-85.333h-234.667c-0.012 0-0.025 0-0.039 0-11.782 0-21.333-9.551-21.333-21.333 0-10.439 7.497-19.126 17.401-20.972l0.132-0.020 3.84-0.341h170.667c58.91 0 106.667-47.756 106.667-106.667s-47.756-106.667-106.667-106.667v0h-42.667v-85.333h-85.333v85.333h-106.667v85.333h234.667c0.012 0 0.025 0 0.039 0 11.782 0 21.333 9.551 21.333 21.333 0 10.439-7.497 19.126-17.401 20.972l-0.132 0.020-3.84 0.341h-170.667c-58.91 0-106.667 47.756-106.667 106.667s47.756 106.667 106.667 106.667v0h42.667v85.333h85.333z" />
<glyph unicode="&#xe951;" glyph-name="refund-2-line" d="M241.963 778.368c167.595 137.344 415.275 127.787 571.733-28.672 166.613-166.613 166.613-436.779 0-603.392s-436.779-166.613-603.392 0c-77.28 77.178-125.086 183.853-125.086 301.693 0 33.785 3.929 66.651 11.356 98.168l-0.574-2.891 3.285 13.355 82.517-21.76c-7.135-26.057-11.235-55.976-11.235-86.853 0-188.513 152.82-341.333 341.333-341.333s341.333 152.82 341.333 341.333c0 188.513-152.82 341.333-341.333 341.333-75.061 0-144.463-24.228-200.812-65.291l0.975 0.677-9.429-7.083 43.392-43.392-196.096-45.227 45.227 196.096 46.763-46.763zM554.667 704v-85.333h106.667v-85.333h-234.667c-0.012 0-0.025 0-0.039 0-11.782 0-21.333-9.551-21.333-21.333 0-10.439 7.497-19.126 17.401-20.972l0.132-0.020 3.84-0.341h170.667c58.91 0 106.667-47.756 106.667-106.667s-47.756-106.667-106.667-106.667v0h-42.667v-85.333h-85.333v85.333h-106.667v85.333h234.667c0.012 0 0.025 0 0.039 0 11.782 0 21.333 9.551 21.333 21.333 0 10.439-7.497 19.126-17.401 20.972l-0.132 0.020-3.84 0.341h-170.667c-58.91 0-106.667 47.756-106.667 106.667s47.756 106.667 106.667 106.667v0h42.667v85.333h85.333z" />
<glyph unicode="&#xe952;" glyph-name="refund-fill" d="M938.667 661.333h-853.333v128c0 23.564 19.103 42.667 42.667 42.667v0h768c23.564 0 42.667-19.103 42.667-42.667v0-128zM938.667 576v-469.333c0-23.564-19.103-42.667-42.667-42.667v0h-768c-23.564 0-42.667 19.103-42.667 42.667v0 469.333h853.333zM469.333 362.667v106.667l-192-192h448v85.333h-256z" />
<glyph unicode="&#xe953;" glyph-name="refund-line" d="M853.333 618.667v128h-682.667v-128h682.667zM853.333 533.333h-682.667v-384h682.667v384zM128 832h768c23.564 0 42.667-19.103 42.667-42.667v0-682.667c0-23.564-19.103-42.667-42.667-42.667v0h-768c-23.564 0-42.667 19.103-42.667 42.667v0 682.667c0 23.564 19.103 42.667 42.667 42.667v0zM469.333 362.667h256v-85.333h-448l192 192v-106.667z" />
<glyph unicode="&#xe954;" glyph-name="safe-2-fill" d="M426.667 106.667h-170.667v-85.333h-85.333v85.333h-42.667c-23.564 0-42.667 19.103-42.667 42.667v0 640c0 23.564 19.103 42.667 42.667 42.667v0h298.667v60.16c0.006 11.778 9.555 21.324 21.333 21.324 1.236 0 2.447-0.105 3.625-0.307l-0.126 0.018 451.499-75.264c20.357-3.477 35.659-20.985 35.669-42.068v-91.862h42.667v-85.333h-42.667v-298.667h42.667v-85.333h-42.667v-91.861c-0.010-21.085-15.312-38.592-35.417-42.034l-0.253-0.036-49.664-8.277v-71.125h-85.333v56.875l-316.501-52.736c-1.052-0.184-2.263-0.289-3.499-0.289-11.779 0-21.328 9.546-21.333 21.323v60.161zM512 122.027l341.333 56.917v580.779l-341.333 56.875v-694.528zM704 362.667c-35.328 0-64 47.787-64 106.667s28.672 106.667 64 106.667 64-47.787 64-106.667-28.672-106.667-64-106.667z" />
<glyph unicode="&#xe955;" glyph-name="safe-2-line" d="M853.333 92.459v-71.125h-85.333v56.875l-316.501-52.736c-1.052-0.184-2.263-0.289-3.499-0.289-11.779 0-21.328 9.546-21.333 21.323v60.161h-170.667v-85.333h-85.333v85.333h-42.667c-23.564 0-42.667 19.103-42.667 42.667v0 640c0 23.564 19.103 42.667 42.667 42.667v0h298.667v60.16c0.006 11.778 9.555 21.324 21.333 21.324 1.236 0 2.447-0.105 3.625-0.307l-0.126 0.018 451.499-75.264c20.357-3.477 35.659-20.985 35.669-42.068v-91.862h42.667v-85.333h-42.667v-298.667h42.667v-85.333h-42.667v-91.861c-0.010-21.085-15.312-38.592-35.417-42.034l-0.253-0.036-49.664-8.277zM170.667 746.667v-554.667h256v554.667h-256zM512 122.027l341.333 56.917v580.779l-341.333 56.875v-694.528zM704 362.667c-35.328 0-64 47.787-64 106.667s28.672 106.667 64 106.667 64-47.787 64-106.667-28.672-106.667-64-106.667z" />
<glyph unicode="&#xe956;" glyph-name="safe-fill" d="M768 106.667h-512v-85.333h-85.333v85.333h-42.667c-23.564 0-42.667 19.103-42.667 42.667v0 640c0 23.564 19.103 42.667 42.667 42.667v0h768c23.564 0 42.667-19.103 42.667-42.667v0-640c0-23.564-19.103-42.667-42.667-42.667v0h-42.667v-85.333h-85.333v85.333zM469.333 368.043v-133.376h85.333v133.376c73.991 19.803 127.587 86.245 127.587 165.206 0 94.129-76.164 170.468-170.227 170.751h-0.027c-0.050 0-0.109 0-0.169 0-94.257 0-170.667-76.41-170.667-170.667 0-79.156 53.888-145.725 126.979-165.024l1.19-0.267zM512 448c-47.128 0-85.333 38.205-85.333 85.333s38.205 85.333 85.333 85.333v0c47.128 0 85.333-38.205 85.333-85.333s-38.205-85.333-85.333-85.333v0z" />
<glyph unicode="&#xe957;" glyph-name="safe-line" d="M768 106.667h-512v-85.333h-85.333v85.333h-42.667c-23.564 0-42.667 19.103-42.667 42.667v0 640c0 23.564 19.103 42.667 42.667 42.667v0h768c23.564 0 42.667-19.103 42.667-42.667v0-640c0-23.564-19.103-42.667-42.667-42.667v0h-42.667v-85.333h-85.333v85.333zM170.667 192h682.667v554.667h-682.667v-554.667zM554.667 368.043v-133.376h-85.333v133.376c-73.991 19.803-127.587 86.245-127.587 165.206 0 94.129 76.164 170.468 170.227 170.751h0.027c0.050 0 0.109 0 0.169 0 94.257 0 170.667-76.41 170.667-170.667 0-79.156-53.888-145.725-126.979-165.024l-1.19-0.267zM512 448c47.128 0 85.333 38.205 85.333 85.333s-38.205 85.333-85.333 85.333v0c-47.128 0-85.333-38.205-85.333-85.333s38.205-85.333 85.333-85.333v0z" />
<glyph unicode="&#xe958;" glyph-name="secure-payment-fill" d="M469.333 874.667l311.381-97.28c17.5-5.587 29.952-21.703 29.952-40.728 0-0.007 0-0.013 0-0.020v0.001-75.307h85.333c23.564 0 42.667-19.103 42.667-42.667v0-85.333h-554.667v85.333c0 23.564 19.103 42.667 42.667 42.667v0h298.667v43.947l-256 80.043-256-80.043v-315.904c0-0.012 0-0.026 0-0.040 0-54.851 25.876-103.659 66.088-134.882l0.387-0.289 8.064-5.803 181.461-123.776 161.365 110.080h-204.032c-23.564 0-42.667 19.103-42.667 42.667v0 170.667h554.667v-170.667c0-23.564-19.103-42.667-42.667-42.667v0l-137.387-0.043c-16.512-21.76-36.565-40.96-59.733-56.747l-229.547-156.544-229.547 156.501c-67.865 46.728-111.787 123.992-111.787 211.515 0 0.009 0 0.019 0 0.028v-0.001 347.264c0.011 19.015 12.459 35.12 29.65 40.621l0.302 0.083 311.381 97.323z" />
<glyph unicode="&#xe959;" glyph-name="secure-payment-line" d="M469.333 874.667l311.381-97.28c17.5-5.587 29.952-21.703 29.952-40.728 0-0.007 0-0.013 0-0.020v0.001-75.307h85.333c23.564 0 42.667-19.103 42.667-42.667v0-341.333c0-23.564-19.103-42.667-42.667-42.667v0l-137.387-0.043c-16.512-21.76-36.565-40.96-59.733-56.747l-229.547-156.544-229.547 156.501c-67.865 46.728-111.787 123.992-111.787 211.515 0 0.009 0 0.019 0 0.028v-0.001 347.264c0.011 19.015 12.459 35.12 29.65 40.621l0.302 0.083 311.381 97.323zM469.333 785.323l-256-80.043v-315.904c0-0.012 0-0.026 0-0.040 0-54.851 25.876-103.659 66.088-134.882l0.387-0.289 8.064-5.803 181.461-123.776 161.365 110.080h-204.032c-23.564 0-42.667 19.103-42.667 42.667v0 341.333c0 23.564 19.103 42.667 42.667 42.667v0h298.667v43.947l-256 80.043zM469.333 448v-128h384v128h-384zM469.333 533.333h384v42.667h-384v-42.667z" />
<glyph unicode="&#xe95a;" glyph-name="shopping-bag-2-fill" d="M853.333 21.333h-682.667c-23.564 0-42.667 19.103-42.667 42.667v0 768c0 23.564 19.103 42.667 42.667 42.667v0h682.667c23.564 0 42.667-19.103 42.667-42.667v0-768c0-23.564-19.103-42.667-42.667-42.667v0zM384 704h-85.333v-85.333c0-117.821 95.513-213.333 213.333-213.333s213.333 95.513 213.333 213.333v0 85.333h-85.333v-85.333c0-70.692-57.308-128-128-128s-128 57.308-128 128v0 85.333z" />
<glyph unicode="&#xe95b;" glyph-name="shopping-bag-2-line" d="M853.333 21.333h-682.667c-23.564 0-42.667 19.103-42.667 42.667v0 768c0 23.564 19.103 42.667 42.667 42.667v0h682.667c23.564 0 42.667-19.103 42.667-42.667v0-768c0-23.564-19.103-42.667-42.667-42.667v0zM810.667 106.667v682.667h-597.333v-682.667h597.333zM384 704v-85.333c0-70.692 57.308-128 128-128s128 57.308 128 128v0 85.333h85.333v-85.333c0-117.821-95.513-213.333-213.333-213.333s-213.333 95.513-213.333 213.333v0 85.333h85.333z" />
<glyph unicode="&#xe95c;" glyph-name="shopping-bag-3-fill" d="M277.333 874.667h469.333c13.911 0 26.267-6.657 34.056-16.959l0.078-0.107 115.2-153.6v-640c0-23.564-19.103-42.667-42.667-42.667v0h-682.667c-23.564 0-42.667 19.103-42.667 42.667v0 640l115.2 153.6c7.867 10.41 20.223 17.067 34.133 17.067v0zM789.333 704l-64 85.333h-426.667l-64-85.333h554.667zM384 533.333h-85.333v-85.333c0-117.821 95.513-213.333 213.333-213.333s213.333 95.513 213.333 213.333v0 85.333h-85.333v-85.333c0-70.692-57.308-128-128-128s-128 57.308-128 128v0 85.333z" />
<glyph unicode="&#xe95d;" glyph-name="shopping-bag-3-line" d="M277.333 874.667h469.333c13.911 0 26.267-6.657 34.056-16.959l0.078-0.107 115.2-153.6v-640c0-23.564-19.103-42.667-42.667-42.667v0h-682.667c-23.564 0-42.667 19.103-42.667 42.667v0 640l115.2 153.6c7.867 10.41 20.223 17.067 34.133 17.067v0zM810.667 618.667h-597.333v-512h597.333v512zM789.333 704l-64 85.333h-426.667l-64-85.333h554.667zM384 533.333v-85.333c0-70.692 57.308-128 128-128s128 57.308 128 128v0 85.333h85.333v-85.333c0-117.821-95.513-213.333-213.333-213.333s-213.333 95.513-213.333 213.333v0 85.333h85.333z" />
<glyph unicode="&#xe95e;" glyph-name="shopping-bag-fill" d="M512 917.333c117.821 0 213.333-95.513 213.333-213.333v0-85.333h128c23.564 0 42.667-19.103 42.667-42.667v0-512c0-23.564-19.103-42.667-42.667-42.667v0h-682.667c-23.564 0-42.667 19.103-42.667 42.667v0 512c0 23.564 19.103 42.667 42.667 42.667v0h128v85.333c0 117.821 95.513 213.333 213.333 213.333v0zM725.333 490.667h-85.333v-42.667c0.027-23.544 19.119-42.619 42.667-42.619 21.788 0 39.762 16.332 42.347 37.421l0.021 0.206 0.299 4.992v42.667zM384 490.667h-85.333v-42.667c0.027-23.544 19.119-42.619 42.667-42.619 21.788 0 39.762 16.332 42.347 37.421l0.021 0.206 0.299 4.992v42.667zM512 832c-0.002 0-0.005 0-0.007 0-68.051 0-123.698-53.104-127.762-120.133l-0.017-0.358-0.213-7.509v-85.333h256v85.333c0 0.002 0 0.005 0 0.007 0 68.051-53.104 123.698-120.133 127.762l-0.358 0.017-7.509 0.213z" />
<glyph unicode="&#xe95f;" glyph-name="shopping-bag-line" d="M298.667 618.667v85.333c0 117.821 95.513 213.333 213.333 213.333s213.333-95.513 213.333-213.333v0-85.333h128c23.564 0 42.667-19.103 42.667-42.667v0-512c0-23.564-19.103-42.667-42.667-42.667v0h-682.667c-23.564 0-42.667 19.103-42.667 42.667v0 512c0 23.564 19.103 42.667 42.667 42.667v0h128zM298.667 533.333h-85.333v-426.667h597.333v426.667h-85.333v-85.333h-85.333v85.333h-256v-85.333h-85.333v85.333zM384 618.667h256v85.333c0 70.692-57.308 128-128 128s-128-57.308-128-128v0-85.333z" />
<glyph unicode="&#xe960;" glyph-name="shopping-basket-2-fill" d="M655.616 813.312l137.003-237.312h146.048v-85.333h-49.792l-32.299-387.541c-1.886-21.982-20.188-39.113-42.495-39.125h-604.161c-22.308 0.013-40.61 17.143-42.485 38.967l-0.011 0.159-32.341 387.541h-49.749v85.333h146.005l137.045 237.312 73.899-42.667-112.384-194.645h364.16l-112.341 194.645 73.899 42.667zM554.667 405.333h-85.333v-170.667h85.333v170.667zM384 405.333h-85.333v-170.667h85.333v170.667zM725.333 405.333h-85.333v-170.667h85.333v170.667z" />
<glyph unicode="&#xe961;" glyph-name="shopping-basket-2-line" d="M655.616 813.312l137.003-237.312h146.048v-85.333h-49.792l-32.299-387.541c-1.886-21.982-20.188-39.113-42.495-39.125h-604.161c-22.308 0.013-40.61 17.143-42.485 38.967l-0.011 0.159-32.341 387.541h-49.749v85.333h146.005l137.045 237.312 73.899-42.667-112.384-194.645h364.16l-112.341 194.645 73.899 42.667zM803.243 490.667h-582.528l28.459-341.333h525.611l28.459 341.333zM554.667 405.333v-170.667h-85.333v170.667h85.333zM384 405.333v-170.667h-85.333v170.667h85.333zM725.333 405.333v-170.667h-85.333v170.667h85.333z" />
<glyph unicode="&#xe962;" glyph-name="shopping-basket-fill" d="M512 874.667c141.385 0 256-114.615 256-256v0-42.667h170.667v-85.333h-49.792l-32.299-387.541c-1.886-21.982-20.188-39.113-42.495-39.125h-604.161c-22.308 0.013-40.61 17.143-42.485 38.967l-0.011 0.159-32.341 387.541h-49.749v85.333h170.667v42.667c0 141.385 114.615 256 256 256v0zM554.667 405.333h-85.333v-170.667h85.333v170.667zM384 405.333h-85.333v-170.667h85.333v170.667zM725.333 405.333h-85.333v-170.667h85.333v170.667zM512 789.333c-91.255 0-165.782-71.621-170.436-161.719l-0.017-0.415-0.213-8.533v-42.667h341.333v42.667c0 91.255-71.621 165.782-161.719 170.436l-0.415 0.017-8.533 0.213z" />
<glyph unicode="&#xe963;" glyph-name="shopping-basket-line" d="M512 874.667c141.385 0 256-114.615 256-256v0-42.667h170.667v-85.333h-49.792l-32.299-387.541c-1.886-21.982-20.188-39.113-42.495-39.125h-604.161c-22.308 0.013-40.61 17.143-42.485 38.967l-0.011 0.159-32.341 387.541h-49.749v85.333h170.667v42.667c0 141.385 114.615 256 256 256v0zM803.243 490.667h-582.528l28.459-341.333h525.611l28.459 341.333zM554.667 405.333v-170.667h-85.333v170.667h85.333zM384 405.333v-170.667h-85.333v170.667h85.333zM725.333 405.333v-170.667h-85.333v170.667h85.333zM512 789.333c-91.255 0-165.782-71.621-170.436-161.719l-0.017-0.415-0.213-8.533v-42.667h341.333v42.667c0 91.255-71.621 165.782-161.719 170.436l-0.415 0.017-8.533 0.213z" />
<glyph unicode="&#xe964;" glyph-name="shopping-cart-2-fill" d="M170.667 686.336l-138.368 138.325 60.373 60.373 138.325-138.368h650.325c0.001 0 0.002 0 0.003 0 23.564 0 42.667-19.103 42.667-42.667 0-4.367-0.656-8.58-1.875-12.548l0.080 0.302-102.4-341.333c-5.438-17.743-21.674-30.421-40.872-30.421-0.001 0-0.002 0-0.003 0h-522.923v-85.333h469.333v-85.333h-512c-23.564 0-42.667 19.103-42.667 42.667v0 494.336zM234.667-21.333c-35.346 0-64 28.654-64 64s28.654 64 64 64v0c35.346 0 64-28.654 64-64s-28.654-64-64-64v0zM746.667-21.333c-35.346 0-64 28.654-64 64s28.654 64 64 64v0c35.346 0 64-28.654 64-64s-28.654-64-64-64v0z" />
<glyph unicode="&#xe965;" glyph-name="shopping-cart-2-line" d="M170.667 686.336l-138.368 138.325 60.373 60.373 138.325-138.368h650.325c0.001 0 0.002 0 0.003 0 23.564 0 42.667-19.103 42.667-42.667 0-4.367-0.656-8.58-1.875-12.548l0.080 0.302-102.4-341.333c-5.438-17.743-21.674-30.421-40.872-30.421-0.001 0-0.002 0-0.003 0h-522.923v-85.333h469.333v-85.333h-512c-23.564 0-42.667 19.103-42.667 42.667v0 494.336zM256 661.333v-256h491.179l76.8 256h-567.979zM234.667-21.333c-35.346 0-64 28.654-64 64s28.654 64 64 64v0c35.346 0 64-28.654 64-64s-28.654-64-64-64v0zM746.667-21.333c-35.346 0-64 28.654-64 64s28.654 64 64 64v0c35.346 0 64-28.654 64-64s-28.654-64-64-64v0z" />
<glyph unicode="&#xe966;" glyph-name="shopping-cart-fill" d="M256 576h594.688l21.333 85.333h-530.688v85.333h585.387c23.564-0.001 42.666-19.103 42.666-42.667 0-3.682-0.466-7.255-1.343-10.664l0.065 0.296-106.667-426.667c-4.8-18.699-21.505-32.298-41.387-32.299h-606.72c-23.564 0-42.667 19.103-42.667 42.667v0 512h-85.333v85.333h128c23.564 0 42.667-19.103 42.667-42.667v0-256zM256-21.333c-47.128 0-85.333 38.205-85.333 85.333s38.205 85.333 85.333 85.333v0c47.128 0 85.333-38.205 85.333-85.333s-38.205-85.333-85.333-85.333v0zM768-21.333c-47.128 0-85.333 38.205-85.333 85.333s38.205 85.333 85.333 85.333v0c47.128 0 85.333-38.205 85.333-85.333s-38.205-85.333-85.333-85.333v0z" />
<glyph unicode="&#xe967;" glyph-name="shopping-cart-line" d="M170.667 277.333v512h-85.333v85.333h128c23.564 0 42.667-19.103 42.667-42.667v0-512h530.688l85.333 341.333h-530.688v85.333h585.387c23.564-0.001 42.666-19.103 42.666-42.667 0-3.682-0.466-7.255-1.343-10.664l0.065 0.296-106.667-426.667c-4.8-18.699-21.505-32.298-41.387-32.299h-606.72c-23.564 0-42.667 19.103-42.667 42.667v0zM256-21.333c-47.128 0-85.333 38.205-85.333 85.333s38.205 85.333 85.333 85.333v0c47.128 0 85.333-38.205 85.333-85.333s-38.205-85.333-85.333-85.333v0zM768-21.333c-47.128 0-85.333 38.205-85.333 85.333s38.205 85.333 85.333 85.333v0c47.128 0 85.333-38.205 85.333-85.333s-38.205-85.333-85.333-85.333v0z" />
<glyph unicode="&#xe968;" glyph-name="stock-fill" d="M341.333 746.667h128v-384h-128v-128h-85.333v128h-128v384h128v128h85.333v-128zM768 533.333h128v-384h-128v-128h-85.333v128h-128v384h128v128h85.333v-128z" />
<glyph unicode="&#xe969;" glyph-name="stock-line" d="M341.333 746.667h128v-384h-128v-128h-85.333v128h-128v384h128v128h85.333v-128zM213.333 661.333v-213.333h170.667v213.333h-170.667zM768 533.333h128v-384h-128v-128h-85.333v128h-128v384h128v128h85.333v-128zM640 448v-213.333h170.667v213.333h-170.667z" />
<glyph unicode="&#xe96a;" glyph-name="swap-box-fill" d="M128 832h768c23.564 0 42.667-19.103 42.667-42.667v0-682.667c0-23.564-19.103-42.667-42.667-42.667v0h-768c-23.564 0-42.667 19.103-42.667 42.667v0 682.667c0 23.564 19.103 42.667 42.667 42.667v0zM640 661.333v-85.333h-170.667v-85.333h170.667v-85.333l149.333 128-149.333 128zM384 234.667v85.333h170.667v85.333h-170.667v85.333l-149.333-128 149.333-128z" />
<glyph unicode="&#xe96b;" glyph-name="swap-box-line" d="M170.667 746.667v-597.333h682.667v597.333h-682.667zM128 832h768c23.564 0 42.667-19.103 42.667-42.667v0-682.667c0-23.564-19.103-42.667-42.667-42.667v0h-768c-23.564 0-42.667 19.103-42.667 42.667v0 682.667c0 23.564 19.103 42.667 42.667 42.667v0zM640 661.333l149.333-128-149.333-128v85.333h-170.667v85.333h170.667v85.333zM384 234.667l-149.333 128 149.333 128v-85.333h170.667v-85.333h-170.667v-85.333z" />
<glyph unicode="&#xe96c;" glyph-name="swap-fill" d="M512 21.333c-235.648 0-426.667 191.019-426.667 426.667s191.019 426.667 426.667 426.667 426.667-191.019 426.667-426.667-191.019-426.667-426.667-426.667zM298.667 576h85.333v-170.667h85.333v170.667h85.333l-128 149.333-128-149.333zM725.333 320h-85.333v170.667h-85.333v-170.667h-85.333l128-149.333 128 149.333z" />
<glyph unicode="&#xe96d;" glyph-name="swap-line" d="M512 21.333c-235.648 0-426.667 191.019-426.667 426.667s191.019 426.667 426.667 426.667 426.667-191.019 426.667-426.667-191.019-426.667-426.667-426.667zM512 106.667c188.513 0 341.333 152.82 341.333 341.333s-152.82 341.333-341.333 341.333v0c-188.513 0-341.333-152.82-341.333-341.333s152.82-341.333 341.333-341.333v0zM298.667 576l128 149.333 128-149.333h-85.333v-170.667h-85.333v170.667h-85.333zM725.333 320l-128-149.333-128 149.333h85.333v170.667h85.333v-170.667h85.333z" />
<glyph unicode="&#xe96e;" glyph-name="ticket-2-fill" d="M896 832c23.564 0 42.667-19.103 42.667-42.667v0-234.667c-58.91 0-106.667-47.756-106.667-106.667s47.756-106.667 106.667-106.667v0-234.667c0-23.564-19.103-42.667-42.667-42.667v0h-768c-23.564 0-42.667 19.103-42.667 42.667v0 234.667c58.91 0 106.667 47.756 106.667 106.667s-47.756 106.667-106.667 106.667v0 234.667c0 23.564 19.103 42.667 42.667 42.667v0h768zM682.667 576h-341.333v-256h341.333v256z" />
<glyph unicode="&#xe96f;" glyph-name="ticket-2-line" d="M896 832c23.564 0 42.667-19.103 42.667-42.667v0-234.667c-58.91 0-106.667-47.756-106.667-106.667s47.756-106.667 106.667-106.667v0-234.667c0-23.564-19.103-42.667-42.667-42.667v0h-768c-23.564 0-42.667 19.103-42.667 42.667v0 234.667c58.91 0 106.667 47.756 106.667 106.667s-47.756 106.667-106.667 106.667v0 234.667c0 23.564 19.103 42.667 42.667 42.667v0h768zM853.333 746.667h-682.667v-126.635l6.656-3.456c57.481-31.81 96.522-90.783 99.823-159.133l0.017-0.44 0.171-9.003c0-0.009 0-0.019 0-0.030 0-72.303-39.974-135.269-99.027-168.003l-0.983-0.5-6.656-3.499v-126.635h682.667v126.677l-6.656 3.413c-57.481 31.81-96.522 90.783-99.823 159.133l-0.017 0.44-0.171 9.003c0 72.704 40.405 135.979 100.011 168.533l6.656 3.541v126.592zM682.667 576v-256h-341.333v256h341.333z" />
<glyph unicode="&#xe970;" glyph-name="ticket-fill" d="M896 832c23.564 0 42.667-19.103 42.667-42.667v0-234.667c-58.91 0-106.667-47.756-106.667-106.667s47.756-106.667 106.667-106.667v0-234.667c0-23.564-19.103-42.667-42.667-42.667v0h-768c-23.564 0-42.667 19.103-42.667 42.667v0 234.667c58.91 0 106.667 47.756 106.667 106.667s-47.756 106.667-106.667 106.667v0 234.667c0 23.564 19.103 42.667 42.667 42.667v0h768z" />
<glyph unicode="&#xe971;" glyph-name="ticket-line" d="M896 832c23.564 0 42.667-19.103 42.667-42.667v0-234.667c-58.91 0-106.667-47.756-106.667-106.667s47.756-106.667 106.667-106.667v0-234.667c0-23.564-19.103-42.667-42.667-42.667v0h-768c-23.564 0-42.667 19.103-42.667 42.667v0 234.667c58.91 0 106.667 47.756 106.667 106.667s-47.756 106.667-106.667 106.667v0 234.667c0 23.564 19.103 42.667 42.667 42.667v0h768zM853.333 746.667h-682.667v-126.635l6.656-3.456c57.481-31.81 96.522-90.783 99.823-159.133l0.017-0.44 0.171-9.003c0-0.009 0-0.019 0-0.030 0-72.303-39.974-135.269-99.027-168.003l-0.983-0.5-6.656-3.499v-126.635h682.667v126.677l-6.656 3.413c-57.481 31.81-96.522 90.783-99.823 159.133l-0.017 0.44-0.171 9.003c0 72.704 40.405 135.979 100.011 168.533l6.656 3.541v126.592z" />
<glyph unicode="&#xe972;" glyph-name="trophy-fill" d="M554.667 237.312v-87.979h213.333v-85.333h-512v85.333h213.333v87.979c-169.261 21.956-298.664 165.21-298.667 338.688v0 256h682.667v-256c-0.003-173.479-129.406-316.733-296.951-338.506l-1.715-0.182zM42.667 746.667h85.333v-170.667h-85.333v170.667zM896 746.667h85.333v-170.667h-85.333v170.667z" />
<glyph unicode="&#xe973;" glyph-name="trophy-line" d="M554.667 237.312v-87.979h213.333v-85.333h-512v85.333h213.333v87.979c-169.261 21.956-298.664 165.21-298.667 338.688v0 256h682.667v-256c-0.003-173.479-129.406-316.733-296.951-338.506l-1.715-0.182zM256 746.667v-170.667c0-141.385 114.615-256 256-256s256 114.615 256 256v0 170.667h-512zM42.667 746.667h85.333v-170.667h-85.333v170.667zM896 746.667h85.333v-170.667h-85.333v170.667z" />
<glyph unicode="&#xe974;" glyph-name="vip-crown-2-fill" d="M119.467 738.133l179.2-119.467 178.603 250.027c7.833 10.881 20.464 17.883 34.731 17.883s26.897-7.002 34.644-17.757l0.087-0.126 178.603-250.027 179.2 119.467c6.643 4.475 14.827 7.144 23.634 7.144 23.564 0 42.667-19.103 42.667-42.667 0-1.766-0.107-3.506-0.316-5.216l0.020 0.205-70.101-595.925c-2.584-21.316-20.565-37.672-42.368-37.675h-692.139c-21.803 0.003-39.784 16.359-42.348 37.47l-0.020 0.205-70.101 595.968c-0.184 1.49-0.29 3.215-0.29 4.964 0 23.564 19.103 42.667 42.667 42.667 8.804 0 16.986-2.667 23.781-7.237l-0.153 0.097zM512 320c47.128 0 85.333 38.205 85.333 85.333s-38.205 85.333-85.333 85.333v0c-47.128 0-85.333-38.205-85.333-85.333s38.205-85.333 85.333-85.333v0z" />
<glyph unicode="&#xe975;" glyph-name="vip-crown-2-line" d="M148.992 615.893l54.869-466.56h616.277l54.869 466.56-171.093-114.048-191.915 268.672-191.915-268.672-171.093 114.048zM119.509 738.133l179.157-119.467 178.603 250.027c7.833 10.881 20.464 17.883 34.731 17.883s26.897-7.002 34.644-17.757l0.087-0.126 178.603-250.027 179.2 119.467c6.643 4.475 14.827 7.144 23.634 7.144 23.564 0 42.667-19.103 42.667-42.667 0-1.766-0.107-3.506-0.316-5.216l0.020 0.205-70.101-595.925c-2.584-21.316-20.565-37.672-42.368-37.675h-692.139c-21.803 0.003-39.784 16.359-42.348 37.47l-0.020 0.205-70.101 595.968c-0.184 1.49-0.29 3.215-0.29 4.964 0 23.564 19.103 42.667 42.667 42.667 8.804 0 16.986-2.667 23.781-7.237l-0.153 0.097zM512 320c-47.128 0-85.333 38.205-85.333 85.333s38.205 85.333 85.333 85.333v0c47.128 0 85.333-38.205 85.333-85.333s-38.205-85.333-85.333-85.333v0z" />
<glyph unicode="&#xe976;" glyph-name="vip-crown-fill" d="M85.333 149.333h853.333v-85.333h-853.333v85.333zM85.333 746.667l213.333-128 213.333 256 213.333-256 213.333 128v-512h-853.333v512z" />
<glyph unicode="&#xe977;" glyph-name="vip-crown-line" d="M85.333 149.333h853.333v-85.333h-853.333v85.333zM85.333 746.667l213.333-149.333 213.333 277.333 213.333-277.333 213.333 149.333v-512h-853.333v512zM170.667 582.784v-262.784h682.667v262.784l-145.92-102.144-195.413 254.080-195.413-254.080-145.92 102.187z" />
<glyph unicode="&#xe978;" glyph-name="vip-diamond-fill" d="M207.915 832h608.171c0.002 0 0.004 0 0.006 0 14.135 0 26.664-6.873 34.428-17.459l0.083-0.119 163.115-224.256c2.547-3.471 4.076-7.828 4.076-12.541 0-5.59-2.15-10.677-5.667-14.481l0.013 0.014-484.48-524.843c-3.909-4.215-9.477-6.845-15.659-6.845s-11.75 2.63-15.646 6.831l-0.013 0.014-484.48 524.8c-3.515 3.792-5.672 8.887-5.672 14.485 0 4.724 1.535 9.089 4.135 12.624l-0.042-0.059 163.115 224.256c7.848 10.706 20.377 17.579 34.511 17.579 0.002 0 0.004 0 0.006 0v0z" />
<glyph unicode="&#xe979;" glyph-name="vip-diamond-line" d="M207.915 832h608.171c0.002 0 0.004 0 0.006 0 14.135 0 26.664-6.873 34.428-17.459l0.083-0.119 163.115-224.256c2.547-3.471 4.076-7.828 4.076-12.541 0-5.59-2.15-10.677-5.667-14.481l0.013 0.014-484.48-524.843c-3.909-4.216-9.477-6.846-15.66-6.846-5.588 0-10.674 2.148-14.477 5.664l0.014-0.013c-0.299 0.256-162.133 175.573-485.675 526.037-3.505 3.79-5.654 8.877-5.654 14.467 0 4.714 1.529 9.070 4.117 12.601l-0.042-0.060 163.115 224.256c7.848 10.706 20.377 17.579 34.511 17.579 0.002 0 0.004 0 0.006 0v0zM229.675 746.667l-119.467-164.267 401.792-435.2 401.792 435.2-119.467 164.267h-564.651z" />
<glyph unicode="&#xe97a;" glyph-name="vip-fill" d="M128 832h768c23.564 0 42.667-19.103 42.667-42.667v0-682.667c0-23.564-19.103-42.667-42.667-42.667v0h-768c-23.564 0-42.667 19.103-42.667 42.667v0 682.667c0 23.564 19.103 42.667 42.667 42.667v0zM469.333 597.333v-298.667h85.333v298.667h-85.333zM457.173 597.333h-90.197l-63.872-175.488-63.872 175.488h-90.197l111.403-297.131h85.333l111.403 297.131zM682.667 384h64c58.91 0 106.667 47.756 106.667 106.667s-47.756 106.667-106.667 106.667v0h-149.333v-298.667h85.333v85.333zM682.667 469.333v42.667h64c11.782 0 21.333-9.551 21.333-21.333s-9.551-21.333-21.333-21.333v0h-64z" />
<glyph unicode="&#xe97b;" glyph-name="vip-line" d="M85.333 149.333h853.333v-85.333h-853.333v85.333zM469.333 618.667h85.333v-341.333h-85.333v341.333zM339.84 618.667h90.667l-127.403-339.797h-85.333l-127.403 339.797h90.667l79.403-218.155 79.403 218.155zM725.333 362.667v-85.333h-85.333v341.333h170.667c70.692 0 128-57.308 128-128s-57.308-128-128-128v0h-85.333zM725.333 533.333v-85.333h85.333c23.564 0 42.667 19.103 42.667 42.667s-19.103 42.667-42.667 42.667v0h-85.333zM85.333 832h853.333v-85.333h-853.333v85.333z" />
<glyph unicode="&#xe97c;" glyph-name="wallet-2-fill" d="M938.667 618.667h-384c-23.564 0-42.667-19.103-42.667-42.667v0-256c0-23.564 19.103-42.667 42.667-42.667v0h384v-170.667c0-23.564-19.103-42.667-42.667-42.667v0h-768c-23.564 0-42.667 19.103-42.667 42.667v0 682.667c0 23.564 19.103 42.667 42.667 42.667v0h768c23.564 0 42.667-19.103 42.667-42.667v0-170.667zM640 490.667h128v-85.333h-128v85.333z" />
<glyph unicode="&#xe97d;" glyph-name="wallet-2-line" d="M853.333 661.333v85.333h-682.667v-597.333h682.667v85.333h-341.333c-23.564 0-42.667 19.103-42.667 42.667v0 341.333c0 23.564 19.103 42.667 42.667 42.667v0h341.333zM128 832h768c23.564 0 42.667-19.103 42.667-42.667v0-682.667c0-23.564-19.103-42.667-42.667-42.667v0h-768c-23.564 0-42.667 19.103-42.667 42.667v0 682.667c0 23.564 19.103 42.667 42.667 42.667v0zM554.667 576v-256h298.667v256h-298.667zM640 490.667h128v-85.333h-128v85.333z" />
<glyph unicode="&#xe97e;" glyph-name="wallet-3-fill" d="M938.667 704h-298.667c-141.385 0-256-114.615-256-256s114.615-256 256-256v0h298.667v-85.333c0-23.564-19.103-42.667-42.667-42.667v0h-768c-23.564 0-42.667 19.103-42.667 42.667v0 682.667c0 23.564 19.103 42.667 42.667 42.667v0h768c23.564 0 42.667-19.103 42.667-42.667v0-85.333zM640 618.667h341.333v-341.333h-341.333c-94.257 0-170.667 76.41-170.667 170.667s76.41 170.667 170.667 170.667v0zM640 490.667v-85.333h128v85.333h-128z" />
<glyph unicode="&#xe97f;" glyph-name="wallet-3-line" d="M938.667 661.333h42.667v-426.667h-42.667v-128c0-23.564-19.103-42.667-42.667-42.667v0h-768c-23.564 0-42.667 19.103-42.667 42.667v0 682.667c0 23.564 19.103 42.667 42.667 42.667v0h768c23.564 0 42.667-19.103 42.667-42.667v0-128zM853.333 234.667h-256c-117.821 0-213.333 95.513-213.333 213.333s95.513 213.333 213.333 213.333v0h256v85.333h-682.667v-597.333h682.667v85.333zM896 320v256h-298.667c-70.692 0-128-57.308-128-128s57.308-128 128-128v0h298.667zM597.333 490.667h128v-85.333h-128v85.333z" />
<glyph unicode="&#xe980;" glyph-name="wallet-fill" d="M85.333 576h810.667c23.564 0 42.667-19.103 42.667-42.667v0-426.667c0-23.564-19.103-42.667-42.667-42.667v0h-768c-23.564 0-42.667 19.103-42.667 42.667v0 469.333zM128 832h640v-170.667h-682.667v128c0 23.564 19.103 42.667 42.667 42.667v0zM640 362.667v-85.333h128v85.333h-128z" />
<glyph unicode="&#xe981;" glyph-name="wallet-line" d="M768 661.333h128c23.564 0 42.667-19.103 42.667-42.667v0-512c0-23.564-19.103-42.667-42.667-42.667v0h-768c-23.564 0-42.667 19.103-42.667 42.667v0 682.667c0 23.564 19.103 42.667 42.667 42.667v0h640v-170.667zM170.667 576v-426.667h682.667v426.667h-682.667zM170.667 746.667v-85.333h512v85.333h-512zM640 405.333h128v-85.333h-128v85.333z" />
<glyph unicode="&#xe982;" glyph-name="water-flash-fill" d="M240.469 676.864l271.531 271.531 271.531-271.531c69.489-69.49 112.469-165.49 112.469-271.527 0-212.077-171.923-384-384-384s-384 171.923-384 384c0 106.038 42.98 202.037 112.47 271.528v0zM554.667 490.667v192l-192-277.333h106.667v-192l192 277.333h-106.667z" />
<glyph unicode="&#xe983;" glyph-name="water-flash-line" d="M512 827.733l-211.2-211.2c-54.042-54.047-87.467-128.709-87.467-211.178 0-164.949 133.718-298.667 298.667-298.667s298.667 133.718 298.667 298.667c0 82.469-33.425 157.132-87.467 211.179l-211.2 211.2zM512 948.395l271.531-271.531c69.489-69.49 112.469-165.49 112.469-271.527 0-212.077-171.923-384-384-384s-384 171.923-384 384c0 106.038 42.98 202.037 112.47 271.528l271.53 271.53zM554.667 490.667h106.667l-192-277.333v192h-106.667l192 277.333v-192z" />
</font>
</defs>
</svg>
